<svg width="584" height="585" viewBox="0 0 584 585" fill="none" xmlns="http://www.w3.org/2000/svg">
<path d="M91.1289 285.712C33.5868 285.712 -14.7404 333.729 4.94627 387.798C13.076 410.127 23.8857 431.52 37.2263 451.485C70.0131 500.554 116.614 538.799 171.137 561.383C225.659 583.967 285.654 589.876 343.535 578.362C401.416 566.849 454.583 538.431 496.312 496.701C538.042 454.971 566.46 401.805 577.974 343.924C589.487 286.043 583.578 226.048 560.994 171.525C538.41 117.003 500.165 70.4018 451.096 37.615C431.131 24.2744 409.738 13.4647 387.409 5.33498C333.34 -14.3517 285.323 33.9754 285.323 91.5175L285.323 142.69C285.323 171.97 310.982 194.608 335.327 210.875C350.129 220.765 361.665 234.822 368.477 251.269C375.289 267.715 377.072 285.812 373.599 303.271C370.126 320.73 361.554 336.768 348.967 349.355C336.379 361.943 320.342 370.515 302.882 373.988C285.423 377.461 267.326 375.678 250.88 368.866C234.434 362.054 220.377 350.517 210.487 335.716C194.22 311.37 171.582 285.712 142.302 285.712L91.1289 285.712Z" fill="url(#paint0_linear_10603_49737)" fill-opacity="0.15"/>
<defs>
<linearGradient id="paint0_linear_10603_49737" x1="285.323" y1="584.096" x2="285.323" y2="-12.6717" gradientUnits="userSpaceOnUse">
<stop stop-color="#76BDFF"/>
<stop offset="1" stop-color="#FF94EE"/>
</linearGradient>
</defs>
</svg>
