<svg width="500" height="400" viewBox="0 0 500 400" fill="none" xmlns="http://www.w3.org/2000/svg">
<path d="M500 332.396H0V332.646H500V332.396Z" fill="#EBEBEB"/>
<path d="M85.581 341.922H52.459V342.172H85.581V341.922Z" fill="#EBEBEB"/>
<path d="M179.833 339.207H153.444V339.457H179.833V339.207Z" fill="#EBEBEB"/>
<path d="M135.888 347.822H89.9648V348.072H135.888V347.822Z" fill="#EBEBEB"/>
<path d="M449.902 349.527H428.305V349.777H449.902V349.527Z" fill="#EBEBEB"/>
<path d="M423.444 349.527H391.471V349.777H423.444V349.527Z" fill="#EBEBEB"/>
<path d="M332.333 345.305H277.213V345.555H332.333V345.305Z" fill="#EBEBEB"/>
<path d="M237.014 287.799H43.915C40.768 287.799 38.207 285.238 38.207 282.091V10.6592C38.207 7.51217 40.768 4.95117 43.915 4.95117H237.014C240.16 4.95117 242.721 7.51217 242.721 10.6592V282.091C242.721 285.238 240.16 287.799 237.014 287.799ZM43.915 5.20217C40.905 5.20217 38.457 7.65017 38.457 10.6602V282.092C38.457 285.102 40.905 287.55 43.915 287.55H237.014C240.023 287.55 242.471 285.102 242.471 282.092V10.6592C242.471 7.65017 240.023 5.20117 237.014 5.20117L43.915 5.20217Z" fill="#EBEBEB"/>
<path d="M453.31 287.799H260.212C257.065 287.799 254.505 285.238 254.505 282.091V10.6592C254.505 7.51217 257.066 4.95117 260.212 4.95117H453.31C456.458 4.95117 459.018 7.51217 459.018 10.6592V282.091C459.019 285.238 456.458 287.799 453.31 287.799ZM260.212 5.20217C257.203 5.20217 254.755 7.65017 254.755 10.6602V282.092C254.755 285.102 257.203 287.55 260.212 287.55H453.31C456.32 287.55 458.768 285.102 458.768 282.092V10.6592C458.768 7.65017 456.32 5.20117 453.31 5.20117L260.212 5.20217Z" fill="#EBEBEB"/>
<path d="M289.314 35.4785H77.5259V166.133H289.314V35.4785Z" fill="#E6E6E6"/>
<path d="M294.755 35.4785H80.0679V166.133H294.755V35.4785Z" fill="#F0F0F0"/>
<path d="M289.314 166.133H77.5259V176.244H289.314V166.133Z" fill="#E6E6E6"/>
<path d="M303.82 166.133H89.1328V176.244H303.82V166.133Z" fill="#F0F0F0"/>
<path d="M287.137 158.515V43.0957L87.6852 43.0957L87.6852 158.515L287.137 158.515Z" fill="#FAFAFA"/>
<path d="M102.328 158.515L147.037 43.0957H168.142L123.433 158.515H102.328Z" fill="white"/>
<path d="M127.967 158.515L172.676 43.0957H180.904L136.195 158.515H127.967Z" fill="white"/>
<path d="M206.188 158.515L250.897 43.0957H259.125L214.416 158.515H206.188Z" fill="white"/>
<path d="M287.137 158.515V43.0957H286.17V158.515H287.137Z" fill="#E6E6E6"/>
<path d="M306.496 232.936H269.038V332.396H306.496V232.936Z" fill="#E6E6E6"/>
<path d="M299.382 332.395H306.497V309.619H291.922L299.382 332.395Z" fill="#F0F0F0"/>
<path d="M92.769 232.936H55.311V332.396H92.769V232.936Z" fill="#E6E6E6"/>
<path d="M306.497 232.936H86.5601V328.796H306.497V232.936Z" fill="#F0F0F0"/>
<path d="M93.6751 332.395H86.5601V309.619H101.134L93.6751 332.395Z" fill="#F0F0F0"/>
<path d="M159.07 246.245V314.544C159.07 315.877 157.99 316.957 156.657 316.957H96.287C94.954 316.957 93.874 315.876 93.874 314.544V246.245C93.874 244.912 94.954 243.832 96.287 243.832H156.657C157.99 243.832 159.07 244.912 159.07 246.245Z" fill="#FAFAFA"/>
<path d="M132.92 251.322H120.022C114.419 251.322 109.063 247.984 105.21 242.092H147.733C143.879 247.984 138.523 251.322 132.92 251.322Z" fill="#F0F0F0"/>
<path d="M229.127 246.245V314.544C229.127 315.877 228.046 316.957 226.714 316.957H166.344C165.011 316.957 163.931 315.876 163.931 314.544V246.245C163.931 244.912 165.012 243.832 166.344 243.832H226.714C228.047 243.832 229.127 244.912 229.127 246.245Z" fill="#FAFAFA"/>
<path d="M203.636 251.322H190.738C185.135 251.322 179.779 247.984 175.926 242.092H218.449C214.595 247.984 209.239 251.322 203.636 251.322Z" fill="#F0F0F0"/>
<path d="M299.184 246.245V314.544C299.184 315.877 298.103 316.957 296.771 316.957H236.401C235.068 316.957 233.988 315.876 233.988 314.544V246.245C233.988 244.912 235.068 243.832 236.401 243.832H296.771C298.104 243.832 299.184 244.912 299.184 246.245Z" fill="#FAFAFA"/>
<path d="M273.693 251.322H260.795C255.192 251.322 249.836 247.984 245.983 242.092H288.506C284.652 247.984 279.296 251.322 273.693 251.322Z" fill="#F0F0F0"/>
<path d="M461.469 223.183C461.373 222.718 460.967 222.385 460.487 222.385H434.415C433.942 222.385 433.529 222.717 433.44 223.183L419.946 332.398H421.992L435.235 224.387H459.674L472.917 332.398H474.963L461.469 223.183Z" fill="#F0F0F0"/>
<path d="M422.243 223.183C422.147 222.718 421.733 222.385 421.261 222.385H395.189C394.709 222.385 394.303 222.717 394.207 223.183L380.713 332.398H382.759L396.009 224.387H420.441L433.684 332.398H435.73L422.243 223.183Z" fill="#F0F0F0"/>
<path d="M440.951 223.383H396.048C387.475 223.383 382.726 217.554 380.303 207.955L379.11 202.466C378.13 197.956 379.806 193.169 383.61 190.556C385.454 189.289 387.688 188.547 390.097 188.547H418.246C424.078 188.547 425.616 189.935 429.643 198.719C433.67 207.501 440.951 223.383 440.951 223.383Z" fill="#F0F0F0"/>
<path d="M460.404 214.779H416.461V223.383H464.311C465.55 223.383 466.554 222.379 466.554 221.14V220.929C466.554 217.532 463.8 214.779 460.404 214.779Z" fill="#F0F0F0"/>
<path d="M402.967 223.183C402.871 222.718 402.465 222.385 401.985 222.385H375.913C375.44 222.385 375.027 222.717 374.938 223.183L361.444 332.398H363.49L376.733 224.387H401.173L414.416 332.398H416.462L402.967 223.183Z" fill="#F0F0F0"/>
<path d="M363.741 223.183C363.645 222.718 363.231 222.385 362.759 222.385H336.687C336.207 222.385 335.801 222.717 335.705 223.183L322.211 332.398H324.257L337.507 224.387H361.939L375.182 332.398H377.228L363.741 223.183Z" fill="#F0F0F0"/>
<path d="M382.449 223.383H337.546C328.973 223.383 324.224 217.554 321.801 207.955L320.608 202.466C319.628 197.956 321.304 193.169 325.108 190.556C326.952 189.289 329.185 188.547 331.595 188.547H359.744C365.577 188.547 367.114 189.935 371.141 198.719C375.168 207.501 382.449 223.383 382.449 223.383Z" fill="#F0F0F0"/>
<path d="M401.902 214.779H357.959V223.383H405.809C407.047 223.383 408.052 222.379 408.052 221.14V220.929C408.052 217.532 405.298 214.779 401.902 214.779Z" fill="#F0F0F0"/>
<path d="M429.198 30.1152H351.529V120.693H429.198V30.1152Z" fill="#F0F0F0"/>
<path d="M435.729 30.1152H352.699V120.693H435.729V30.1152Z" fill="#F5F5F5"/>
<path d="M428.591 113.556V37.2539L359.837 37.2539V113.556L428.591 113.556Z" fill="white"/>
<path d="M388.682 104.182H399.746V69.8296H388.682V104.182Z" fill="#E6E6E6"/>
<path d="M407.492 104.18H418.556V88.0977H407.492V104.18Z" fill="#E6E6E6"/>
<path d="M407.492 88.0977H418.556V78.2906H407.492V88.0977Z" fill="#F0F0F0"/>
<path d="M388.682 69.8301H399.746V48.8831H388.682V69.8301Z" fill="#F0F0F0"/>
<path d="M369.872 104.182H380.936V76.0846H369.872V104.182Z" fill="#E6E6E6"/>
<path d="M369.872 76.084H380.936V63.205H369.872V76.084Z" fill="#F0F0F0"/>
<path d="M250 377.56C357.082 377.56 443.889 372.491 443.889 366.237C443.889 359.984 357.082 354.914 250 354.914C142.918 354.914 56.1108 359.984 56.1108 366.237C56.1108 372.491 142.918 377.56 250 377.56Z" fill="#F5F5F5"/>
<path d="M246.368 356.962L255.224 357.039L259.936 336.531L251.081 336.453L246.368 356.962Z" fill="#FF8B7B"/>
<path d="M255.444 356.013L245.764 355.928C245.402 355.925 245.069 356.174 244.964 356.527L242.624 364.386C242.381 365.201 242.944 365.98 243.781 365.973C247.278 365.944 252.339 365.784 256.728 365.823C261.86 365.868 262.918 366.187 268.936 366.239C272.575 366.271 273.86 362.603 272.362 362.256C265.541 360.679 263.245 360.467 257.529 356.722C256.906 356.315 256.209 356.02 255.444 356.013Z" fill="#263238"/>
<path opacity="0.2" d="M259.933 336.536L257.506 347.108L248.646 347.03L251.074 336.459L259.933 336.536Z" fill="black"/>
<path d="M259.104 357.595C258.107 357.595 257.024 357.413 256.265 357.253C256.177 357.235 256.111 357.162 256.1 357.073C256.089 356.984 256.136 356.898 256.216 356.859C256.637 356.653 260.361 354.866 261.379 355.501C261.574 355.623 261.678 355.818 261.678 356.066C261.678 356.484 261.52 356.825 261.208 357.079C260.733 357.464 259.949 357.595 259.104 357.595ZM256.98 356.963C258.899 357.3 260.358 357.227 260.943 356.752C261.155 356.58 261.258 356.355 261.258 356.066C261.258 355.937 261.207 355.888 261.157 355.857C260.611 355.516 258.506 356.273 256.98 356.963Z" fill="#407BFF"/>
<path d="M256.309 357.256C256.262 357.256 256.217 357.241 256.179 357.211C256.119 357.163 256.089 357.087 256.102 357.011C256.129 356.849 256.799 353.039 258.911 353.274C259.468 353.336 259.624 353.617 259.657 353.842C259.804 354.838 257.528 356.756 256.391 357.24C256.364 357.25 256.336 357.256 256.309 357.256ZM258.731 353.684C257.461 353.684 256.823 355.755 256.605 356.663C257.774 356.001 259.328 354.497 259.241 353.902C259.235 353.859 259.216 353.73 258.864 353.691C258.819 353.686 258.774 353.684 258.731 353.684Z" fill="#407BFF"/>
<path d="M299.982 114.627C300.112 120.022 300.298 125.618 300.558 131.088C300.676 133.833 300.831 136.574 301.022 139.294C301.195 142.018 301.431 144.724 301.725 147.389C301.861 148.726 302.016 150.052 302.206 151.354L302.339 152.338C302.357 152.462 302.341 152.373 302.34 152.397L302.321 152.393C302.321 152.393 302.296 152.39 302.294 152.396C302.261 152.414 302.257 152.504 302.335 152.686C302.491 153.052 303.024 153.668 303.787 154.248C304.554 154.827 305.502 155.437 306.549 155.981C310.779 158.18 316.153 159.796 321.25 161.23L320.709 168C317.618 168.184 314.721 168.107 311.696 167.802C310.192 167.659 308.684 167.439 307.159 167.147C305.631 166.864 304.093 166.491 302.53 165.985C300.967 165.478 299.362 164.878 297.736 163.972C296.116 163.066 294.405 161.909 292.822 160.053C292.039 159.122 291.324 157.98 290.795 156.681C290.658 156.361 290.551 156.017 290.439 155.682L290.297 155.164L290.185 154.707L289.946 153.613C289.613 152.149 289.325 150.695 289.06 149.246C288.006 143.438 287.375 137.693 286.899 131.944C286.7 129.071 286.492 126.202 286.412 123.33C286.321 120.442 286.223 117.624 286.273 114.652L299.982 114.627Z" fill="#FF8B7B"/>
<path d="M283.114 115.308C281.852 125.358 284.167 140.198 284.167 140.198C284.167 140.198 291.178 141.191 296.622 139.765C302.066 138.339 303.221 137.251 303.221 137.251C303.221 137.251 305.444 127.092 303.378 116.318C301.192 104.969 292.073 100.662 285.765 107.593C284.346 109.158 283.533 111.969 283.114 115.308Z" fill="#407BFF"/>
<path opacity="0.2" d="M284.15 120.162C283.627 121.765 283.178 123.517 282.793 125.333C283.06 133.057 284.171 140.193 284.171 140.193C284.171 140.193 290.485 141.091 295.773 139.969C295.933 138.057 296.029 136.016 296.019 133.901C296.02 124.286 290.368 118.56 284.15 120.162Z" fill="black"/>
<path d="M318.177 160.776L325.114 160.316L324.768 169.1C324.768 169.1 320.434 169.941 316.169 166.402L318.177 160.776Z" fill="#FF8B7B"/>
<path d="M332.168 164.378L330.882 168.014C330.527 169.017 329.527 169.643 328.469 169.522L324.768 169.1L325.114 160.316L330.458 161.375C331.824 161.646 332.632 163.065 332.168 164.378Z" fill="#FF8B7B"/>
<path d="M323.122 169.935L320.875 168.683C320.306 168.366 320.099 167.641 320.417 167.071L325.43 158.074C325.747 157.505 326.472 157.299 327.042 157.616L329.289 158.868C329.858 159.185 330.064 159.91 329.747 160.48L324.734 169.477C324.416 170.046 323.691 170.252 323.122 169.935Z" fill="#263238"/>
<path d="M322.404 173.412L318.296 171.123C317.988 170.951 317.877 170.562 318.049 170.254L320.055 166.654C320.227 166.346 320.615 166.235 320.923 166.407L325.031 168.696C325.339 168.868 325.45 169.257 325.278 169.565L323.272 173.165C323.101 173.473 322.712 173.584 322.404 173.412Z" fill="#263238"/>
<path d="M334.76 161.018C332.335 161.018 329.893 160.424 327.647 159.172C320.408 155.139 317.908 145.775 322.074 138.297C326.238 130.82 335.516 128.017 342.758 132.053C349.997 136.086 352.497 145.451 348.331 152.928C345.457 158.085 340.151 161.018 334.76 161.018ZM335.639 132.338C330.997 132.338 326.419 134.876 323.935 139.334C320.341 145.785 322.472 153.849 328.684 157.311C334.897 160.768 342.874 158.34 346.469 151.891C350.062 145.441 347.932 137.376 341.72 133.914C339.801 132.846 337.713 132.338 335.639 132.338Z" fill="#263238"/>
<path d="M281.434 180.287C281.434 180.287 285.971 230.326 284.654 257.638C283.284 286.046 263.16 341.956 263.16 341.956L247.153 341.616C247.153 341.616 258.122 279.993 257.847 251.767C257.547 220.996 254.718 174.902 254.718 174.902L281.434 180.287Z" fill="#263238"/>
<path opacity="0.2" d="M260.516 187.93C258.694 185.77 257.055 187.833 255.671 191.838C256.237 202.619 256.929 217.177 257.38 231.289C265.193 219.414 266.409 194.922 260.516 187.93Z" fill="black"/>
<path d="M245.186 342.336L264.009 342.712L266.024 336.459L246.368 336.414L245.186 342.336Z" fill="#407BFF"/>
<path opacity="0.4" d="M245.186 342.336L264.009 342.712L266.024 336.459L246.368 336.414L245.186 342.336Z" fill="white"/>
<path d="M180.068 322.119L186.772 327.919L201.897 313.86L195.193 308.059L180.068 322.119Z" fill="#FF8B7B"/>
<path d="M187.359 328.202L182.304 319.946C182.115 319.637 181.728 319.487 181.373 319.584L173.467 321.761C172.647 321.987 172.284 322.876 172.734 323.583C174.61 326.534 177.426 330.742 179.718 334.485C182.398 338.862 182.385 338.788 185.527 343.922C187.427 347.026 191.219 346.173 190.72 344.719C188.445 338.098 187.712 337.177 187.862 330.345C187.877 329.603 187.758 328.854 187.359 328.202Z" fill="#263238"/>
<path opacity="0.2" d="M201.892 313.863L194.097 321.112L187.39 315.308L195.185 308.061L201.892 313.863Z" fill="black"/>
<path d="M187.955 332.145C187.427 331.299 187.008 330.284 186.742 329.556C186.711 329.472 186.737 329.377 186.807 329.321C186.877 329.264 186.974 329.258 187.05 329.306C187.448 329.554 190.936 331.767 190.936 332.966C190.936 333.196 190.825 333.387 190.615 333.519C190.26 333.741 189.887 333.787 189.507 333.656C188.929 333.458 188.403 332.862 187.955 332.145ZM187.366 330.01C188.096 331.816 188.93 333.015 189.644 333.26C189.902 333.349 190.147 333.317 190.393 333.163C190.502 333.095 190.517 333.025 190.517 332.967C190.516 332.323 188.759 330.938 187.366 330.01Z" fill="#407BFF"/>
<path d="M186.761 329.594C186.736 329.555 186.725 329.508 186.73 329.46C186.738 329.384 186.788 329.319 186.859 329.29C187.011 329.227 190.598 327.777 191.516 329.692C191.758 330.197 191.603 330.479 191.43 330.627C190.663 331.279 187.831 330.363 186.818 329.655C186.796 329.639 186.776 329.618 186.761 329.594ZM191.074 329.757C190.401 328.68 188.307 329.237 187.421 329.533C188.601 330.174 190.7 330.696 191.159 330.307C191.192 330.279 191.292 330.193 191.138 329.874C191.119 329.833 191.097 329.794 191.074 329.757Z" fill="#407BFF"/>
<path d="M265.206 177.016C265.206 177.016 256.778 223.861 250.743 250.53C244.466 278.27 200.896 320.13 200.896 320.13L188.92 309.504C188.92 309.504 220.736 267.944 225.361 240.098C230.403 209.741 234.954 170.918 234.954 170.918L265.206 177.016Z" fill="#263238"/>
<path d="M186.516 309.54L200.195 321.794L204.842 317.884L190.41 304.014L186.516 309.54Z" fill="#407BFF"/>
<path opacity="0.4" d="M186.516 309.54L200.195 321.794L204.842 317.884L190.41 304.014L186.516 309.54Z" fill="white"/>
<path d="M296.06 105.073C296.06 105.073 301.027 133.382 281.434 180.287C267.429 177.464 241.769 172.292 234.954 170.918C236.072 163.718 247.571 129.817 247.466 94.8105C247.466 94.8105 255.755 94.8175 263.421 95.9825C269.418 96.8935 278.054 98.4376 283.179 99.9666C289.936 101.983 296.06 105.073 296.06 105.073Z" fill="#407BFF"/>
<path opacity="0.2" d="M287.545 133.399C286.921 142.56 280.787 149.705 273.964 149.245C271.776 149.095 269.678 148.172 267.894 146.585L269.83 142.807C271.134 143.972 272.672 144.644 274.271 144.754C279.256 145.094 283.746 139.869 284.198 133.168L287.545 133.399Z" fill="#263238"/>
<path opacity="0.5" d="M287.545 133.399L284.198 133.169C284.316 131.391 284.145 129.613 283.691 127.956C283.237 126.299 282.524 124.812 281.576 123.607L283.965 120.311C285.255 121.968 286.235 124.007 286.859 126.267C287.474 128.528 287.708 130.958 287.545 133.399Z" fill="white"/>
<path opacity="0.4" d="M283.966 120.311L281.577 123.607C280.83 122.633 279.954 121.85 278.99 121.298C278.026 120.746 276.984 120.425 275.925 120.345L276.232 115.855C277.681 115.955 279.097 116.396 280.421 117.159C281.742 117.911 282.942 118.986 283.966 120.311Z" fill="#263238"/>
<path opacity="0.2" d="M276.23 115.855L275.923 120.345C270.928 120.006 266.448 125.231 265.995 131.931C265.701 136.281 267.159 140.439 269.829 142.808L267.893 146.586C264.242 143.343 262.238 137.658 262.648 131.701C263.274 122.54 269.397 115.396 276.23 115.855Z" fill="white"/>
<path opacity="0.2" d="M246.055 117.768C245.631 121.29 245.134 124.737 244.588 128.078C248.471 126.277 253.769 116.751 253.203 111.5L246.055 117.768Z" fill="black"/>
<path d="M269.864 74.1289C269.829 80.7379 268.725 92.6359 263.422 95.9819C263.422 95.9819 265.206 103.333 278.888 108.333C285.597 105.365 283.18 99.9659 283.18 99.9659C276.432 96.8439 277.675 91.6209 279.906 86.9309L269.864 74.1289Z" fill="#FF8B7B"/>
<path opacity="0.2" d="M273.957 79.3535L279.901 86.9255C279.369 88.0345 278.9 89.1735 278.585 90.3095C275.956 89.3725 272.835 85.6495 273.119 82.7555C273.26 81.3125 273.594 79.9655 273.957 79.3535Z" fill="black"/>
<path d="M289.432 72.2073C290.666 69.1953 290.851 65.7723 288.452 63.4833C288.596 61.5253 290.079 59.2083 292.126 57.4203C295.063 55.7913 300.964 67.1363 289.432 72.2073Z" fill="#263238"/>
<path d="M292.898 62.4997C292.361 62.4997 291.917 62.0727 291.9 61.5317C291.881 60.9807 292.312 60.5197 292.862 60.5007C293.055 60.4917 297.62 60.2387 299.091 54.9007C299.238 54.3677 299.787 54.0547 300.32 54.2027C300.852 54.3487 301.165 54.8997 301.018 55.4317C299.521 60.8647 295.073 62.4297 292.93 62.4977C292.921 62.4997 292.909 62.4997 292.898 62.4997Z" fill="#263238"/>
<path d="M271.036 64.41C269.829 73.125 268.68 78.164 272.137 83.459C277.337 91.423 288.757 89.623 292.543 81.444C295.951 74.082 297.352 61.068 289.616 55.943C281.996 50.895 272.243 55.695 271.036 64.41Z" fill="#FF8B7B"/>
<path d="M270.75 72.1256C272.007 72.1756 272.988 72.3176 273.744 72.4906C274.804 72.7326 275.794 71.8646 275.712 70.7806C275.551 68.6536 276.126 66.4816 278.084 65.5386C278.39 64.2886 277.932 62.5446 277.017 61.0156C276.549 60.2346 277.333 59.3076 278.181 59.6376C282.518 61.3216 289.066 63.9656 292.36 62.2506C296.626 60.0306 301.523 52.1066 295.065 51.5646C291.982 51.3056 292.333 49.5426 290 47.9586C287.667 46.3756 282.028 46.5656 277.667 48.7086C273.427 50.7916 266.709 46.8756 264.125 50.0416C262.239 52.3536 263.422 55.6246 263.422 55.6246C263.422 55.6246 259.709 56.1246 259.08 63.1326C258.61 68.3656 267.015 78.2866 269.633 79.3516C271.125 73.9176 270.75 72.1256 270.75 72.1256Z" fill="#263238"/>
<path d="M264.634 58.1044C264.22 58.1044 263.833 57.8454 263.69 57.4324C263.534 56.9964 262.618 54.8724 259.868 55.8214C259.346 56.0034 258.775 55.7224 258.598 55.2014C258.418 54.6784 258.696 54.1094 259.218 53.9304C260.681 53.4254 262.007 53.4584 263.158 54.0234C264.92 54.8874 265.555 56.7054 265.581 56.7824C265.76 57.3054 265.479 57.8734 264.957 58.0504C264.85 58.0874 264.74 58.1044 264.634 58.1044Z" fill="#263238"/>
<path d="M283.608 69.449C283.467 70.15 283.724 70.793 284.182 70.885C284.64 70.977 285.126 70.484 285.267 69.783C285.408 69.082 285.151 68.439 284.693 68.347C284.235 68.255 283.749 68.748 283.608 69.449Z" fill="#263238"/>
<path d="M291.53 71.0447C291.389 71.7457 291.646 72.3887 292.104 72.4807C292.562 72.5727 293.048 72.0797 293.189 71.3787C293.33 70.6777 293.073 70.0347 292.615 69.9427C292.158 69.8507 291.672 70.3437 291.53 71.0447Z" fill="#263238"/>
<path d="M288.941 70.8867C288.941 70.8867 289.72 75.2517 291.081 77.5567C289.608 78.4637 287.606 77.5097 287.606 77.5097L288.941 70.8867Z" fill="#FF5652"/>
<path d="M285.179 79.0353L285.175 79.0343C281.877 78.3693 280.822 75.8043 280.778 75.6953C280.735 75.5873 280.788 75.4663 280.895 75.4233C281.003 75.3803 281.125 75.4323 281.168 75.5403C281.178 75.5653 282.19 78.0053 285.258 78.6233C285.372 78.6463 285.445 78.7573 285.422 78.8703C285.399 78.9823 285.291 79.0553 285.179 79.0353Z" fill="#263238"/>
<path d="M285.425 65.4289C285.499 65.4829 285.555 65.5609 285.581 65.6559C285.643 65.8799 285.511 66.1109 285.288 66.1729C283.049 66.7899 281.581 65.5219 281.52 65.4679C281.346 65.3139 281.33 65.0489 281.484 64.8749C281.637 64.7019 281.904 64.6879 282.075 64.8369C282.123 64.8789 283.278 65.8549 285.064 65.3629C285.194 65.3269 285.325 65.3559 285.425 65.4289Z" fill="#263238"/>
<path d="M295.996 67.3747C295.837 67.3767 295.684 67.2877 295.611 67.1347C294.808 65.4427 293.278 65.2167 293.263 65.2147C293.033 65.1837 292.872 64.9717 292.903 64.7427C292.934 64.5127 293.15 64.3517 293.375 64.3827C293.456 64.3937 295.374 64.6757 296.37 66.7747C296.469 66.9847 296.38 67.2347 296.171 67.3337C296.114 67.3607 296.055 67.3737 295.996 67.3747Z" fill="#263238"/>
<path d="M254.488 110.258C252.407 112.432 250.155 114.757 248.047 117.07C245.921 119.398 243.782 121.719 241.723 124.09C237.593 128.812 233.596 133.647 230.116 138.616L228.857 140.44C228.605 140.792 228.385 141.177 228.193 141.601C227.811 142.446 227.502 143.446 227.35 144.587C227.055 146.871 227.246 149.609 227.826 152.395C228.945 157.983 231.35 163.916 233.961 169.367L228.393 173.255C227.187 171.862 226.182 170.562 225.165 169.153C224.18 167.75 223.213 166.325 222.334 164.834C220.551 161.864 218.982 158.71 217.748 155.273C216.555 151.833 215.629 148.084 215.705 143.877C215.752 141.782 216.047 139.561 216.792 137.363C217.16 136.266 217.635 135.178 218.216 134.137L219.548 131.844C220.415 130.335 221.349 128.916 222.275 127.47C223.236 126.07 224.181 124.646 225.179 123.288C227.131 120.521 229.214 117.892 231.32 115.289C233.435 112.694 235.618 110.175 237.871 107.719C240.155 105.259 242.365 102.873 244.883 100.473L254.488 110.258Z" fill="#FF8B7B"/>
<path d="M247.466 94.811C238.996 95.118 226.392 118.487 226.392 118.487C228.054 122.523 235.295 128.814 239.149 129.842C239.149 129.842 249.224 123.432 254.703 113.947C260.444 104.007 256.538 94.482 247.466 94.811Z" fill="#407BFF"/>
<path d="M231.748 167.484L241.115 169.228L233.637 177.667C233.637 177.667 227.244 174.843 227.233 171.381L231.748 167.484Z" fill="#FF8B7B"/>
<path d="M243.781 178.102L241.874 180.06C240.517 181.453 238.318 181.567 236.824 180.323L233.638 177.669L241.116 169.23L244.112 173.296C245.192 174.762 245.052 176.796 243.781 178.102Z" fill="#FF8B7B"/>
<path d="M266.03 70.4539C265.97 72.8249 267.012 75.0029 268.378 76.3939C270.433 78.4859 272.916 76.9999 273.565 74.2989C274.149 71.8669 273.783 67.8479 271.134 66.7679C268.523 65.7039 266.098 67.7419 266.03 70.4539Z" fill="#FF8B7B"/>
<path d="M92.0299 315.888H76.7419C74.3899 315.888 72.4839 313.982 72.4839 311.63V284.733C72.4839 282.381 74.3899 280.475 76.7419 280.475H92.0299C94.3819 280.475 96.2879 282.381 96.2879 284.733V311.63C96.2869 313.982 94.3809 315.888 92.0299 315.888Z" fill="#407BFF"/>
<path d="M119.632 315.888H104.345C101.994 315.888 100.087 313.982 100.087 311.63V265.891C100.087 263.539 101.993 261.633 104.345 261.633H119.632C121.984 261.633 123.89 263.539 123.89 265.891V311.63C123.89 313.982 121.983 315.888 119.632 315.888Z" fill="#407BFF"/>
<path d="M147.234 315.889H131.947C129.595 315.889 127.689 313.983 127.689 311.631V274.067C127.689 271.716 129.595 269.809 131.947 269.809H147.234C149.586 269.809 151.492 271.715 151.492 274.067V311.631C151.492 313.983 149.586 315.889 147.234 315.889Z" fill="#407BFF"/>
<path d="M174.837 315.889H159.55C157.198 315.889 155.292 313.983 155.292 311.631V262.401C155.292 260.049 157.198 258.143 159.55 258.143H174.837C177.189 258.143 179.095 260.049 179.095 262.401V311.631C179.094 313.983 177.188 315.889 174.837 315.889Z" fill="#407BFF"/>
<path d="M202.439 315.889H187.152C184.801 315.889 182.894 313.983 182.894 311.631V250.067C182.894 247.716 184.8 245.809 187.152 245.809H202.439C204.791 245.809 206.697 247.715 206.697 250.067V311.631C206.697 313.983 204.79 315.889 202.439 315.889Z" fill="#407BFF"/>
<path d="M230.041 315.889H214.754C212.402 315.889 210.496 313.983 210.496 311.631V237.067C210.496 234.716 212.402 232.809 214.754 232.809H230.041C232.393 232.809 234.299 234.715 234.299 237.067V311.631C234.299 313.983 232.393 315.889 230.041 315.889Z" fill="#407BFF"/>
<path d="M257.644 315.888H242.357C240.006 315.888 238.099 313.982 238.099 311.63V256.733C238.099 254.381 240.005 252.475 242.357 252.475H257.644C259.995 252.475 261.902 254.381 261.902 256.733V311.63C261.901 313.982 259.995 315.888 257.644 315.888Z" fill="#407BFF"/>
<path d="M285.246 315.889H269.959C267.607 315.889 265.701 313.983 265.701 311.631V231.401C265.701 229.049 267.607 227.143 269.959 227.143H285.246C287.598 227.143 289.504 229.049 289.504 231.401V311.631C289.504 313.983 287.598 315.889 285.246 315.889Z" fill="#407BFF"/>
<path d="M312.848 315.888H297.561C295.209 315.888 293.303 313.982 293.303 311.63V223.733C293.303 221.381 295.209 219.475 297.561 219.475H312.848C315.199 219.475 317.106 221.381 317.106 223.733V311.63C317.106 313.982 315.2 315.888 312.848 315.888Z" fill="#407BFF"/>
<path d="M340.451 315.889H325.164C322.812 315.889 320.906 313.983 320.906 311.631V228.401C320.906 226.049 322.812 224.143 325.164 224.143H340.451C342.802 224.143 344.709 226.049 344.709 228.401V311.631C344.708 313.983 342.802 315.889 340.451 315.889Z" fill="#407BFF"/>
<path d="M368.053 315.887H352.766C350.415 315.887 348.508 313.981 348.508 311.629V201.113C348.508 198.761 350.414 196.855 352.766 196.855H368.053C370.405 196.855 372.311 198.761 372.311 201.113V311.629C372.311 313.981 370.405 315.887 368.053 315.887Z" fill="#407BFF"/>
<path d="M395.655 315.888H380.368C378.016 315.888 376.11 313.982 376.11 311.63V212.447C376.11 210.095 378.016 208.189 380.368 208.189H395.655C398.007 208.189 399.913 210.095 399.913 212.447V311.63C399.913 313.982 398.007 315.888 395.655 315.888Z" fill="#407BFF"/>
<path d="M423.258 315.888H407.97C405.618 315.888 403.712 313.982 403.712 311.63V184.836C403.712 182.484 405.618 180.578 407.97 180.578H423.257C425.609 180.578 427.515 182.484 427.515 184.836V311.63C427.515 313.982 425.609 315.888 423.258 315.888Z" fill="#407BFF"/>
<path d="M84.3857 296.246C84.2307 296.246 84.0787 296.175 83.9807 296.04C83.8177 295.817 83.8677 295.504 84.0907 295.342L85.3037 294.459C85.5277 294.296 85.8397 294.346 86.0027 294.569C86.1657 294.792 86.1157 295.105 85.8927 295.267L84.6797 296.15C84.5907 296.215 84.4877 296.246 84.3857 296.246Z" fill="#263238"/>
<path d="M89.6586 292.408C89.5046 292.408 89.3516 292.337 89.2536 292.202C89.0906 291.979 89.1406 291.667 89.3636 291.504L91.7996 289.731C92.0236 289.569 92.3356 289.618 92.4986 289.841C92.6616 290.064 92.6116 290.376 92.3886 290.539L89.9526 292.312C89.8636 292.377 89.7606 292.408 89.6586 292.408ZM96.1536 287.68C95.9986 287.68 95.8466 287.609 95.7486 287.474C95.5856 287.251 95.6356 286.938 95.8586 286.776L98.2946 285.004C98.5176 284.842 98.8306 284.891 98.9926 285.114C99.1546 285.337 99.1056 285.65 98.8826 285.812L96.4466 287.585C96.3586 287.648 96.2556 287.68 96.1536 287.68ZM102.649 282.952C102.495 282.952 102.342 282.881 102.244 282.746C102.081 282.523 102.131 282.211 102.354 282.048L104.79 280.275C105.013 280.114 105.326 280.161 105.489 280.385C105.652 280.608 105.602 280.92 105.379 281.083L102.943 282.856C102.854 282.921 102.752 282.952 102.649 282.952ZM109.145 278.224C108.991 278.224 108.838 278.153 108.74 278.018C108.577 277.795 108.627 277.483 108.85 277.32L111.286 275.547C111.51 275.386 111.822 275.433 111.985 275.657C112.148 275.88 112.098 276.192 111.875 276.355L109.439 278.128C109.35 278.192 109.247 278.224 109.145 278.224ZM115.64 273.495C115.485 273.495 115.333 273.424 115.235 273.289C115.072 273.066 115.122 272.753 115.345 272.591L117.781 270.819C118.003 270.657 118.317 270.706 118.479 270.929C118.642 271.152 118.592 271.465 118.369 271.627L115.933 273.399C115.845 273.464 115.742 273.495 115.64 273.495ZM122.135 268.768C121.981 268.768 121.828 268.697 121.73 268.562C121.567 268.339 121.617 268.027 121.84 267.864L124.276 266.091C124.499 265.929 124.812 265.978 124.975 266.201C125.138 266.424 125.088 266.736 124.865 266.899L122.429 268.672C122.34 268.736 122.237 268.768 122.135 268.768ZM128.63 264.039C128.476 264.039 128.323 263.968 128.225 263.833C128.062 263.61 128.112 263.298 128.335 263.135L130.771 261.362C130.994 261.2 131.307 261.249 131.47 261.472C131.633 261.695 131.583 262.007 131.36 262.17L128.924 263.943C128.835 264.008 128.732 264.039 128.63 264.039ZM135.126 259.31C134.971 259.31 134.819 259.239 134.721 259.104C134.558 258.881 134.608 258.568 134.831 258.406L137.267 256.633C137.491 256.47 137.803 256.52 137.966 256.743C138.129 256.966 138.079 257.279 137.856 257.441L135.42 259.214C135.331 259.279 135.227 259.31 135.126 259.31ZM141.621 254.582C141.466 254.582 141.314 254.511 141.216 254.376C141.053 254.153 141.103 253.84 141.326 253.678L143.762 251.906C143.986 251.743 144.299 251.793 144.461 252.016C144.624 252.239 144.574 252.552 144.351 252.714L141.915 254.486C141.826 254.551 141.723 254.582 141.621 254.582ZM148.116 249.854C147.962 249.854 147.809 249.783 147.711 249.648C147.548 249.425 147.598 249.113 147.821 248.95L150.257 247.177C150.48 247.015 150.793 247.064 150.956 247.287C151.119 247.51 151.069 247.822 150.846 247.985L148.41 249.758C148.321 249.823 148.218 249.854 148.116 249.854ZM154.611 245.126C154.456 245.126 154.304 245.055 154.206 244.92C154.043 244.697 154.093 244.385 154.316 244.222L156.752 242.449C156.975 242.287 157.288 242.336 157.451 242.559C157.614 242.782 157.564 243.095 157.341 243.257L154.905 245.03C154.816 245.095 154.713 245.126 154.611 245.126ZM161.107 240.397C160.952 240.397 160.8 240.326 160.702 240.191C160.539 239.968 160.589 239.655 160.812 239.493L163.248 237.721C163.472 237.559 163.785 237.608 163.947 237.831C164.11 238.054 164.06 238.367 163.837 238.529L161.401 240.301C161.312 240.366 161.209 240.397 161.107 240.397ZM167.602 235.67C167.448 235.67 167.295 235.599 167.197 235.464C167.034 235.241 167.084 234.929 167.307 234.766L169.743 232.993C169.966 232.832 170.278 232.879 170.442 233.103C170.605 233.326 170.555 233.638 170.332 233.801L167.896 235.574C167.807 235.639 167.704 235.67 167.602 235.67ZM174.097 230.941C173.943 230.941 173.79 230.87 173.692 230.735C173.529 230.512 173.579 230.199 173.802 230.037L176.238 228.264C176.462 228.102 176.773 228.151 176.937 228.374C177.1 228.597 177.05 228.909 176.827 229.072L174.391 230.845C174.302 230.91 174.199 230.941 174.097 230.941ZM180.593 226.213C180.438 226.213 180.286 226.142 180.188 226.007C180.025 225.784 180.075 225.471 180.298 225.309L182.734 223.537C182.958 223.375 183.271 223.424 183.433 223.647C183.596 223.87 183.546 224.183 183.323 224.345L180.887 226.117C180.798 226.182 180.695 226.213 180.593 226.213ZM187.088 221.485C186.934 221.485 186.781 221.414 186.683 221.279C186.52 221.056 186.57 220.744 186.793 220.581L189.229 218.808C189.453 218.646 189.764 218.695 189.928 218.918C190.091 219.141 190.041 219.453 189.818 219.616L187.382 221.389C187.293 221.454 187.19 221.485 187.088 221.485Z" fill="#263238"/>
<path d="M193.582 216.756C193.427 216.756 193.275 216.685 193.177 216.55C193.014 216.327 193.064 216.014 193.287 215.852L194.5 214.969C194.621 214.882 194.777 214.852 194.919 214.889L196.371 215.264C196.639 215.333 196.799 215.606 196.73 215.873C196.661 216.141 196.387 216.297 196.121 216.232L194.897 215.916L193.875 216.66C193.787 216.725 193.684 216.756 193.582 216.756Z" fill="#263238"/>
<path d="M305.163 244.358C305.133 244.358 305.105 244.355 305.08 244.349L302.238 243.616C301.97 243.547 301.81 243.274 301.879 243.007C301.948 242.74 302.219 242.578 302.488 242.648L305.249 243.361C305.421 243.366 305.589 243.447 305.675 243.598C305.812 243.838 305.763 244.123 305.523 244.26C305.433 244.311 305.283 244.358 305.163 244.358ZM297.495 242.376C297.454 242.376 297.412 242.371 297.37 242.36L294.45 241.606C294.182 241.537 294.022 241.264 294.091 240.997C294.16 240.73 294.431 240.568 294.7 240.638L297.62 241.392C297.888 241.461 298.048 241.734 297.979 242.001C297.921 242.227 297.718 242.376 297.495 242.376ZM309.637 241.825C309.464 241.825 309.295 241.735 309.203 241.574C309.065 241.334 309.148 241.028 309.388 240.891L312.005 239.391C312.244 239.253 312.55 239.335 312.688 239.576C312.826 239.816 312.743 240.122 312.503 240.259L309.886 241.759C309.807 241.804 309.722 241.825 309.637 241.825ZM289.707 240.366C289.666 240.366 289.624 240.361 289.582 240.35L286.661 239.596C286.393 239.527 286.233 239.254 286.302 238.987C286.371 238.72 286.64 238.559 286.911 238.628L289.832 239.382C290.1 239.451 290.26 239.724 290.191 239.991C290.133 240.217 289.93 240.366 289.707 240.366ZM281.919 238.356C281.878 238.356 281.836 238.351 281.794 238.34L278.873 237.586C278.606 237.517 278.445 237.244 278.514 236.977C278.583 236.709 278.852 236.55 279.123 236.618L282.044 237.372C282.312 237.441 282.472 237.714 282.403 237.981C282.345 238.207 282.142 238.356 281.919 238.356ZM316.615 237.825C316.442 237.825 316.273 237.735 316.181 237.574C316.043 237.334 316.126 237.028 316.366 236.891L318.983 235.391C319.223 235.254 319.528 235.334 319.666 235.576C319.804 235.816 319.721 236.122 319.481 236.259L316.864 237.759C316.785 237.804 316.7 237.825 316.615 237.825ZM274.131 236.346C274.09 236.346 274.048 236.341 274.006 236.33L271.085 235.577C270.817 235.508 270.657 235.235 270.726 234.968C270.795 234.7 271.065 234.542 271.335 234.609L274.256 235.362C274.524 235.431 274.684 235.704 274.615 235.971C274.557 236.196 274.353 236.346 274.131 236.346ZM266.342 234.336C266.301 234.336 266.259 234.331 266.217 234.32L263.297 233.567C263.029 233.498 262.869 233.225 262.938 232.958C263.007 232.69 263.277 232.526 263.547 232.599L266.467 233.352C266.735 233.421 266.895 233.694 266.826 233.961C266.768 234.186 266.565 234.336 266.342 234.336ZM323.594 233.825C323.421 233.825 323.252 233.735 323.16 233.574C323.022 233.334 323.105 233.028 323.345 232.891L325.962 231.391C326.2 231.253 326.508 231.334 326.645 231.576C326.783 231.816 326.7 232.122 326.46 232.259L323.843 233.759C323.764 233.804 323.679 233.825 323.594 233.825ZM258.554 232.326C258.513 232.326 258.471 232.321 258.429 232.31L255.509 231.557C255.241 231.488 255.081 231.215 255.15 230.948C255.219 230.68 255.489 230.517 255.759 230.589L258.679 231.342C258.947 231.411 259.107 231.684 259.038 231.951C258.979 232.177 258.776 232.326 258.554 232.326ZM250.766 230.316C250.724 230.316 250.683 230.311 250.64 230.3L247.72 229.546C247.452 229.477 247.292 229.204 247.361 228.937C247.43 228.668 247.701 228.506 247.97 228.578L250.89 229.332C251.158 229.401 251.318 229.674 251.249 229.941C251.191 230.167 250.988 230.316 250.766 230.316ZM330.572 229.825C330.399 229.825 330.23 229.735 330.138 229.574C330 229.334 330.083 229.028 330.323 228.891L332.94 227.391C333.179 227.253 333.486 227.334 333.623 227.576C333.761 227.816 333.678 228.122 333.439 228.259L330.822 229.759C330.742 229.804 330.657 229.825 330.572 229.825ZM242.978 228.307C242.936 228.307 242.895 228.302 242.852 228.291L239.931 227.537C239.664 227.468 239.503 227.195 239.572 226.928C239.641 226.66 239.912 226.496 240.181 226.569L243.102 227.323C243.37 227.392 243.53 227.665 243.461 227.932C243.403 228.157 243.2 228.307 242.978 228.307ZM235.189 226.297C235.147 226.297 235.106 226.292 235.063 226.281L232.143 225.527C231.875 225.458 231.715 225.185 231.784 224.918C231.853 224.649 232.126 224.492 232.393 224.559L235.313 225.313C235.581 225.382 235.741 225.655 235.672 225.922C235.615 226.147 235.412 226.297 235.189 226.297ZM337.551 225.825C337.378 225.825 337.209 225.735 337.117 225.574C336.979 225.334 337.062 225.028 337.302 224.891L339.918 223.391C340.158 223.254 340.463 223.334 340.601 223.576C340.739 223.816 340.656 224.122 340.416 224.259L337.8 225.759C337.721 225.804 337.636 225.825 337.551 225.825ZM227.401 224.287C227.359 224.287 227.318 224.282 227.275 224.271L224.354 223.517C224.087 223.448 223.926 223.175 223.995 222.908C224.064 222.639 224.337 222.482 224.604 222.549L227.525 223.303C227.793 223.372 227.953 223.645 227.884 223.912C227.827 224.138 227.624 224.287 227.401 224.287ZM219.613 222.277C219.572 222.277 219.53 222.272 219.488 222.261L216.568 221.507C216.3 221.438 216.14 221.165 216.209 220.898C216.278 220.63 216.55 220.471 216.818 220.539L219.738 221.293C220.006 221.362 220.166 221.635 220.097 221.902C220.038 222.128 219.835 222.277 219.613 222.277ZM344.529 221.825C344.356 221.825 344.187 221.735 344.095 221.574C343.957 221.334 344.04 221.028 344.28 220.891L346.896 219.391C347.134 219.253 347.441 219.335 347.579 219.576C347.717 219.816 347.634 220.122 347.394 220.259L344.778 221.759C344.699 221.804 344.614 221.825 344.529 221.825ZM211.825 220.268C211.783 220.268 211.741 220.263 211.699 220.252L208.778 219.498C208.511 219.429 208.35 219.156 208.419 218.889C208.489 218.621 208.763 218.463 209.028 218.53L211.949 219.284C212.216 219.353 212.377 219.626 212.308 219.893C212.25 220.118 212.047 220.268 211.825 220.268ZM204.036 218.258C203.994 218.258 203.953 218.253 203.91 218.242L200.99 217.488C200.722 217.419 200.562 217.146 200.631 216.879C200.7 216.611 200.973 216.452 201.24 216.52L204.16 217.274C204.428 217.343 204.588 217.616 204.519 217.883C204.461 218.108 204.258 218.258 204.036 218.258ZM351.507 217.825C351.334 217.825 351.165 217.735 351.073 217.574C350.935 217.334 351.018 217.028 351.258 216.891L353.875 215.391C354.114 215.254 354.42 215.334 354.558 215.576C354.696 215.816 354.613 216.122 354.373 216.259L351.756 217.759C351.677 217.804 351.592 217.825 351.507 217.825ZM358.485 213.825C358.312 213.825 358.143 213.735 358.051 213.574C357.913 213.334 357.996 213.028 358.236 212.891L360.853 211.391C361.092 211.254 361.398 211.335 361.536 211.576C361.674 211.816 361.591 212.122 361.351 212.259L358.734 213.759C358.655 213.804 358.57 213.825 358.485 213.825ZM365.464 209.825C365.291 209.825 365.122 209.735 365.03 209.574C364.892 209.334 364.975 209.028 365.215 208.891L367.832 207.391C368.071 207.253 368.378 207.334 368.515 207.576C368.653 207.816 368.57 208.122 368.331 208.259L365.714 209.759C365.634 209.804 365.549 209.825 365.464 209.825ZM372.442 205.825C372.269 205.825 372.1 205.735 372.008 205.574C371.87 205.334 371.953 205.028 372.193 204.891L374.81 203.391C375.049 203.254 375.355 203.334 375.493 203.576C375.631 203.816 375.548 204.122 375.308 204.259L372.691 205.759C372.612 205.804 372.527 205.825 372.442 205.825ZM379.421 201.825C379.248 201.825 379.079 201.735 378.987 201.574C378.849 201.334 378.932 201.028 379.172 200.891L381.788 199.391C382.027 199.253 382.334 199.335 382.471 199.576C382.609 199.816 382.526 200.122 382.286 200.259L379.67 201.759C379.591 201.804 379.506 201.825 379.421 201.825ZM386.399 197.825C386.226 197.825 386.057 197.735 385.965 197.574C385.827 197.334 385.91 197.028 386.15 196.891L388.766 195.391C389.005 195.253 389.312 195.335 389.449 195.576C389.587 195.816 389.504 196.122 389.264 196.259L386.648 197.759C386.569 197.804 386.484 197.825 386.399 197.825ZM393.377 193.825C393.204 193.825 393.035 193.735 392.943 193.574C392.805 193.334 392.888 193.028 393.128 192.891L395.745 191.391C395.984 191.254 396.29 191.334 396.428 191.576C396.566 191.816 396.483 192.122 396.243 192.259L393.626 193.759C393.547 193.804 393.462 193.825 393.377 193.825ZM400.355 189.825C400.182 189.825 400.013 189.735 399.921 189.574C399.783 189.334 399.866 189.028 400.106 188.891L402.723 187.391C402.963 187.253 403.268 187.334 403.406 187.576C403.544 187.816 403.461 188.122 403.222 188.259L400.605 189.759C400.525 189.804 400.44 189.825 400.355 189.825ZM407.334 185.825C407.161 185.825 406.992 185.735 406.9 185.574C406.762 185.334 406.845 185.028 407.085 184.891L409.702 183.391C409.942 183.253 410.247 183.334 410.385 183.576C410.523 183.816 410.44 184.122 410.2 184.259L407.583 185.759C407.504 185.804 407.419 185.825 407.334 185.825Z" fill="#263238"/>
<path d="M414.313 181.825C414.14 181.825 413.971 181.735 413.879 181.574C413.741 181.334 413.824 181.028 414.064 180.891L415.366 180.145C415.606 180.008 415.911 180.088 416.049 180.33C416.187 180.57 416.104 180.876 415.864 181.013L414.562 181.759C414.482 181.804 414.397 181.825 414.313 181.825Z" fill="#263238"/>
<path d="M88.4887 295.746C88.4887 298.012 86.6517 299.849 84.3857 299.849C82.1197 299.849 80.2827 298.012 80.2827 295.746C80.2827 293.48 82.1197 291.643 84.3857 291.643C86.6517 291.643 88.4887 293.48 88.4887 295.746Z" fill="white"/>
<path d="M84.3857 300.349C81.8477 300.349 79.7837 298.285 79.7837 295.746C79.7837 293.208 81.8477 291.143 84.3857 291.143C86.9237 291.143 88.9887 293.208 88.9887 295.746C88.9887 298.284 86.9237 300.349 84.3857 300.349ZM84.3857 292.143C82.3997 292.143 80.7837 293.759 80.7837 295.746C80.7837 297.732 82.3997 299.349 84.3857 299.349C86.3727 299.349 87.9887 297.733 87.9887 295.746C87.9887 293.759 86.3727 292.143 84.3857 292.143Z" fill="#263238"/>
<path d="M194.795 219.477C197.061 219.477 198.898 217.641 198.898 215.374C198.898 213.108 197.061 211.271 194.795 211.271C192.529 211.271 190.692 213.108 190.692 215.374C190.692 217.641 192.529 219.477 194.795 219.477Z" fill="white"/>
<path d="M194.795 219.977C192.257 219.977 190.192 217.913 190.192 215.374C190.192 212.836 192.257 210.771 194.795 210.771C197.333 210.771 199.398 212.836 199.398 215.374C199.398 217.912 197.333 219.977 194.795 219.977ZM194.795 211.771C192.808 211.771 191.192 213.387 191.192 215.374C191.192 217.36 192.808 218.977 194.795 218.977C196.781 218.977 198.398 217.361 198.398 215.374C198.398 213.387 196.782 211.771 194.795 211.771Z" fill="#263238"/>
<path d="M305.205 247.968C307.471 247.968 309.308 246.131 309.308 243.865C309.308 241.599 307.471 239.762 305.205 239.762C302.939 239.762 301.102 241.599 301.102 243.865C301.102 246.131 302.939 247.968 305.205 247.968Z" fill="white"/>
<path d="M305.205 248.468C302.667 248.468 300.601 246.403 300.601 243.865C300.601 241.327 302.666 239.262 305.205 239.262C307.743 239.262 309.807 241.326 309.807 243.865C309.808 246.403 307.743 248.468 305.205 248.468ZM305.205 240.263C303.218 240.263 301.601 241.879 301.601 243.866C301.601 245.852 303.217 247.469 305.205 247.469C307.191 247.469 308.807 245.853 308.807 243.866C308.808 241.879 307.191 240.263 305.205 240.263Z" fill="#263238"/>
<path d="M415.614 184.681C417.88 184.681 419.717 182.844 419.717 180.578C419.717 178.312 417.88 176.475 415.614 176.475C413.348 176.475 411.511 178.312 411.511 180.578C411.511 182.844 413.348 184.681 415.614 184.681Z" fill="white"/>
<path d="M415.614 185.182C413.076 185.182 411.011 183.118 411.011 180.58C411.011 178.042 413.076 175.977 415.614 175.977C418.152 175.977 420.217 178.041 420.217 180.58C420.217 183.119 418.152 185.182 415.614 185.182ZM415.614 176.977C413.628 176.977 412.011 178.593 412.011 180.58C412.011 182.567 413.627 184.182 415.614 184.182C417.6 184.182 419.217 182.566 419.217 180.58C419.217 178.594 417.601 176.977 415.614 176.977Z" fill="#263238"/>
</svg>
