<svg width="500" height="400" viewBox="0 0 500 400" fill="none" xmlns="http://www.w3.org/2000/svg">
<g clip-path="url(#clip0_10603_50202)">
<path d="M500 332.396H0V332.646H500V332.396Z" fill="#EBEBEB"/>
<path d="M449.901 348.492H416.779V348.742H449.901V348.492Z" fill="#EBEBEB"/>
<path d="M331.22 351.207H322.527V351.457H331.22V351.207Z" fill="#EBEBEB"/>
<path d="M415.778 339.207H396.586V339.457H415.778V339.207Z" fill="#EBEBEB"/>
<path d="M95.652 340.887H52.459V341.137H95.652V340.887Z" fill="#EBEBEB"/>
<path d="M110.889 340.887H104.556V341.137H110.889V340.887Z" fill="#EBEBEB"/>
<path d="M225.147 345.109H131.471V345.359H225.147V345.109Z" fill="#EBEBEB"/>
<path d="M237.014 287.799H43.915C40.768 287.799 38.207 285.238 38.207 282.091V10.6592C38.207 7.51217 40.768 4.95117 43.915 4.95117H237.014C240.16 4.95117 242.721 7.51217 242.721 10.6592V282.091C242.721 285.238 240.16 287.799 237.014 287.799ZM43.915 5.20217C40.905 5.20217 38.457 7.65017 38.457 10.6602V282.092C38.457 285.102 40.905 287.55 43.915 287.55H237.014C240.023 287.55 242.471 285.102 242.471 282.092V10.6592C242.471 7.65017 240.023 5.20117 237.014 5.20117L43.915 5.20217Z" fill="#EBEBEB"/>
<path d="M453.31 287.799H260.212C257.065 287.799 254.505 285.238 254.505 282.091V10.6592C254.505 7.51217 257.066 4.95117 260.212 4.95117H453.31C456.458 4.95117 459.018 7.51217 459.018 10.6592V282.091C459.019 285.238 456.458 287.799 453.31 287.799ZM260.212 5.20217C257.203 5.20217 254.755 7.65017 254.755 10.6602V282.092C254.755 285.102 257.203 287.55 260.212 287.55H453.31C456.32 287.55 458.768 285.102 458.768 282.092V10.6592C458.768 7.65017 456.32 5.20117 453.31 5.20117L260.212 5.20217Z" fill="#EBEBEB"/>
<path d="M88.4653 332.396H117.882L117.882 225.927H88.4653L88.4653 332.396Z" fill="#E6E6E6"/>
<path d="M93.5629 332.397H88.4648V317.898H98.9068L93.5629 332.397Z" fill="#F0F0F0"/>
<path d="M282.451 332.396H311.868V225.927H282.451V332.396Z" fill="#E6E6E6"/>
<path d="M88.4654 323.5H286.899V225.928L88.4654 225.928V323.5Z" fill="#F0F0F0"/>
<path d="M92.4193 257.012H282.944V230.254L92.4193 230.254V257.012Z" fill="#E6E6E6"/>
<path d="M148.449 238.568H226.915C234.943 238.568 242.618 235.267 248.14 229.439H127.225C132.746 235.267 140.421 238.568 148.449 238.568Z" fill="#F0F0F0"/>
<path d="M281.802 332.397H286.899V317.898H276.457L281.802 332.397Z" fill="#F0F0F0"/>
<path d="M92.4193 288.094H282.944V261.336H92.4193V288.094Z" fill="#E6E6E6"/>
<path d="M148.449 269.65H226.915C234.943 269.65 242.618 266.349 248.14 260.521H127.225C132.746 266.349 140.421 269.65 148.449 269.65Z" fill="#F0F0F0"/>
<path d="M92.4193 319.176H282.944V292.418H92.4193V319.176Z" fill="#E6E6E6"/>
<path d="M148.449 300.733H226.915C234.943 300.733 242.618 297.432 248.14 291.604H127.225C132.746 297.432 140.421 300.733 148.449 300.733Z" fill="#F0F0F0"/>
<path d="M84.129 194.711H200.167L200.167 51.0029H84.129L84.129 194.711Z" fill="#E6E6E6"/>
<path d="M70.9288 194.711L196.802 194.711L196.802 51.0029L70.9288 51.0029L70.9288 194.711Z" fill="#F0F0F0"/>
<path d="M186.257 184.165L186.257 61.5469L81.4753 61.5469L81.4753 184.165H186.257Z" fill="white"/>
<path d="M279.1 191.127L436.336 191.127V49.417L279.1 49.417V191.127Z" fill="#EBEBEB"/>
<path d="M274.968 191.127L434.406 191.127V49.417L274.968 49.417V191.127Z" fill="#F5F5F5"/>
<path d="M291.248 198.805L436.336 198.805V191.126L291.248 191.126V198.805Z" fill="#EBEBEB"/>
<path d="M268.897 198.805L405.561 198.805V191.126L268.897 191.126V198.805Z" fill="#F0F0F0"/>
<path d="M428.621 185.341V55.2012L280.754 55.2012V185.341L428.621 185.341Z" fill="#FAFAFA"/>
<path d="M405.561 185.341L356.166 55.2012H332.849L382.243 185.341H405.561Z" fill="white"/>
<path d="M425.841 176.238C426.125 176.238 426.355 176.008 426.355 175.724V59.0667C426.355 58.7827 426.125 58.5527 425.841 58.5527C425.557 58.5527 425.327 58.7827 425.327 59.0667V175.723C425.327 176.007 425.557 176.238 425.841 176.238Z" fill="#F0F0F0"/>
<path d="M377.234 185.341L327.84 55.2012H318.749L368.144 185.341H377.234Z" fill="white"/>
<path d="M355.68 185.341L306.285 55.2012H297.195L346.589 185.341H355.68Z" fill="white"/>
<path d="M281.489 185.341V55.2012H280.754V185.341H281.489Z" fill="#EBEBEB"/>
<g opacity="0.7">
<path d="M273.6 60.4502H430.836L431.369 57.4512H274.133L273.6 60.4502Z" fill="#EBEBEB"/>
<path d="M273.6 63.6728H430.836L431.369 60.6738H274.133L273.6 63.6728Z" fill="#EBEBEB"/>
<path d="M273.6 66.8945H430.836L431.369 63.8945H274.133L273.6 66.8945Z" fill="#EBEBEB"/>
<path d="M273.6 70.1142H430.836L431.369 67.1152H274.133L273.6 70.1142Z" fill="#EBEBEB"/>
<path d="M273.6 73.3369H430.836L431.369 70.3379H274.133L273.6 73.3369Z" fill="#EBEBEB"/>
<path d="M273.6 76.5586H430.836L431.369 73.5586H274.133L273.6 76.5586Z" fill="#EBEBEB"/>
<path d="M273.6 79.7803H430.836L431.369 76.7812H274.133L273.6 79.7803Z" fill="#EBEBEB"/>
<path d="M273.6 83.0029H430.836L431.369 80.0039H274.133L273.6 83.0029Z" fill="#EBEBEB"/>
<path d="M273.6 86.2246H430.836L431.369 83.2246H274.133L273.6 86.2246Z" fill="#EBEBEB"/>
<path d="M273.6 89.4443H430.836L431.369 86.4453H274.133L273.6 89.4443Z" fill="#EBEBEB"/>
<path d="M273.6 92.667H430.836L431.369 89.668H274.133L273.6 92.667Z" fill="#EBEBEB"/>
<path d="M273.6 95.8896H430.836L431.369 92.8906H274.133L273.6 95.8896Z" fill="#EBEBEB"/>
<path d="M273.6 99.1113H430.836L431.369 96.1113H274.133L273.6 99.1113Z" fill="#EBEBEB"/>
<path d="M273.6 102.333H430.836L431.369 99.334H274.133L273.6 102.333Z" fill="#EBEBEB"/>
<path d="M273.6 105.554H430.836L431.369 102.555H274.133L273.6 105.554Z" fill="#EBEBEB"/>
<path d="M273.6 108.775H430.836L431.369 105.775H274.133L273.6 108.775Z" fill="#EBEBEB"/>
<path d="M273.6 111.997H430.836L431.369 108.998H274.133L273.6 111.997Z" fill="#EBEBEB"/>
<path d="M273.6 115.22H430.836L431.369 112.221H274.133L273.6 115.22Z" fill="#EBEBEB"/>
<path d="M273.6 118.441H430.836L431.369 115.441H274.133L273.6 118.441Z" fill="#EBEBEB"/>
<path d="M273.6 121.663H430.836L431.369 118.664H274.133L273.6 121.663Z" fill="#EBEBEB"/>
<path d="M273.6 124.884H430.836L431.369 121.885H274.133L273.6 124.884Z" fill="#EBEBEB"/>
<path d="M273.6 128.106H430.836L431.369 125.107H274.133L273.6 128.106Z" fill="#EBEBEB"/>
<path d="M273.6 131.327H430.836L431.369 128.328H274.133L273.6 131.327Z" fill="#EBEBEB"/>
<path d="M273.6 134.55H430.836L431.369 131.551H274.133L273.6 134.55Z" fill="#EBEBEB"/>
</g>
<path d="M245.714 210.334C245.714 218.948 234.394 225.93 220.43 225.93C206.466 225.93 195.146 218.947 195.146 210.334H245.714Z" fill="#EBEBEB"/>
<path d="M179.27 210.334C179.27 218.948 167.95 225.93 153.986 225.93C140.022 225.93 128.702 218.947 128.702 210.334H179.27Z" fill="#EBEBEB"/>
<path d="M370.595 326.557H388.699V234.368H370.595V326.557Z" fill="#F0F0F0"/>
<path d="M295.943 332.398H385.223V326.557H295.943V332.398Z" fill="#F0F0F0"/>
<path d="M370.595 234.367H292.466V326.556H370.595V234.367Z" fill="#F5F5F5"/>
<path d="M363.477 245.715H299.584V275.95H363.477V245.715Z" fill="#F0F0F0"/>
<path d="M363.477 284.975H299.584V315.21H363.477V284.975Z" fill="#F0F0F0"/>
<path d="M324.248 262.906H338.813C339.724 262.906 340.469 262.161 340.469 261.25V260.416C340.469 259.505 339.724 258.76 338.813 258.76H324.248C323.337 258.76 322.592 259.505 322.592 260.416V261.25C322.592 262.16 323.338 262.906 324.248 262.906Z" fill="#F5F5F5"/>
<path d="M324.248 302.164H338.813C339.724 302.164 340.469 301.419 340.469 300.508V299.674C340.469 298.763 339.724 298.018 338.813 298.018H324.248C323.337 298.018 322.592 298.763 322.592 299.674V300.508C322.592 301.419 323.338 302.164 324.248 302.164Z" fill="#F5F5F5"/>
<path d="M250 377.56C357.082 377.56 443.889 372.491 443.889 366.237C443.889 359.984 357.082 354.914 250 354.914C142.918 354.914 56.1108 359.984 56.1108 366.237C56.1108 372.491 142.918 377.56 250 377.56Z" fill="#F5F5F5"/>
<path d="M88.5742 126.918H87.5742V146.117H88.5742V126.918Z" fill="#407BFF"/>
<path d="M88.5742 153.365H87.5742V162.181H88.5742V153.365Z" fill="#407BFF"/>
<path d="M101.297 79.3105H361.288C367.106 79.3105 371.867 84.0705 371.867 89.8895V252.833C371.867 258.651 367.107 263.412 361.288 263.412H101.297C95.4793 263.412 90.7183 258.652 90.7183 252.833V89.8885C90.7183 84.0705 95.4793 79.3105 101.297 79.3105Z" fill="#407BFF"/>
<path d="M101.297 259.884C97.4081 259.884 94.2441 256.72 94.2441 252.831V89.8889C94.2441 85.9999 97.4081 82.8359 101.297 82.8359H361.288C365.177 82.8359 368.34 85.9999 368.34 89.8889V252.832C368.34 256.721 365.176 259.885 361.288 259.885L101.297 259.884Z" fill="white"/>
<path opacity="0.6" d="M199.556 231.418V259.884H263.029V231.418C263.029 225.909 258.563 221.443 253.054 221.443H209.531C204.022 221.443 199.556 225.909 199.556 231.418Z" fill="#407BFF"/>
<path opacity="0.6" d="M279.779 231.418V259.884H343.252V231.418C343.252 225.909 338.786 221.443 333.277 221.443H289.754C284.245 221.443 279.779 225.909 279.779 231.418Z" fill="#407BFF"/>
<path opacity="0.6" d="M119.334 231.418V259.884H182.807V231.418C182.807 225.909 178.341 221.443 172.832 221.443H129.309C123.8 221.443 119.334 225.909 119.334 231.418Z" fill="#407BFF"/>
<path d="M322.29 100.668H340.705C342.106 100.668 343.252 99.5222 343.252 98.1212C343.252 96.7202 342.106 95.5742 340.705 95.5742H322.29C320.889 95.5742 319.743 96.7202 319.743 98.1212C319.743 99.5212 320.889 100.668 322.29 100.668Z" fill="#407BFF"/>
<path d="M259.613 102.137C261.831 102.137 263.629 100.339 263.629 98.1215C263.629 95.9035 261.831 94.1055 259.613 94.1055C257.395 94.1055 255.597 95.9035 255.597 98.1215C255.597 100.339 257.395 102.137 259.613 102.137Z" fill="#407BFF"/>
<path d="M251.134 98.1215C251.134 100.339 249.336 102.137 247.118 102.137C244.9 102.137 243.102 100.339 243.102 98.1215C243.102 95.9035 244.9 94.1055 247.118 94.1055C249.336 94.1055 251.134 95.9035 251.134 98.1215Z" fill="#407BFF"/>
<path d="M125.958 102.234H120.938C120.056 102.234 119.334 101.512 119.334 100.63V95.6098C119.334 94.7278 120.056 94.0059 120.938 94.0059H125.958C126.84 94.0059 127.562 94.7278 127.562 95.6098V100.63C127.562 101.512 126.84 102.234 125.958 102.234Z" fill="#407BFF"/>
<path opacity="0.2" d="M152.441 99.3936H142.842C142.142 99.3936 141.569 98.8207 141.569 98.1207C141.569 97.4207 142.142 96.8477 142.842 96.8477H152.441C153.141 96.8477 153.714 97.4207 153.714 98.1207C153.715 98.8207 153.142 99.3936 152.441 99.3936Z" fill="#263238"/>
<path opacity="0.2" d="M171.183 99.3936H161.584C160.884 99.3936 160.311 98.8207 160.311 98.1207C160.311 97.4207 160.884 96.8477 161.584 96.8477H171.183C171.883 96.8477 172.456 97.4207 172.456 98.1207C172.457 98.8207 171.884 99.3936 171.183 99.3936Z" fill="#263238"/>
<path opacity="0.2" d="M189.925 99.3936H180.326C179.626 99.3936 179.053 98.8207 179.053 98.1207C179.053 97.4207 179.626 96.8477 180.326 96.8477H189.925C190.625 96.8477 191.198 97.4207 191.198 98.1207C191.199 98.8207 190.626 99.3936 189.925 99.3936Z" fill="#263238"/>
<path opacity="0.2" d="M208.667 99.3936H199.068C198.368 99.3936 197.795 98.8207 197.795 98.1207C197.795 97.4207 198.368 96.8477 199.068 96.8477H208.667C209.367 96.8477 209.94 97.4207 209.94 98.1207C209.941 98.8207 209.368 99.3936 208.667 99.3936Z" fill="#263238"/>
<path opacity="0.4" d="M412.927 197.097L210.285 204.019C204.47 204.218 199.55 199.623 199.351 193.807L197.334 134.776C197.135 128.961 201.73 124.041 207.546 123.842L410.188 116.92C416.003 116.721 420.923 121.316 421.122 127.132L423.138 186.162C423.338 191.978 418.742 196.898 412.927 197.097Z" fill="#407BFF"/>
<path opacity="0.4" d="M285.614 166.495L222.421 168.654C219.029 168.77 216.159 166.089 216.043 162.697C215.927 159.305 218.608 156.435 222 156.319L285.194 154.16C288.586 154.044 291.456 156.725 291.572 160.117C291.687 163.509 289.006 166.38 285.614 166.495Z" fill="#407BFF"/>
<path opacity="0.4" d="M264.816 185.958L223.061 187.384C219.669 187.5 216.799 184.819 216.683 181.427C216.567 178.035 219.248 175.165 222.64 175.049L264.395 173.623C267.787 173.507 270.657 176.188 270.773 179.58C270.888 182.972 268.208 185.842 264.816 185.958Z" fill="#407BFF"/>
<path d="M416.804 162.559L418.608 168.168L425.252 162.094C425.252 162.094 423.639 160.967 420.969 159.577C419.854 158.996 418.479 159.41 417.889 160.52L416.804 162.559Z" fill="#7F3E3B"/>
<path d="M425.197 172.787L428.064 166.107L425.252 162.094L418.608 168.168L425.197 172.787Z" fill="#7F3E3B"/>
<path d="M353.389 121.34C349.975 125.931 346.445 130.245 342.68 134.49C338.914 138.719 334.984 142.826 330.582 146.697L330.337 146.913L329.86 147.303C329.54 147.557 329.179 147.778 328.824 147.987C328.1 148.382 327.327 148.685 326.592 148.851C325.094 149.21 323.801 149.137 322.688 148.97C320.471 148.599 318.856 147.851 317.361 147.089C314.416 145.534 312.075 143.672 309.818 141.779C305.366 137.927 301.558 133.77 297.996 129.234L301.997 125.437C306.161 128.836 310.523 132.212 314.881 135.084C317.046 136.516 319.303 137.803 321.359 138.646C322.364 139.057 323.371 139.317 323.907 139.307C324.163 139.304 324.283 139.253 324.128 139.251C324.068 139.259 323.934 139.277 323.817 139.343C323.751 139.362 323.693 139.41 323.636 139.439C323.608 139.454 323.581 139.473 323.558 139.495L323.691 139.355C325.517 137.492 327.293 135.496 329.071 133.493C330.832 131.467 332.571 129.393 334.303 127.31C337.736 123.132 341.185 118.835 344.505 114.627L353.389 121.34Z" fill="#7F3E3B"/>
<path d="M298.208 116.719L290.42 118.313L294.251 125.129L301.177 119.762L298.208 116.719Z" fill="#7F3E3B"/>
<path d="M302.164 126.866L301.177 119.762L294.251 125.129C294.251 125.129 295.32 131.311 300.224 131.311L302.164 126.866Z" fill="#7F3E3B"/>
<path d="M302.685 125.443C302.271 125.443 301.935 125.779 301.935 126.193C301.935 126.251 301.956 126.303 301.968 126.358C301.869 126.309 301.761 126.277 301.643 126.277C301.229 126.277 300.893 126.613 300.893 127.027C300.893 127.104 300.915 127.174 300.937 127.244C300.921 127.243 300.909 127.235 300.893 127.235C300.479 127.235 300.143 127.571 300.143 127.985C300.143 128.153 300.208 128.3 300.302 128.425C300.298 128.425 300.294 128.422 300.289 128.422C299.874 128.422 299.539 128.758 299.539 129.172C299.539 129.343 299.606 129.493 299.702 129.619C299.362 129.69 299.101 129.978 299.101 130.339C299.101 130.583 299.225 130.79 299.406 130.927C299.12 131.033 298.913 131.302 298.913 131.625C298.913 132.039 299.248 132.375 299.663 132.375C300.077 132.375 300.413 132.039 300.413 131.625C300.413 131.381 300.288 131.174 300.108 131.037C300.394 130.931 300.601 130.662 300.601 130.339C300.601 130.168 300.534 130.018 300.437 129.892C300.777 129.821 301.038 129.534 301.038 129.172C301.038 129.004 300.972 128.857 300.879 128.732C300.884 128.732 300.888 128.735 300.892 128.735C301.306 128.735 301.642 128.399 301.642 127.985C301.642 127.908 301.62 127.838 301.598 127.768C301.614 127.769 301.626 127.777 301.642 127.777C302.056 127.777 302.392 127.441 302.392 127.027C302.392 126.969 302.371 126.917 302.359 126.863C302.458 126.911 302.566 126.944 302.684 126.944C303.099 126.944 303.434 126.608 303.434 126.194C303.435 125.779 303.099 125.443 302.685 125.443Z" fill="#263238"/>
<path d="M394.1 113.729C396.43 117.847 398.673 122.013 400.862 126.207C403.043 130.406 405.188 134.624 407.276 138.873L408.06 140.466L408.718 141.762L409.495 143.11L410.358 144.499C411.567 146.354 412.863 148.249 414.199 150.13L422.35 161.549L418.353 165.35C414.581 162.298 411.045 159.081 407.647 155.604C405.959 153.855 404.29 152.069 402.693 150.122L401.495 148.628L400.32 147.018C399.946 146.437 399.517 145.778 399.196 145.251L398.285 143.731C395.852 139.68 393.477 135.6 391.137 131.5C388.805 127.396 386.528 123.262 384.337 119.082L394.1 113.729Z" fill="#7F3E3B"/>
<path d="M356.274 85.3167C356.397 85.8967 356.192 86.4437 355.817 86.5387C355.441 86.6337 355.037 86.2407 354.915 85.6597C354.792 85.0797 354.997 84.5327 355.372 84.4377C355.747 84.3437 356.151 84.7367 356.274 85.3167Z" fill="#263238"/>
<path d="M356.245 86.4316C356.245 86.4316 355.648 90.1087 354.552 92.0867C355.771 92.7877 357.407 91.9137 357.407 91.9137L356.245 86.4316Z" fill="#630F0F"/>
<path d="M354.738 81.7966C354.628 81.7966 354.52 81.7446 354.452 81.6476C354.342 81.4906 354.38 81.2736 354.537 81.1626C354.594 81.1236 355.936 80.2046 357.688 80.9256C357.866 80.9986 357.951 81.2016 357.878 81.3796C357.805 81.5576 357.601 81.6426 357.424 81.5686C356.019 80.9896 354.947 81.7246 354.937 81.7326C354.877 81.7756 354.807 81.7966 354.738 81.7966Z" fill="#263238"/>
<path d="M376.223 87.1621C376.872 93.9181 375.914 100.46 377.426 106.334C377.426 106.334 375.746 111.786 365.76 111.786C354.779 111.786 360.723 106.335 360.723 106.335C366.771 104.904 366.788 100.457 365.906 96.2821L376.223 87.1621Z" fill="#7F3E3B"/>
<path d="M378.793 108.205C379.647 106.479 380.59 104.504 378.821 103.886C376.875 103.205 366.107 102.511 362.335 103.789C358.564 105.067 359.484 108.567 359.484 108.567L378.793 108.205Z" fill="#263238"/>
<path d="M400.205 354.075C400.931 353.92 401.682 353.603 402.199 353.355C402.268 353.322 402.311 353.251 402.307 353.174C402.303 353.097 402.254 353.031 402.182 353.005C401.858 352.887 398.994 351.871 398.221 352.502C398.101 352.6 397.968 352.782 398.014 353.096C398.077 353.517 398.276 353.821 398.608 353.997C399.027 354.219 399.608 354.202 400.205 354.075ZM401.604 353.208C400.328 353.759 399.293 353.929 398.786 353.66C398.564 353.542 398.434 353.339 398.39 353.039C398.368 352.893 398.417 352.832 398.461 352.796C398.863 352.468 400.449 352.832 401.604 353.208Z" fill="#407BFF"/>
<path d="M402.157 353.368C402.192 353.36 402.225 353.343 402.252 353.316C402.301 353.267 402.32 353.194 402.3 353.128C402.272 353.033 401.602 350.808 400.531 350.257C400.252 350.114 399.968 350.09 399.688 350.187C399.255 350.336 399.197 350.635 399.2 350.8C399.22 351.711 401.157 353.096 402.063 353.364C402.094 353.374 402.126 353.375 402.157 353.368ZM399.895 350.524C400.048 350.491 400.2 350.515 400.357 350.596C401.044 350.949 401.576 352.216 401.808 352.858C400.87 352.417 399.593 351.33 399.581 350.792C399.58 350.743 399.577 350.628 399.812 350.546C399.839 350.537 399.867 350.53 399.895 350.524Z" fill="#407BFF"/>
<path d="M348.671 359.311C349.413 359.311 350.214 359.157 350.771 359.022C350.845 359.004 350.902 358.943 350.914 358.868C350.926 358.792 350.892 358.717 350.827 358.676C350.535 358.493 347.945 356.903 347.058 357.359C346.92 357.43 346.752 357.581 346.732 357.897C346.705 358.322 346.838 358.66 347.125 358.902C347.489 359.206 348.06 359.311 348.671 359.311ZM350.22 358.755C348.857 359.028 347.809 358.979 347.37 358.61C347.177 358.448 347.093 358.223 347.112 357.92C347.121 357.772 347.181 357.723 347.232 357.697C347.693 357.46 349.168 358.146 350.22 358.755Z" fill="#407BFF"/>
<path d="M350.727 359.029C350.763 359.029 350.799 359.019 350.831 358.998C350.889 358.96 350.922 358.893 350.917 358.824C350.909 358.726 350.717 356.41 349.785 355.648C349.542 355.45 349.269 355.367 348.975 355.403C348.521 355.459 348.401 355.739 348.37 355.901C348.2 356.796 349.806 358.554 350.637 359.005C350.664 359.022 350.696 359.029 350.727 359.029ZM349.107 355.776C349.263 355.776 349.407 355.831 349.544 355.943C350.142 356.431 350.398 357.781 350.492 358.458C349.666 357.831 348.643 356.502 348.744 355.974C348.753 355.926 348.775 355.813 349.022 355.782C349.05 355.778 349.078 355.776 349.107 355.776Z" fill="#407BFF"/>
<path d="M359.367 358.738H352.021L351.946 341.725H359.292L359.367 358.738Z" fill="#7F3E3B"/>
<path d="M410.709 351.559L403.523 353.089L397.011 337.081L404.196 335.551L410.709 351.559Z" fill="#7F3E3B"/>
<path d="M402.868 352.358L410.94 350.639C411.234 350.576 411.524 350.728 411.637 351.004L414.17 357.141C414.433 357.778 414.021 358.52 413.341 358.653C410.514 359.204 409.116 359.329 405.567 360.085C403.383 360.55 398.923 361.737 395.907 362.379C392.957 363.007 391.977 360.098 393.165 359.563C398.49 357.163 400.284 355.035 401.779 353.051C402.048 352.695 402.438 352.45 402.868 352.358Z" fill="#263238"/>
<path d="M352.102 357.887H360.125C360.425 357.887 360.677 358.096 360.731 358.389L361.93 364.919C362.054 365.596 361.516 366.238 360.823 366.226C357.931 366.177 353.756 366.007 350.118 366.007C345.865 366.007 342.183 366.239 337.195 366.239C334.179 366.239 333.46 363.19 334.733 362.914C340.529 361.657 345.226 361.522 350.311 358.46C350.863 358.127 351.468 357.887 352.102 357.887Z" fill="#263238"/>
<path d="M391.444 107.994C398.268 109.573 405.44 128.345 405.44 128.345L391.245 137.823C391.245 137.823 386.289 130.494 382.711 122.294C378.962 113.702 384.466 106.38 391.444 107.994Z" fill="#407BFF"/>
<path opacity="0.2" d="M386.048 119.965L391.916 137.374L391.249 137.824C391.249 137.824 388.572 133.854 385.719 128.494L386.048 119.965Z" fill="black"/>
<path d="M345.613 140.812C345.666 149.012 346.163 159.212 347.384 171.872H386.684C387.187 165.842 384.533 136.412 391.44 107.992C391.44 107.992 384.762 106.642 378.354 106.332C373.343 106.092 366.079 105.932 361.654 106.332C355.814 106.862 350.275 108.372 350.275 108.372C350.275 108.372 346.914 112.012 345.895 129.082C345.696 132.452 345.586 136.332 345.613 140.812Z" fill="#407BFF"/>
<path opacity="0.2" d="M345.613 140.811C347.991 136.471 352.307 127.761 351.698 122.801L345.896 129.081C345.696 132.451 345.586 136.331 345.613 140.811Z" fill="black"/>
<path d="M357.983 115.018C358.603 121.985 342.733 138.856 342.733 138.856L330.011 128.495C330.011 128.495 335.241 119.43 341.901 112.991C349.338 105.799 357.284 107.17 357.983 115.018Z" fill="#407BFF"/>
<g opacity="0.2">
<path d="M351.947 341.73L351.984 350.499H359.334L359.297 341.73H351.947Z" fill="black"/>
<path d="M404.2 335.557L397.012 337.088L400.372 345.338L407.56 343.808L404.2 335.557Z" fill="black"/>
</g>
<path d="M375.175 79.248C376.251 86.482 377.244 90.648 374.456 95.204C370.261 102.058 360.861 100.995 357.67 94.309C354.799 88.29 353.521 77.472 359.827 72.892C366.039 68.381 374.099 72.014 375.175 79.248Z" fill="#7F3E3B"/>
<path d="M361.997 85.3517C358.372 85.9587 356.33 81.7957 359.117 78.2227C353.83 78.4587 351.58 75.7507 353.941 70.9077C355.971 66.7437 362.33 68.7787 362.33 68.7787C362.33 68.7787 367.649 61.6277 373.941 65.6117C380.686 69.8827 377.108 73.8337 377.108 73.8337C377.108 73.8337 386.799 75.1747 384.302 82.1257C382.955 85.8757 379.33 86.1677 379.33 86.1677C379.33 86.1677 381.808 93.6287 374.455 95.2047C367.102 96.7807 359.664 90.5357 361.997 85.3517Z" fill="#263238"/>
<path d="M364.232 83.49C364.396 85.409 363.79 87.354 362.918 88.713C361.607 90.757 359.814 89.961 359.225 87.871C358.695 85.99 358.739 82.66 360.514 81.341C362.262 80.041 364.044 81.296 364.232 83.49Z" fill="#7F3E3B"/>
<path d="M361.325 171.871C361.325 171.871 367.494 228.013 371.259 249.046C375.382 272.079 396.733 344.376 396.733 344.376L409.893 341.574C409.893 341.574 395.197 273.939 393.217 251.134C391.069 226.384 386.679 171.871 386.679 171.871H361.325Z" fill="#263238"/>
<path d="M393.786 339.935C393.73 339.947 396.026 344.74 396.026 344.74L410.833 341.587L409.775 337.098L393.786 339.935Z" fill="#407BFF"/>
<path opacity="0.2" d="M365.822 191.874C375.389 193.764 372.981 229.714 371.107 248.204C368.832 235.134 365.733 209.984 363.642 192.134C364.294 191.814 365.018 191.714 365.822 191.874Z" fill="black"/>
<path d="M347.386 171.871C347.386 171.871 344.254 226.798 344.188 249.201C344.119 272.503 349.313 348.802 349.313 348.802H361.758C361.758 348.802 365.108 273.865 366.545 250.98C368.112 226.031 373.215 171.872 373.215 171.872H347.386V171.871Z" fill="#263238"/>
<path d="M345.609 166.667C345.375 168.909 346.498 171.87 346.498 171.87C346.498 171.87 345.943 174.834 346.054 176.417C350.082 177.834 387.832 179.584 387.748 176.417C387.665 173.25 387.748 171.87 387.748 171.87C387.748 171.87 388.783 167.417 387.748 166.667C386.713 165.917 345.887 164 345.609 166.667Z" fill="#407BFF"/>
<path opacity="0.3" d="M345.609 166.667C345.375 168.909 346.498 171.87 346.498 171.87C346.498 171.87 345.943 174.834 346.054 176.417C350.082 177.834 387.832 179.584 387.748 176.417C387.665 173.25 387.748 171.87 387.748 171.87C387.748 171.87 388.783 167.417 387.748 166.667C386.713 165.917 345.887 164 345.609 166.667Z" fill="black"/>
<path d="M347.109 343.844C347.052 343.844 347.612 349.011 347.612 349.011H362.751L363.338 344.4L347.109 343.844Z" fill="#407BFF"/>
<path d="M34.9502 323.928H31.4502V343.778H34.9502V323.928Z" fill="#47E6B1"/>
<path d="M43.1299 335.598V332.098H23.2799V335.598H43.1299Z" fill="#47E6B1"/>
<path d="M211.87 7.96671C210.904 7.54618 210.126 6.78471 209.685 5.8275C209.245 4.87029 209.172 3.78433 209.48 2.77671C209.529 2.62084 209.559 2.45971 209.57 2.29671C209.602 1.83328 209.483 1.37205 209.23 0.982057C208.978 0.592062 208.606 0.294277 208.17 0.133276C207.735 -0.0277255 207.259 -0.0432841 206.813 0.0889297C206.368 0.221144 205.977 0.494017 205.7 0.866708C205.604 0.996797 205.523 1.13777 205.46 1.28671C205.04 2.25299 204.278 3.03069 203.321 3.47148C202.364 3.91228 201.278 3.98533 200.27 3.67671C200.114 3.62778 199.953 3.59757 199.79 3.58671C199.323 3.55299 198.858 3.67263 198.465 3.92744C198.072 4.18225 197.774 4.5583 197.614 4.99847C197.454 5.43863 197.443 5.91884 197.581 6.36614C197.72 6.81344 198 7.20338 198.38 7.47671C198.51 7.57293 198.651 7.65348 198.8 7.71671C199.766 8.13723 200.544 8.89871 200.985 9.85591C201.426 10.8131 201.499 11.8991 201.19 12.9067C201.141 13.0626 201.111 13.2237 201.1 13.3867C201.063 13.8564 201.181 14.3254 201.436 14.7215C201.691 15.1176 202.069 15.419 202.512 15.5792C202.956 15.7394 203.439 15.7496 203.889 15.6082C204.338 15.4668 204.729 15.1817 205 14.7967C205.096 14.6666 205.177 14.5257 205.24 14.3767C205.661 13.4104 206.422 12.6327 207.379 12.1919C208.337 11.7511 209.423 11.6781 210.43 11.9867C210.586 12.0356 210.747 12.0658 210.91 12.0767C211.374 12.1084 211.835 11.9892 212.225 11.7368C212.615 11.4845 212.913 11.1126 213.074 10.6769C213.235 10.2412 213.25 9.76506 213.118 9.31977C212.986 8.87447 212.713 8.48397 212.34 8.20671C212.195 8.10689 212.037 8.02623 211.87 7.96671Z" fill="#4D8AF0"/>
<path d="M137.44 135.117C136.474 134.697 135.696 133.935 135.255 132.978C134.815 132.021 134.742 130.935 135.05 129.927C135.099 129.771 135.129 129.61 135.14 129.447C135.172 128.984 135.053 128.522 134.8 128.132C134.548 127.742 134.176 127.445 133.74 127.284C133.305 127.123 132.829 127.107 132.383 127.239C131.938 127.372 131.547 127.644 131.27 128.017C131.174 128.147 131.093 128.288 131.03 128.437C130.61 129.403 129.848 130.181 128.891 130.622C127.934 131.063 126.848 131.136 125.84 130.827C125.684 130.778 125.523 130.748 125.36 130.737C124.897 130.705 124.436 130.825 124.046 131.077C123.656 131.329 123.358 131.701 123.197 132.137C123.036 132.573 123.02 133.049 123.152 133.494C123.285 133.939 123.557 134.33 123.93 134.607C124.06 134.703 124.201 134.784 124.35 134.847C125.316 135.268 126.094 136.029 126.535 136.986C126.976 137.944 127.049 139.029 126.74 140.037C126.691 140.193 126.661 140.354 126.65 140.517C126.618 140.981 126.738 141.442 126.99 141.832C127.242 142.222 127.614 142.52 128.05 142.681C128.486 142.842 128.962 142.857 129.407 142.725C129.852 142.593 130.243 142.32 130.52 141.947C130.616 141.817 130.697 141.676 130.76 141.527C131.181 140.561 131.942 139.783 132.899 139.342C133.857 138.902 134.943 138.828 135.95 139.137C136.106 139.186 136.267 139.216 136.43 139.227C136.894 139.259 137.355 139.14 137.745 138.887C138.135 138.635 138.433 138.263 138.594 137.827C138.755 137.392 138.77 136.915 138.638 136.47C138.506 136.025 138.233 135.634 137.86 135.357C137.73 135.261 137.589 135.18 137.44 135.117Z" fill="#FDD835"/>
<path d="M262.377 399.967C261.41 399.546 260.633 398.785 260.192 397.828C259.751 396.87 259.678 395.784 259.987 394.777C260.036 394.621 260.066 394.46 260.077 394.297C260.108 393.833 259.989 393.372 259.737 392.982C259.484 392.592 259.113 392.294 258.677 392.133C258.241 391.972 257.765 391.957 257.32 392.089C256.874 392.221 256.484 392.494 256.207 392.867C256.11 392.997 256.03 393.138 255.967 393.287C255.546 394.253 254.785 395.031 253.827 395.471C252.87 395.912 251.784 395.985 250.777 395.677C250.621 395.628 250.46 395.598 250.297 395.587C249.833 395.555 249.372 395.674 248.982 395.927C248.592 396.179 248.294 396.551 248.133 396.987C247.972 397.422 247.957 397.898 248.089 398.344C248.221 398.789 248.494 399.179 248.867 399.457C248.997 399.553 249.138 399.633 249.287 399.697C250.253 400.117 251.031 400.879 251.471 401.836C251.912 402.793 251.985 403.879 251.677 404.887C251.628 405.043 251.598 405.204 251.587 405.367C251.555 405.83 251.674 406.291 251.927 406.681C252.179 407.071 252.551 407.369 252.986 407.53C253.422 407.691 253.898 407.707 254.344 407.574C254.789 407.442 255.179 407.169 255.457 406.797C255.553 406.667 255.633 406.526 255.697 406.377C256.117 405.41 256.879 404.633 257.836 404.192C258.793 403.751 259.879 403.678 260.887 403.987C261.043 404.036 261.204 404.066 261.367 404.077C261.83 404.108 262.291 403.989 262.681 403.737C263.071 403.484 263.369 403.113 263.53 402.677C263.691 402.241 263.707 401.765 263.574 401.32C263.442 400.874 263.169 400.484 262.797 400.207C262.667 400.11 262.526 400.03 262.377 399.967Z" fill="#FDD835"/>
<path d="M321.15 62.3579C325.021 62.3579 328.16 59.2194 328.16 55.3479C328.16 51.4764 325.021 48.3379 321.15 48.3379C317.278 48.3379 314.14 51.4764 314.14 55.3479C314.14 59.2194 317.278 62.3579 321.15 62.3579Z" fill="#F55F44"/>
<path d="M463.31 169.938C467.181 169.938 470.32 166.799 470.32 162.928C470.32 159.056 467.181 155.918 463.31 155.918C459.438 155.918 456.3 159.056 456.3 162.928C456.3 166.799 459.438 169.938 463.31 169.938Z" fill="#F55F44"/>
<path d="M423.61 378.977C427.481 378.977 430.62 375.839 430.62 371.967C430.62 368.096 427.481 364.957 423.61 364.957C419.738 364.957 416.6 368.096 416.6 371.967C416.6 375.839 419.738 378.977 423.61 378.977Z" fill="#4D8AF0"/>
<path opacity="0.5" d="M7.01 15.6372C10.8815 15.6372 14.02 12.4987 14.02 8.62719C14.02 4.75567 10.8815 1.61719 7.01 1.61719C3.13848 1.61719 0 4.75567 0 8.62719C0 12.4987 3.13848 15.6372 7.01 15.6372Z" fill="#47E6B1"/>
<path d="M91.6045 145.367C82.2708 145.367 82.2559 159.874 91.6045 159.874C100.953 159.874 100.953 145.367 91.6045 145.367Z" fill="url(#paint0_linear_10603_50202)"/>
<path d="M156.665 98.9011C131.545 98.3354 108.687 110.937 96.5322 129.961C92.565 136.169 103.826 141.654 107.771 135.477C117.834 119.727 136.956 109.723 157.64 110.244C179.314 110.788 199.039 123.188 209.481 140.396C213.441 146.924 223.824 140.992 219.902 134.501C207.204 113.661 182.612 99.5189 156.665 98.9011Z" fill="url(#paint1_linear_10603_50202)"/>
<path d="M245.819 83.612C235.094 72.4575 222.247 63.5608 208.032 57.4455C193.818 51.3302 178.524 48.1198 163.051 48.0033C147.577 47.8868 132.237 50.8665 117.932 56.767C103.627 62.6676 90.6471 71.3698 79.7557 82.3616C35.8413 126.633 35.0971 198.72 78.0512 243.929C96.9225 263.79 122.213 276.333 149.445 279.337C176.676 282.34 204.092 275.611 226.839 260.341L310.708 347.589C311.746 348.669 313.171 349.292 314.669 349.321C316.166 349.35 317.614 348.784 318.694 347.746L339.594 327.649C340.674 326.611 341.297 325.186 341.326 323.688C341.356 322.191 340.789 320.743 339.751 319.663L255.874 232.422C271.955 210.391 279.76 183.4 277.922 156.187C276.083 128.975 264.717 103.279 245.819 83.612ZM219.694 223.818C207.861 235.193 192.921 242.805 176.763 245.689C160.604 248.574 143.954 246.602 128.916 240.024C113.878 233.445 101.129 222.556 92.2797 208.731C83.4309 194.907 78.8801 178.769 79.2028 162.359C79.5255 145.948 84.7071 130.002 94.0925 116.536C103.478 103.07 116.646 92.6901 131.93 86.7079C147.215 80.7257 163.93 79.4102 179.963 82.9278C195.995 86.4454 210.625 94.638 222.001 106.47C229.555 114.326 235.487 123.594 239.46 133.743C243.432 143.892 245.366 154.725 245.152 165.622C244.938 176.519 242.579 187.267 238.211 197.252C233.843 207.237 227.551 216.264 219.694 223.818Z" fill="#0078FF"/>
<path d="M100.708 140.955C91.3743 140.955 91.3594 155.462 100.708 155.462C110.057 155.462 110.057 140.955 100.708 140.955Z" fill="#0078FF"/>
<path d="M297.868 109.566C300.75 109.566 303.086 107.23 303.086 104.348C303.086 101.467 300.75 99.1309 297.868 99.1309C294.986 99.1309 292.65 101.467 292.65 104.348C292.65 107.23 294.986 109.566 297.868 109.566Z" fill="#4D8AF0"/>
</g>
<defs>
<linearGradient id="paint0_linear_10603_50202" x1="91.6045" y1="159.866" x2="91.6045" y2="145.367" gradientUnits="userSpaceOnUse">
<stop stop-opacity="0.12"/>
<stop offset="0.55" stop-opacity="0.09"/>
<stop offset="1" stop-opacity="0.02"/>
</linearGradient>
<linearGradient id="paint1_linear_10603_50202" x1="158.221" y1="143.232" x2="158.221" y2="98.8862" gradientUnits="userSpaceOnUse">
<stop stop-opacity="0.12"/>
<stop offset="0.55" stop-opacity="0.09"/>
<stop offset="1" stop-opacity="0.02"/>
</linearGradient>
<clipPath id="clip0_10603_50202">
<rect width="500" height="400" fill="white"/>
</clipPath>
</defs>
</svg>
