<svg width="500" height="400" viewBox="0 0 500 400" fill="none" xmlns="http://www.w3.org/2000/svg">
<path d="M449.901 348.492H416.779V348.742H449.901V348.492Z" fill="#EBEBEB"/>
<path d="M331.22 351.207H322.527V351.457H331.22V351.207Z" fill="#EBEBEB"/>
<path d="M415.778 339.207H396.586V339.457H415.778V339.207Z" fill="#EBEBEB"/>
<path d="M95.652 340.887H52.459V341.137H95.652V340.887Z" fill="#EBEBEB"/>
<path d="M110.889 340.887H104.556V341.137H110.889V340.887Z" fill="#EBEBEB"/>
<path d="M225.147 345.109H131.471V345.359H225.147V345.109Z" fill="#EBEBEB"/>
<path d="M238.401 287.799H45.3022C42.1552 287.799 39.5942 285.238 39.5942 282.091V10.6592C39.5942 7.51217 42.1552 4.95117 45.3022 4.95117H238.401C241.547 4.95117 244.108 7.51217 244.108 10.6592V282.091C244.108 285.238 241.547 287.799 238.401 287.799ZM45.3022 5.20217C42.2922 5.20217 39.8442 7.65017 39.8442 10.6602V282.092C39.8442 285.102 42.2922 287.55 45.3022 287.55H238.401C241.41 287.55 243.858 285.102 243.858 282.092V10.6592C243.858 7.65017 241.41 5.20117 238.401 5.20117L45.3022 5.20217Z" fill="#EBEBEB"/>
<path d="M454.698 287.799H261.599C258.453 287.799 255.892 285.238 255.892 282.091V10.6592C255.892 7.51217 258.453 4.95117 261.599 4.95117H454.698C457.846 4.95117 460.406 7.51217 460.406 10.6592V282.091C460.406 285.238 457.845 287.799 454.698 287.799ZM261.599 5.20217C258.59 5.20217 256.142 7.65017 256.142 10.6602V282.092C256.142 285.102 258.59 287.55 261.599 287.55H454.698C457.708 287.55 460.156 285.102 460.156 282.092V10.6592C460.156 7.65017 457.708 5.20117 454.698 5.20117L261.599 5.20217Z" fill="#EBEBEB"/>
<path d="M500 332.396H0V332.646H500V332.396Z" fill="#EBEBEB"/>
<path d="M169.609 74.2754H96.9526V166.348H169.609V74.2754Z" fill="#F0F0F0"/>
<path d="M162.376 83.4414H104.186V157.182H162.376V83.4414Z" fill="#FAFAFA"/>
<path d="M91.3336 166.35H96.9536L96.9536 74.2766H91.3336L91.3336 166.35Z" fill="#E0E0E0"/>
<path d="M141.748 121.447C148.251 127.95 148.251 138.494 141.748 144.997C135.245 151.5 124.701 151.5 118.198 144.997C111.694 138.494 135.245 114.943 141.748 121.447Z" fill="#F5F5F5"/>
<path d="M124.36 120.162C119.243 115.045 119.243 106.749 124.36 101.631C129.477 96.5137 137.773 96.5137 142.891 101.631C148.008 106.748 129.477 125.279 124.36 120.162Z" fill="#EBEBEB"/>
<path d="M390.477 203.719H381.847V332.999H390.477V203.719Z" fill="#F0F0F0"/>
<path d="M394.237 203.719H386.727V332.999H394.237V203.719Z" fill="#E6E6E6"/>
<path d="M303.467 203.719H294.837V332.999H303.467V203.719Z" fill="#F0F0F0"/>
<path d="M307.227 203.719H299.717V332.999H307.227V203.719Z" fill="#E6E6E6"/>
<path d="M423.197 203.719H414.567V332.999H423.197V203.719Z" fill="#F0F0F0"/>
<path d="M426.947 203.719H419.437V332.999H426.947V203.719Z" fill="#E6E6E6"/>
<path d="M336.187 203.719H327.557V332.999H336.187V203.719Z" fill="#F0F0F0"/>
<path d="M426.957 195.418H294.847V205.778H426.957V195.418Z" fill="#F0F0F0"/>
<path d="M332.437 195.418H294.847V205.778H332.437V195.418Z" fill="#E0E0E0"/>
<path d="M339.947 203.719H332.437V332.999H339.947V203.719Z" fill="#E6E6E6"/>
<path d="M122.565 196.074H67.3018V332.997H122.565V196.074Z" fill="#E6E6E6"/>
<path d="M225.923 196.074H110.496V332.997H225.923V196.074Z" fill="#F5F5F5"/>
<path d="M220.43 326.199H171.62V219.697C171.62 211.424 178.327 204.717 186.6 204.717H205.451C213.724 204.717 220.431 211.424 220.431 219.697V326.199H220.43Z" fill="#EBEBEB"/>
<path d="M165.93 326.199H117.12V219.697C117.12 211.424 123.827 204.717 132.1 204.717H150.951C159.224 204.717 165.931 211.424 165.931 219.697V326.199H165.93Z" fill="#EBEBEB"/>
<path d="M161.538 264.537C161.538 267.379 159.37 269.683 156.695 269.683C154.02 269.683 151.852 267.379 151.852 264.537C151.852 261.695 154.02 259.391 156.695 259.391C159.369 259.391 161.538 261.695 161.538 264.537Z" fill="#E0E0E0"/>
<path d="M186.512 264.537C186.512 267.379 184.344 269.683 181.669 269.683C178.994 269.683 176.826 267.379 176.826 264.537C176.826 261.695 178.994 259.391 181.669 259.391C184.343 259.391 186.512 261.695 186.512 264.537Z" fill="#E0E0E0"/>
<path d="M250 377.015C357.082 377.015 443.889 371.946 443.889 365.692C443.889 359.439 357.082 354.369 250 354.369C142.918 354.369 56.1108 359.439 56.1108 365.692C56.1108 371.946 142.918 377.015 250 377.015Z" fill="#F5F5F5" fill-opacity="0.5"/>
<path d="M292.525 338.386C292.43 324.082 288.177 315.305 284.625 310.46C280.783 305.219 276.911 303.325 276.872 303.305L277.323 302.359C277.484 302.436 293.387 310.332 293.572 338.38L292.525 338.386Z" fill="#407BFF"/>
<path d="M296.654 335.863L295.61 335.771C299.71 289.332 268.651 273.016 268.337 272.857L268.811 271.922C269.131 272.084 300.816 288.725 296.654 335.863Z" fill="#407BFF"/>
<path d="M300.163 337.589C299.054 311.145 301.852 281.737 301.88 281.443L302.923 281.543C302.894 281.836 300.103 311.174 301.209 337.545L300.163 337.589Z" fill="#407BFF"/>
<path d="M302.226 339.128C304.04 327.849 308.466 321.438 311.858 318.045C315.529 314.376 318.815 313.351 318.848 313.34L318.607 312.539C318.471 312.58 304.957 316.879 301.4 338.996L302.226 339.128Z" fill="#407BFF"/>
<g opacity="0.3">
<path d="M292.525 338.386C292.43 324.082 288.177 315.305 284.625 310.46C280.783 305.219 276.911 303.325 276.872 303.305L277.323 302.359C277.484 302.436 293.387 310.332 293.572 338.38L292.525 338.386Z" fill="white"/>
<path d="M296.654 335.863L295.61 335.771C299.71 289.332 268.651 273.016 268.337 272.857L268.811 271.922C269.131 272.084 300.816 288.725 296.654 335.863Z" fill="white"/>
<path d="M300.163 337.589C299.054 311.145 301.852 281.737 301.88 281.443L302.923 281.543C302.894 281.836 300.103 311.174 301.209 337.545L300.163 337.589Z" fill="white"/>
<path d="M302.226 339.128C304.04 327.849 308.466 321.438 311.858 318.045C315.529 314.376 318.815 313.351 318.848 313.34L318.607 312.539C318.471 312.58 304.957 316.879 301.4 338.996L302.226 339.128Z" fill="white"/>
</g>
<path d="M271.84 273.959C271.84 273.959 264.928 256.371 254.996 269.446C246.937 280.054 254.973 291.669 254.973 291.669C254.973 291.669 298.201 292.764 290.467 276.257C285.707 266.098 271.84 273.959 271.84 273.959Z" fill="#407BFF"/>
<g opacity="0.5">
<path d="M270.427 274.797C270.427 274.797 257.692 272.824 257.616 273.816C257.54 274.808 268.786 275.266 267.739 276.664C266.692 278.061 255.857 279.246 255.755 280.581C255.653 281.916 265.895 278.672 265.442 279.846C264.988 281.02 258.119 286.537 258.007 288.006C257.895 289.475 264.449 281.784 265.227 282.65C266.006 283.515 266.412 290.485 267.072 288.879C267.732 287.274 266.927 280.258 268.509 278.887C270.091 277.516 279.358 286.284 281.463 285.102C283.568 283.919 271.175 278.96 270.427 274.797Z" fill="white"/>
<path d="M277.095 275.5C277.095 275.5 287.694 275.64 288.013 278.485C288.332 281.33 286.01 278.332 277.095 275.5Z" fill="white"/>
</g>
<path d="M275.598 337.509L280.524 364.245C281.042 367.057 283.494 369.098 286.353 369.098H305.5C308.359 369.098 310.811 367.057 311.329 364.245L316.255 337.509C316.645 335.392 315.02 333.441 312.868 333.441H278.985C276.833 333.441 275.208 335.393 275.598 337.509Z" fill="#407BFF"/>
<path d="M272.606 304.841C272.606 304.841 260.734 294.769 258.62 308.13C256.905 318.972 267.265 324.27 267.265 324.27C267.265 324.27 299.069 308.216 287.022 299.248C279.607 293.73 272.606 304.841 272.606 304.841Z" fill="#407BFF"/>
<path opacity="0.2" d="M272.606 304.841C272.606 304.841 260.734 294.769 258.62 308.13C256.905 318.972 267.265 324.27 267.265 324.27C267.265 324.27 299.069 308.216 287.022 299.248C279.607 293.73 272.606 304.841 272.606 304.841Z" fill="black"/>
<g opacity="0.5">
<path d="M271.907 306.002C271.907 306.002 261.894 309.533 262.226 310.283C262.558 311.033 270.899 306.982 270.684 308.404C270.468 309.826 263.066 314.909 263.512 315.918C263.958 316.927 270.128 310.58 270.257 311.608C270.385 312.637 267.55 319.319 268.041 320.429C268.532 321.539 270.292 313.402 271.194 313.727C272.096 314.052 275.108 318.952 274.961 317.53C274.814 316.107 271.495 311.329 272.109 309.717C272.723 308.105 282.867 310.858 283.934 309.179C285.001 307.502 274.072 308.733 271.907 306.002Z" fill="white"/>
<path d="M277.021 303.912C277.021 303.912 284.769 299.883 286.11 301.823C287.45 303.764 284.596 302.493 277.021 303.912Z" fill="white"/>
</g>
<path d="M313.477 277.604C313.477 277.604 327.274 265.898 329.731 281.427C331.724 294.026 319.684 300.184 319.684 300.184C319.684 300.184 282.723 281.527 296.724 271.105C305.34 264.691 313.477 277.604 313.477 277.604Z" fill="#407BFF"/>
<path opacity="0.3" d="M313.477 277.604C313.477 277.604 327.274 265.898 329.731 281.427C331.724 294.026 319.684 300.184 319.684 300.184C319.684 300.184 282.723 281.527 296.724 271.105C305.34 264.691 313.477 277.604 313.477 277.604Z" fill="black"/>
<g opacity="0.5">
<path d="M314.289 278.953C314.289 278.953 325.925 283.057 325.54 283.928C325.155 284.799 315.46 280.092 315.711 281.744C315.962 283.397 324.565 289.304 324.046 290.477C323.528 291.65 316.357 284.273 316.208 285.469C316.059 286.665 319.354 294.431 318.784 295.72C318.214 297.01 316.168 287.554 315.119 287.931C314.07 288.308 310.571 294.003 310.741 292.35C310.911 290.697 314.769 285.143 314.055 283.27C313.341 281.397 301.553 284.595 300.312 282.645C299.071 280.695 311.772 282.126 314.289 278.953Z" fill="white"/>
<path d="M308.346 276.524C308.346 276.524 299.341 271.841 297.784 274.096C296.225 276.352 299.542 274.874 308.346 276.524Z" fill="white"/>
</g>
<path d="M321.57 312.968C321.57 312.968 330.875 303.432 333.75 314.645C336.083 323.744 327.683 329.091 327.683 329.091C327.683 329.091 299.295 317.971 308.838 309.362C314.711 304.065 321.57 312.968 321.57 312.968Z" fill="#407BFF"/>
<path opacity="0.4" d="M321.57 312.968C321.57 312.968 330.875 303.432 333.75 314.645C336.083 323.744 327.683 329.091 327.683 329.091C327.683 329.091 299.295 317.971 308.838 309.362C314.711 304.065 321.57 312.968 321.57 312.968Z" fill="black"/>
<g opacity="0.5">
<path d="M322.259 313.9C322.259 313.9 331.074 316.103 330.851 316.769C330.629 317.434 323.196 314.654 323.494 315.849C323.792 317.043 330.508 320.779 330.209 321.674C329.91 322.57 324.143 317.658 324.116 318.545C324.09 319.432 327.043 324.897 326.714 325.882C326.385 326.867 324.231 320.076 323.488 320.425C322.745 320.774 320.574 325.191 320.584 323.968C320.594 322.744 323.038 318.406 322.385 317.082C321.732 315.758 313.311 318.919 312.267 317.575C311.224 316.231 320.633 316.4 322.259 313.9Z" fill="white"/>
<path d="M317.734 312.531C317.734 312.531 310.809 309.721 309.823 311.482C308.836 313.243 311.166 311.931 317.734 312.531Z" fill="white"/>
</g>
<path d="M381.473 210.38H310.164C306.644 210.38 304.04 207.526 304.348 204.006L308.191 160.085C308.499 156.565 311.602 153.711 315.122 153.711H386.431C389.951 153.711 392.555 156.565 392.247 160.085L388.404 204.006C388.096 207.526 384.993 210.38 381.473 210.38Z" fill="#263238"/>
<path d="M339.449 178.505C338.887 184.927 333.226 190.133 326.804 190.133C320.382 190.133 315.632 184.927 316.194 178.505C316.756 172.083 322.417 166.877 328.839 166.877L329.359 160.932C319.654 160.932 311.098 168.799 310.249 178.504C309.4 188.209 316.579 196.076 326.284 196.076C335.989 196.076 344.545 188.209 345.394 178.504L339.449 178.505Z" fill="#407BFF"/>
<path d="M347.478 175.927C348.327 166.222 341.148 158.355 331.443 158.355L330.923 164.3C337.345 164.3 342.095 169.506 341.533 175.928L347.478 175.927Z" fill="#407BFF"/>
<path opacity="0.7" d="M347.478 175.927C348.327 166.222 341.148 158.355 331.443 158.355L330.923 164.3C337.345 164.3 342.095 169.506 341.533 175.928L347.478 175.927Z" fill="white"/>
<path d="M332.917 178.506C332.661 181.429 330.085 183.798 327.162 183.798C324.239 183.798 322.077 181.429 322.333 178.506C322.589 175.583 325.165 173.214 328.088 173.214L328.325 170.508C323.908 170.508 320.014 174.089 319.628 178.506C319.242 182.923 322.509 186.503 326.926 186.503C331.343 186.503 335.237 182.922 335.623 178.506H332.917Z" fill="#407BFF"/>
<path opacity="0.7" d="M332.917 178.506C332.661 181.429 330.085 183.798 327.162 183.798C324.239 183.798 322.077 181.429 322.333 178.506C322.589 175.583 325.165 173.214 328.088 173.214L328.325 170.508C323.908 170.508 320.014 174.089 319.628 178.506C319.242 182.923 322.509 186.503 326.926 186.503C331.343 186.503 335.237 182.922 335.623 178.506H332.917Z" fill="white"/>
<path d="M336.571 177.333C336.958 172.916 333.69 169.336 329.273 169.336L329.036 172.042C331.959 172.042 334.121 174.411 333.865 177.334L336.571 177.333Z" fill="#407BFF"/>
<path d="M370.851 160.934L370.331 166.879C376.753 166.879 381.503 172.085 380.941 178.507C380.379 184.929 374.718 190.135 368.296 190.135C361.874 190.135 357.124 184.929 357.686 178.507C357.967 175.296 359.523 172.389 361.811 170.285L357.975 166.081C354.517 169.261 352.166 173.654 351.741 178.506C350.892 188.211 358.071 196.078 367.776 196.078C377.481 196.078 386.037 188.211 386.886 178.506C387.735 168.801 380.556 160.934 370.851 160.934Z" fill="#407BFF"/>
<path opacity="0.7" d="M370.851 160.934L370.331 166.879C376.753 166.879 381.503 172.085 380.941 178.507C380.379 184.929 374.718 190.135 368.296 190.135C361.874 190.135 357.124 184.929 357.686 178.507C357.967 175.296 359.523 172.389 361.811 170.285L357.975 166.081C354.517 169.261 352.166 173.654 351.741 178.506C350.892 188.211 358.071 196.078 367.776 196.078C377.481 196.078 386.037 188.211 386.886 178.506C387.735 168.801 380.556 160.934 370.851 160.934Z" fill="white"/>
<path d="M356.831 162.823L360.667 167.027C362.955 164.923 365.976 163.621 369.187 163.621L369.707 157.676C364.854 157.677 360.289 159.643 356.831 162.823Z" fill="#407BFF"/>
<path opacity="0.3" d="M356.831 162.823L360.667 167.027C362.955 164.923 365.976 163.621 369.187 163.621L369.707 157.676C364.854 157.677 360.289 159.643 356.831 162.823Z" fill="black"/>
<path d="M370.061 169.961L369.813 172.802C372.881 172.802 375.151 175.29 374.883 178.358C374.615 181.426 371.909 183.914 368.841 183.914C365.772 183.914 363.503 181.426 363.771 178.358C363.905 176.824 364.649 175.435 365.742 174.429L363.909 172.42C362.257 173.94 361.133 176.039 360.93 178.357C360.524 182.994 363.955 186.754 368.592 186.754C373.229 186.754 377.317 182.995 377.723 178.357C378.129 173.719 374.698 169.961 370.061 169.961Z" fill="#407BFF"/>
<path d="M363.362 170.865L365.195 172.874C366.288 171.869 367.732 171.247 369.266 171.247L369.515 168.406C367.196 168.405 365.014 169.345 363.362 170.865Z" fill="#407BFF"/>
<path opacity="0.3" d="M363.362 170.865L365.195 172.874C366.288 171.869 367.732 171.247 369.266 171.247L369.515 168.406C367.196 168.405 365.014 169.345 363.362 170.865Z" fill="black"/>
<path d="M318.178 203.773C317.143 203.773 316.377 202.934 316.468 201.899C316.559 200.864 317.471 200.025 318.506 200.025C319.541 200.025 320.307 200.864 320.216 201.899C320.126 202.934 319.213 203.773 318.178 203.773Z" fill="white"/>
<path d="M337.357 202.853H323.375C322.849 202.853 322.459 202.426 322.505 201.9C322.551 201.373 323.015 200.947 323.542 200.947H337.524C338.05 200.947 338.44 201.374 338.394 201.9C338.347 202.426 337.883 202.853 337.357 202.853Z" fill="white"/>
<path d="M333.514 206.601H323.047C322.521 206.601 322.131 206.174 322.177 205.648C322.223 205.122 322.687 204.695 323.214 204.695H333.681C334.207 204.695 334.597 205.122 334.551 205.648C334.505 206.174 334.041 206.601 333.514 206.601Z" fill="white"/>
<path d="M358.717 203.773C357.682 203.773 356.916 202.934 357.007 201.899C357.098 200.864 358.01 200.025 359.045 200.025C360.08 200.025 360.846 200.864 360.755 201.899C360.665 202.934 359.752 203.773 358.717 203.773Z" fill="white"/>
<path d="M377.896 202.853H363.914C363.387 202.853 362.998 202.426 363.044 201.9C363.09 201.373 363.554 200.947 364.081 200.947H378.063C378.589 200.947 378.979 201.374 378.933 201.9C378.887 202.426 378.422 202.853 377.896 202.853Z" fill="white"/>
<path d="M374.053 206.601H363.586C363.06 206.601 362.67 206.174 362.716 205.648C362.762 205.122 363.226 204.695 363.753 204.695H374.22C374.746 204.695 375.136 205.122 375.09 205.648C375.044 206.174 374.58 206.601 374.053 206.601Z" fill="white"/>
<path d="M289.415 234.333H182.577C179.057 234.333 176.453 231.479 176.761 227.959L182.699 160.085C183.007 156.565 186.11 153.711 189.63 153.711H296.468C299.988 153.711 302.592 156.565 302.284 160.085L296.346 227.959C296.038 231.479 292.935 234.333 289.415 234.333Z" fill="#407BFF"/>
<path opacity="0.7" d="M289.415 234.333H182.577C179.057 234.333 176.453 231.479 176.761 227.959L182.699 160.085C183.007 156.565 186.11 153.711 189.63 153.711H296.468C299.988 153.711 302.592 156.565 302.284 160.085L296.346 227.959C296.038 231.479 292.935 234.333 289.415 234.333Z" fill="white"/>
<path d="M187.044 214.041H184.331L187.96 172.562H190.673L187.044 214.041Z" fill="#407BFF"/>
<path d="M190.886 214.041H188.174L190.843 183.533H193.555L190.886 214.041Z" fill="#263238"/>
<path d="M196.989 214.04H194.277L196.021 194.102H198.734L196.989 214.04Z" fill="#407BFF"/>
<path d="M200.832 214.04H198.12L200.2 190.258H202.913L200.832 214.04Z" fill="#263238"/>
<path d="M206.935 214.04H204.223L207.324 178.598H210.036L206.935 214.04Z" fill="#407BFF"/>
<path d="M210.778 214.041H208.065L210.734 183.533H213.447L210.778 214.041Z" fill="#263238"/>
<path d="M216.881 214.041H214.169L216.838 183.533H219.55L216.881 214.041Z" fill="#407BFF"/>
<path d="M220.724 214.041H218.011L221.353 175.846H224.065L220.724 214.041Z" fill="#263238"/>
<path d="M226.827 214.04H224.114L225.929 193.301H228.641L226.827 214.04Z" fill="#407BFF"/>
<path d="M230.669 214.041H227.957L230.626 183.533H233.339L230.669 214.041Z" fill="#263238"/>
<path d="M236.773 214.04H234.06L237.161 178.598H239.873L236.773 214.04Z" fill="#407BFF"/>
<path d="M240.615 214.041H237.903L241.665 171.041H244.377L240.615 214.041Z" fill="#263238"/>
<path d="M246.718 214.041H244.006L244.993 202.75H247.706L246.718 214.041Z" fill="#407BFF"/>
<path d="M250.561 214.04H247.848L249.677 193.141H252.389L250.561 214.04Z" fill="#263238"/>
<path d="M256.664 214.04H253.952L255.696 194.102H258.408L256.664 214.04Z" fill="#407BFF"/>
<path d="M260.507 214.041H257.794L261.22 174.885H263.932L260.507 214.041Z" fill="#263238"/>
<path d="M266.61 214.04H263.897L266.146 188.336H268.858L266.61 214.04Z" fill="#407BFF"/>
<path d="M270.452 214.04H267.74L272.09 164.314H274.803L270.452 214.04Z" fill="#263238"/>
<path d="M276.556 214.041H273.843L276.764 180.65H279.477L276.556 214.041Z" fill="#407BFF"/>
<path d="M280.398 214.041H277.686L280.355 183.533H283.067L280.398 214.041Z" fill="#263238"/>
<path d="M286.501 214.041H283.789L287.467 172.002H290.179L286.501 214.041Z" fill="#407BFF"/>
<path d="M290.344 214.04H287.632L289.796 189.297H292.509L290.344 214.04Z" fill="#263238"/>
<path d="M186.007 225.363C184.534 225.363 183.445 224.169 183.574 222.696C183.703 221.223 185.001 220.029 186.474 220.029C187.947 220.029 189.036 221.223 188.907 222.696C188.778 224.17 187.48 225.363 186.007 225.363Z" fill="#263238"/>
<path d="M213.292 224.054H193.4C192.651 224.054 192.097 223.447 192.162 222.698C192.228 221.949 192.888 221.342 193.637 221.342H213.528C214.277 221.342 214.831 221.949 214.766 222.698C214.702 223.447 214.041 224.054 213.292 224.054Z" fill="#263238"/>
<path d="M207.826 229.386H192.934C192.185 229.386 191.631 228.779 191.696 228.03C191.762 227.281 192.422 226.674 193.171 226.674H208.062C208.811 226.674 209.365 227.281 209.3 228.03C209.235 228.779 208.575 229.386 207.826 229.386Z" fill="#263238"/>
<path opacity="0.3" d="M213.292 224.054H193.4C192.651 224.054 192.097 223.447 192.162 222.698C192.228 221.949 192.888 221.342 193.637 221.342H213.528C214.277 221.342 214.831 221.949 214.766 222.698C214.702 223.447 214.041 224.054 213.292 224.054Z" fill="white"/>
<path opacity="0.3" d="M207.826 229.386H192.934C192.185 229.386 191.631 228.779 191.696 228.03C191.762 227.281 192.422 226.674 193.171 226.674H208.062C208.811 226.674 209.365 227.281 209.3 228.03C209.235 228.779 208.575 229.386 207.826 229.386Z" fill="white"/>
<path d="M225.338 225.363C223.865 225.363 222.776 224.169 222.905 222.696C223.034 221.223 224.332 220.029 225.805 220.029C227.278 220.029 228.367 221.223 228.238 222.696C228.109 224.17 226.811 225.363 225.338 225.363Z" fill="#407BFF"/>
<path opacity="0.3" d="M225.338 225.363C223.865 225.363 222.776 224.169 222.905 222.696C223.034 221.223 224.332 220.029 225.805 220.029C227.278 220.029 228.367 221.223 228.238 222.696C228.109 224.17 226.811 225.363 225.338 225.363Z" fill="black"/>
<path d="M252.623 224.054H232.732C231.983 224.054 231.429 223.447 231.494 222.698C231.56 221.949 232.22 221.342 232.969 221.342H252.861C253.61 221.342 254.164 221.949 254.099 222.698C254.033 223.447 253.372 224.054 252.623 224.054Z" fill="#263238"/>
<path d="M247.157 229.386H232.265C231.516 229.386 230.962 228.779 231.027 228.03C231.093 227.281 231.753 226.674 232.502 226.674H247.394C248.143 226.674 248.697 227.281 248.632 228.03C248.566 228.779 247.906 229.386 247.157 229.386Z" fill="#263238"/>
<path opacity="0.3" d="M252.623 224.054H232.732C231.983 224.054 231.429 223.447 231.494 222.698C231.56 221.949 232.22 221.342 232.969 221.342H252.861C253.61 221.342 254.164 221.949 254.099 222.698C254.033 223.447 253.372 224.054 252.623 224.054Z" fill="white"/>
<path opacity="0.3" d="M247.157 229.386H232.265C231.516 229.386 230.962 228.779 231.027 228.03C231.093 227.281 231.753 226.674 232.502 226.674H247.394C248.143 226.674 248.697 227.281 248.632 228.03C248.566 228.779 247.906 229.386 247.157 229.386Z" fill="white"/>
<path d="M264.669 225.363C263.196 225.363 262.107 224.169 262.236 222.696C262.365 221.223 263.663 220.029 265.136 220.029C266.609 220.029 267.698 221.223 267.569 222.696C267.44 224.17 266.142 225.363 264.669 225.363Z" fill="#407BFF"/>
<path d="M291.954 224.054H272.062C271.313 224.054 270.759 223.447 270.824 222.698C270.89 221.949 271.55 221.342 272.299 221.342H292.191C292.94 221.342 293.494 221.949 293.428 222.698C293.364 223.447 292.703 224.054 291.954 224.054Z" fill="#263238"/>
<path d="M286.488 229.386H271.596C270.847 229.386 270.293 228.779 270.358 228.03C270.424 227.281 271.084 226.674 271.833 226.674H286.725C287.474 226.674 288.028 227.281 287.962 228.03C287.897 228.779 287.237 229.386 286.488 229.386Z" fill="#263238"/>
<path opacity="0.3" d="M291.954 224.054H272.062C271.313 224.054 270.759 223.447 270.824 222.698C270.89 221.949 271.55 221.342 272.299 221.342H292.191C292.94 221.342 293.494 221.949 293.428 222.698C293.364 223.447 292.703 224.054 291.954 224.054Z" fill="white"/>
<path opacity="0.3" d="M286.488 229.386H271.596C270.847 229.386 270.293 228.779 270.358 228.03C270.424 227.281 271.084 226.674 271.833 226.674H286.725C287.474 226.674 288.028 227.281 287.962 228.03C287.897 228.779 287.237 229.386 286.488 229.386Z" fill="white"/>
<path d="M397.756 147.331H335.639C332.119 147.331 329.515 144.477 329.823 140.957L333.124 103.233C333.432 99.7134 336.535 96.8594 340.055 96.8594H402.172C405.692 96.8594 408.296 99.7134 407.988 103.233L404.687 140.957C404.379 144.477 401.276 147.331 397.756 147.331Z" fill="#407BFF"/>
<path d="M362.489 119.666C361.933 126.017 356.334 131.166 349.983 131.166C343.632 131.166 338.934 126.017 339.489 119.666C340.045 113.315 345.644 108.166 351.995 108.166C358.347 108.166 363.045 113.315 362.489 119.666Z" fill="#407BFF"/>
<path opacity="0.7" d="M362.489 119.666C361.933 126.017 356.334 131.166 349.983 131.166C343.632 131.166 338.934 126.017 339.489 119.666C340.045 113.315 345.644 108.166 351.995 108.166C358.347 108.166 363.045 113.315 362.489 119.666Z" fill="white"/>
<path d="M354.47 117.631C354.25 120.15 353.287 122.192 350.768 122.192C348.249 122.192 347.644 120.15 347.864 117.631C348.084 115.112 349.047 113.07 351.566 113.07C354.086 113.069 354.691 115.111 354.47 117.631Z" fill="#263238"/>
<path d="M350.645 123.605C345.369 123.605 342.509 124.779 341.16 126.502C343.008 129.326 346.197 131.165 349.984 131.165C353.771 131.165 357.281 129.326 359.624 126.502C358.575 124.779 355.921 123.605 350.645 123.605Z" fill="#263238"/>
<path d="M389.582 106.832H370.915C370.041 106.832 369.394 106.123 369.47 105.249C369.546 104.375 370.317 103.666 371.192 103.666H389.859C390.733 103.666 391.38 104.375 391.304 105.249C391.227 106.123 390.456 106.832 389.582 106.832Z" fill="white"/>
<path d="M394.561 118.5H369.894C369.02 118.5 368.373 117.791 368.449 116.917C368.526 116.043 369.296 115.334 370.171 115.334H394.838C395.712 115.334 396.359 116.043 396.283 116.917C396.206 117.791 395.435 118.5 394.561 118.5Z" fill="white"/>
<path d="M399.051 124.332H369.384C368.509 124.332 367.863 123.623 367.939 122.749C368.015 121.875 368.786 121.166 369.661 121.166H399.328C400.203 121.166 400.849 121.875 400.773 122.749C400.696 123.623 399.925 124.332 399.051 124.332Z" fill="white"/>
<path d="M396.54 130.166H368.873C367.999 130.166 367.352 129.457 367.428 128.583C367.505 127.709 368.275 127 369.15 127H396.817C397.691 127 398.338 127.709 398.262 128.583C398.186 129.458 397.415 130.166 396.54 130.166Z" fill="white"/>
<path d="M393.03 136H368.363C367.488 136 366.842 135.291 366.918 134.417C366.995 133.543 367.765 132.834 368.64 132.834H393.307C394.181 132.834 394.828 133.543 394.752 134.417C394.675 135.291 393.904 136 393.03 136Z" fill="white"/>
<path d="M395.52 141.832H367.853C366.979 141.832 366.332 141.123 366.408 140.249C366.484 139.375 367.255 138.666 368.13 138.666H395.797C396.671 138.666 397.318 139.375 397.242 140.249C397.165 141.123 396.394 141.832 395.52 141.832Z" fill="white"/>
<path d="M316.985 147.331H210.146C206.626 147.331 204.022 144.477 204.33 140.957L210.268 73.083C210.576 69.563 213.679 66.709 217.199 66.709H324.037C327.557 66.709 330.161 69.563 329.853 73.083L323.915 140.957C323.608 144.477 320.505 147.331 316.985 147.331Z" fill="#407BFF"/>
<path opacity="0.7" d="M316.985 147.331H210.146C206.626 147.331 204.022 144.477 204.33 140.957L210.268 73.083C210.576 69.563 213.679 66.709 217.199 66.709H324.037C327.557 66.709 330.161 69.563 329.853 73.083L323.915 140.957C323.608 144.477 320.505 147.331 316.985 147.331Z" fill="white"/>
<path d="M327.612 98.7165C325.537 91.2495 322.272 83.7695 317.511 83.7695C308.525 83.7695 304.138 97.8465 299.494 112.75C295.414 125.846 291.194 139.387 284.61 139.387C276.258 139.387 273.971 122.637 271.758 106.438C269.279 88.2875 266.936 71.1445 256.183 71.1445C245.429 71.1445 240.087 88.2875 234.432 106.438C229.385 122.637 224.166 139.387 215.815 139.387C211.909 139.387 208.277 127.854 206.375 117.588L205.498 127.608C207.575 135.019 210.827 142.387 215.552 142.387C226.305 142.387 231.647 125.244 237.302 107.094C242.349 90.8945 247.568 74.1445 255.92 74.1445C264.271 74.1445 266.56 90.8945 268.772 107.094C271.251 125.244 273.594 142.387 284.347 142.387C293.334 142.387 297.72 128.31 302.364 113.406C306.444 100.31 310.663 86.7685 317.248 86.7685C321.183 86.7685 324.84 98.4745 326.73 108.797L327.612 98.7165Z" fill="#407BFF"/>
<path d="M260.911 72.1433C260.702 74.5303 258.598 76.4663 256.21 76.4663C253.823 76.4663 252.057 74.5313 252.266 72.1433C252.475 69.7563 254.579 67.8203 256.967 67.8203C259.355 67.8203 261.12 69.7563 260.911 72.1433Z" fill="#263238"/>
<path d="M258.012 73.6232C258.907 72.7661 258.996 71.4064 258.21 70.5862C257.425 69.7661 256.063 69.796 255.168 70.6531C254.273 71.5102 254.183 72.87 254.969 73.6901C255.754 74.5103 257.116 74.4803 258.012 73.6232Z" fill="#407BFF"/>
<path d="M265.68 53.8496H250.699C249.106 53.8496 247.702 55.1406 247.562 56.7336L247.323 59.4646C247.184 61.0576 248.362 62.3486 249.955 62.3486H254.908L256.399 64.5986C256.775 65.1656 257.625 65.1656 258.099 64.5986L259.984 62.3486H264.936C266.529 62.3486 267.933 61.0576 268.073 59.4646L268.312 56.7336C268.451 55.1406 267.272 53.8496 265.68 53.8496Z" fill="#407BFF"/>
<path d="M264.508 57.4746H250.883C250.469 57.4746 250.162 57.1386 250.199 56.7246C250.235 56.3106 250.6 55.9746 251.015 55.9746H264.64C265.054 55.9746 265.361 56.3106 265.324 56.7246C265.287 57.1386 264.922 57.4746 264.508 57.4746Z" fill="#263238"/>
<path d="M256.884 60.1875H250.646C250.232 60.1875 249.925 59.8515 249.962 59.4375C249.998 59.0235 250.363 58.6875 250.778 58.6875H257.016C257.43 58.6875 257.737 59.0235 257.7 59.4375C257.664 59.8515 257.299 60.1875 256.884 60.1875Z" fill="#263238"/>
<path d="M288.287 138.981C288.078 141.368 285.974 143.304 283.586 143.304C281.198 143.304 279.433 141.369 279.642 138.981C279.851 136.594 281.955 134.658 284.343 134.658C286.731 134.658 288.496 136.594 288.287 138.981Z" fill="#263238"/>
<path d="M286.112 138.98C286.008 140.166 284.962 141.128 283.776 141.128C282.59 141.128 281.712 140.166 281.816 138.98C281.92 137.793 282.966 136.832 284.152 136.832C285.338 136.832 286.216 137.793 286.112 138.98Z" fill="#407BFF"/>
<path d="M293.056 120.686H278.074C276.481 120.686 275.077 121.977 274.937 123.57L274.698 126.301C274.559 127.894 275.737 129.185 277.33 129.185H282.283L283.774 131.435C284.15 132.002 285 132.002 285.474 131.435L287.359 129.185H292.311C293.904 129.185 295.308 127.894 295.448 126.301L295.687 123.57C295.828 121.978 294.649 120.686 293.056 120.686Z" fill="#263238"/>
<path d="M291.885 124.311H278.26C277.846 124.311 277.539 123.975 277.576 123.561C277.612 123.147 277.977 122.811 278.392 122.811H292.017C292.431 122.811 292.738 123.147 292.701 123.561C292.664 123.975 292.299 124.311 291.885 124.311Z" fill="white"/>
<path d="M284.26 127.023H278.022C277.608 127.023 277.301 126.687 277.338 126.273C277.374 125.859 277.739 125.523 278.154 125.523H284.392C284.806 125.523 285.113 125.859 285.076 126.273C285.039 126.687 284.674 127.023 284.26 127.023Z" fill="white"/>
<path d="M321.759 85.0027C321.55 87.3897 319.446 89.3257 317.058 89.3257C314.67 89.3257 312.905 87.3907 313.114 85.0027C313.323 82.6157 315.427 80.6797 317.815 80.6797C320.202 80.6807 321.968 82.6157 321.759 85.0027Z" fill="#263238"/>
<path d="M319.585 85.0035C319.481 86.1895 318.435 87.1515 317.249 87.1515C316.062 87.1515 315.185 86.1895 315.289 85.0035C315.393 83.8175 316.439 82.8555 317.625 82.8555C318.811 82.8555 319.688 83.8175 319.585 85.0035Z" fill="#407BFF"/>
<path d="M326.528 66.709H311.547C309.954 66.709 308.55 68 308.41 69.593L308.171 72.324C308.032 73.917 309.21 75.208 310.803 75.208H315.756L317.247 77.458C317.622 78.025 318.473 78.025 318.947 77.458L320.832 75.208H325.784C327.377 75.208 328.781 73.917 328.921 72.324L329.16 69.593C329.299 68 328.121 66.709 326.528 66.709Z" fill="#407BFF"/>
<path d="M325.356 70.334H311.731C311.317 70.334 311.01 69.998 311.047 69.584C311.083 69.17 311.448 68.834 311.863 68.834H325.488C325.902 68.834 326.209 69.17 326.172 69.584C326.136 69.998 325.77 70.334 325.356 70.334Z" fill="#263238"/>
<path d="M317.733 73.0469H311.495C311.081 73.0469 310.774 72.7109 310.811 72.2969C310.847 71.8829 311.212 71.5469 311.627 71.5469H317.865C318.279 71.5469 318.586 71.8829 318.549 72.2969C318.512 72.7109 318.147 73.0469 317.733 73.0469Z" fill="#263238"/>
<path d="M221.244 139.475C221.035 141.862 218.931 143.798 216.543 143.798C214.155 143.798 212.39 141.863 212.598 139.475C212.807 137.088 214.912 135.152 217.299 135.152C219.686 135.152 221.453 137.088 221.244 139.475Z" fill="#263238"/>
<path d="M219.07 139.474C218.966 140.66 217.92 141.622 216.734 141.622C215.547 141.622 214.67 140.66 214.774 139.474C214.878 138.288 215.924 137.326 217.11 137.326C218.296 137.326 219.174 138.288 219.07 139.474Z" fill="#407BFF"/>
<path d="M226.013 121.18H211.032C209.439 121.18 208.035 122.471 207.895 124.064L207.656 126.795C207.517 128.388 208.695 129.679 210.288 129.679H215.241L216.732 131.929C217.108 132.496 217.958 132.496 218.432 131.929L220.317 129.679H225.269C226.862 129.679 228.266 128.388 228.406 126.795L228.645 124.064C228.784 122.472 227.606 121.18 226.013 121.18Z" fill="#263238"/>
<path d="M224.841 124.805H211.216C210.802 124.805 210.495 124.469 210.532 124.055C210.568 123.641 210.933 123.305 211.348 123.305H224.973C225.387 123.305 225.694 123.641 225.657 124.055C225.621 124.47 225.256 124.805 224.841 124.805Z" fill="white"/>
<path d="M217.218 127.518H210.979C210.565 127.518 210.259 127.182 210.296 126.768C210.332 126.354 210.696 126.018 211.111 126.018H217.35C217.764 126.018 218.07 126.354 218.033 126.768C217.996 127.182 217.632 127.518 217.218 127.518Z" fill="white"/>
<path d="M148.442 122.468L145.558 127.494L142.732 132.627C140.871 136.056 139.093 139.513 137.47 142.987C136.662 144.729 135.893 146.463 135.192 148.206L135.062 148.521C135.051 148.546 135.037 148.571 135.02 148.596C134.975 148.647 134.959 148.691 134.935 148.734C134.88 148.822 134.846 148.907 134.799 149.021C134.724 149.246 134.753 149.631 134.919 150.142C135.237 151.18 136.176 152.533 137.328 153.793C138.457 155.061 139.918 156.357 141.232 157.494L138.889 162.487C137.698 162.147 136.707 161.804 135.657 161.345C134.618 160.907 133.611 160.377 132.604 159.779C130.617 158.552 128.621 157.035 126.968 154.552C126.164 153.309 125.476 151.771 125.205 149.99C125.082 149.103 125.038 148.176 125.152 147.272C125.202 146.818 125.269 146.366 125.381 145.939L125.544 145.289L125.668 144.894C126.311 142.85 126.977 140.826 127.757 138.875C129.277 134.95 130.989 131.157 132.858 127.465C133.791 125.618 134.758 123.793 135.778 121.996C136.803 120.184 137.801 118.435 138.974 116.609L148.442 122.468Z" fill="#FFC3BD"/>
<path d="M138.722 156.93L143.977 155.564L144.278 164.047C144.278 164.047 140.168 164.658 137.651 162.143L138.722 156.93Z" fill="#FFC3BD"/>
<path d="M151.422 154.135L150.237 161.582L144.278 164.048L143.977 155.565L151.422 154.135Z" fill="#FFC3BD"/>
<path d="M173.156 82.4914C173.274 83.0724 173.677 83.4804 174.057 83.4034C174.437 83.3264 174.649 82.7933 174.531 82.2123C174.413 81.6313 174.01 81.2233 173.63 81.3003C173.251 81.3773 173.038 81.9114 173.156 82.4914Z" fill="#263238"/>
<path d="M173.625 83.4922C173.625 83.4922 175.626 86.5732 177.408 87.8942C176.576 89.0622 174.74 88.9792 174.74 88.9792L173.625 83.4922Z" fill="#ED847E"/>
<path d="M170.375 79.7009C170.29 79.7009 170.205 79.6699 170.139 79.6089C169.998 79.4789 169.989 79.2579 170.12 79.1169C171.427 77.7029 173.012 77.9539 173.08 77.9659C173.27 77.9979 173.397 78.1779 173.365 78.3669C173.332 78.5559 173.151 78.6829 172.965 78.6519C172.913 78.6439 171.673 78.4619 170.63 79.5899C170.562 79.6629 170.469 79.7009 170.375 79.7009Z" fill="#263238"/>
<path d="M156.615 90.6602C157.669 96.0342 158.72 105.882 154.96 109.468C154.96 109.468 156.429 114.92 166.416 114.92C177.397 114.92 171.664 109.469 171.664 109.469C165.671 108.038 165.826 103.591 166.869 99.4162L156.615 90.6602Z" fill="#FFC3BD"/>
<path d="M152.794 110.463C151.991 108.97 151.107 107.261 152.936 106.726C154.948 106.137 167.872 105.045 171.669 106.15C170.502 108.225 172.477 110.775 172.477 110.775L152.794 110.463Z" fill="#263238"/>
<path d="M120.261 361.015C120.998 361.175 121.735 361.216 122.09 360.915C122.239 360.788 122.389 360.545 122.258 360.107C122.19 359.877 122.039 359.704 121.81 359.595C120.818 359.121 118.538 360.05 118.441 360.09C118.378 360.116 118.336 360.177 118.334 360.246C118.332 360.315 118.37 360.378 118.432 360.408C118.782 360.576 119.521 360.855 120.261 361.015ZM121.457 359.841C121.532 359.857 121.601 359.88 121.661 359.909C121.799 359.975 121.886 360.072 121.926 360.206C122.019 360.519 121.903 360.618 121.865 360.65C121.47 360.986 120.003 360.676 118.97 360.263C119.67 360.016 120.804 359.7 121.457 359.841Z" fill="#407BFF"/>
<path d="M118.472 360.421C118.5 360.427 118.529 360.426 118.558 360.418C119.388 360.175 121.165 358.913 121.187 358.08C121.191 357.929 121.138 357.655 120.742 357.517C120.485 357.427 120.226 357.449 119.971 357.579C118.989 358.08 118.369 360.115 118.343 360.201C118.325 360.262 118.341 360.329 118.386 360.374C118.41 360.398 118.44 360.414 118.472 360.421ZM120.551 357.824C120.576 357.829 120.602 357.837 120.627 357.846C120.842 357.921 120.839 358.026 120.838 358.071C120.826 358.563 119.653 359.554 118.793 359.955C119.008 359.368 119.499 358.21 120.128 357.889C120.272 357.815 120.411 357.793 120.551 357.824Z" fill="#407BFF"/>
<path d="M174.5 362.249C175.443 362.249 176.354 362.119 176.659 361.696C176.766 361.548 176.85 361.295 176.644 360.936C176.529 360.734 176.343 360.597 176.093 360.529C174.87 360.197 172.303 361.66 172.194 361.722C172.131 361.758 172.097 361.829 172.109 361.901C172.121 361.973 172.176 362.029 172.247 362.044C172.715 362.136 173.622 362.249 174.5 362.249ZM175.665 360.824C175.788 360.824 175.901 360.836 176.001 360.864C176.162 360.908 176.273 360.987 176.342 361.107C176.465 361.323 176.42 361.43 176.376 361.492C176.034 361.967 174.177 361.978 172.812 361.785C173.493 361.435 174.807 360.824 175.665 360.824Z" fill="#407BFF"/>
<path d="M172.281 362.046C172.305 362.046 172.329 362.041 172.352 362.031C173.239 361.633 174.995 360.044 174.861 359.214C174.829 359.019 174.691 358.776 174.213 358.728C173.856 358.692 173.533 358.793 173.248 359.026C172.314 359.794 172.116 361.772 172.107 361.856C172.101 361.917 172.128 361.978 172.179 362.014C172.21 362.035 172.245 362.046 172.281 362.046ZM174.073 359.068C174.107 359.068 174.142 359.07 174.177 359.073C174.49 359.105 174.51 359.228 174.516 359.269C174.597 359.768 173.403 361.016 172.498 361.56C172.592 360.982 172.854 359.798 173.468 359.295C173.654 359.142 173.853 359.068 174.073 359.068Z" fill="#407BFF"/>
<path d="M164.203 361.872H171.549L172.281 344.859H164.934L164.203 361.872Z" fill="#FFC3BD"/>
<path d="M110.283 358.471L117.463 360.025L124.672 344.179L117.492 342.625L110.283 358.471Z" fill="#FFC3BD"/>
<path d="M118.153 359.304L110.087 357.558C109.793 357.494 109.495 357.643 109.37 357.916L106.57 363.991C106.28 364.621 106.664 365.36 107.345 365.495C110.172 366.056 111.575 366.187 115.123 366.955C117.305 367.428 122.232 368.628 125.246 369.28C128.194 369.918 129.299 367.038 128.123 366.501C122.853 364.093 120.651 361.973 119.225 359.998C118.966 359.642 118.582 359.397 118.153 359.304Z" fill="#263238"/>
<path d="M171.501 361.021H163.478C163.178 361.021 162.918 361.23 162.852 361.523L161.401 368.053C161.251 368.73 161.765 369.372 162.458 369.36C165.352 369.311 169.534 369.141 173.171 369.141C177.424 369.141 181.097 369.373 186.085 369.373C189.101 369.373 189.938 366.324 188.675 366.048C182.928 364.791 178.236 364.656 173.269 361.594C172.731 361.261 172.135 361.021 171.501 361.021Z" fill="#263238"/>
<path d="M141.807 111.128C134.922 112.706 129.245 130.284 129.245 130.284L143.072 140.823C143.072 140.823 148.147 136.038 150.405 127.246C152.771 118.033 148.847 109.514 141.807 111.128Z" fill="#407BFF"/>
<path opacity="0.2" d="M147.708 124.055C143.968 127.755 142.748 134.495 142.458 140.355L143.068 140.825C143.068 140.825 148.148 136.035 150.408 127.245C150.548 126.695 150.668 126.145 150.768 125.605L147.708 124.055Z" fill="black"/>
<path d="M182.963 111.508C182.963 111.508 188.602 117.031 186.473 146.377C185.91 154.14 182.943 163.57 181.398 175.005C169.559 175.005 152.866 175.005 147.105 175.005C146.834 168.973 147.624 139.549 141.807 111.129C141.807 111.129 148.542 109.777 154.961 109.468C159.982 109.226 167.251 109.066 171.664 109.469C177.483 110 182.963 111.508 182.963 111.508Z" fill="#263238"/>
<path opacity="0.6" d="M186.937 136.082C186.291 131.818 185.604 128.096 184.906 124.884L184.691 124.752L173.926 129.264C174.445 135.946 181.523 142.705 186.444 146.645C186.451 146.557 186.466 146.463 186.472 146.376C186.751 142.551 186.894 139.139 186.937 136.082Z" fill="black"/>
<path opacity="0.2" d="M172.279 344.863L171.903 353.632H164.554L164.93 344.863H172.279Z" fill="black"/>
<path opacity="0.2" d="M117.488 342.629L124.671 344.184L120.952 352.351L113.769 350.796L117.488 342.629Z" fill="black"/>
<path d="M153.539 85.1991C155.426 92.2411 156.173 96.4591 160.519 99.3871C167.056 103.792 175.195 98.7371 175.45 91.2721C175.679 84.5531 172.554 74.1651 164.997 72.7461C157.551 71.3491 151.651 78.1571 153.539 85.1991Z" fill="#FFC3BD"/>
<path d="M169.46 175.004C169.46 175.004 161.123 231.146 156.546 252.179C151.534 275.212 124.658 351.415 124.658 351.415L111.507 348.568C111.507 348.568 130.3 286.467 134.507 254.267C136.381 239.921 136.647 215.552 139.059 197.613C140.806 184.623 147.105 175.004 147.105 175.004H169.46Z" fill="#263238"/>
<path d="M127.807 347.026C127.863 347.038 125.356 351.782 125.356 351.782L110.56 348.579L111.807 344.131L127.807 347.026Z" fill="#407BFF"/>
<path opacity="0.6" d="M164.191 195.009C154.551 196.899 155.571 232.849 156.731 251.339C159.511 238.269 163.581 213.119 166.361 195.269C165.721 194.949 165.001 194.849 164.191 195.009Z" fill="black"/>
<path d="M181.398 175.004C181.398 175.004 184.41 229.931 183.611 252.334C182.78 275.636 174.641 351.935 174.641 351.935H162.196C162.196 351.935 161.739 276.998 161.186 254.113C160.582 229.164 157.57 175.005 157.57 175.005H181.398V175.004Z" fill="#263238"/>
<path d="M177.036 346.979C177.093 346.979 176.334 352.146 176.334 352.146H161.196L160.787 347.535L177.036 346.979Z" fill="#407BFF"/>
<path d="M186.587 118.209C187.715 119.968 189.003 121.943 190.289 123.769C191.6 125.611 192.909 127.451 194.289 129.22C197.022 132.762 199.92 136.165 203.041 138.989C203.814 139.704 204.605 140.366 205.404 140.977L206.004 141.429C205.95 141.397 205.759 141.333 205.652 141.309C205.391 141.259 205.264 141.304 205.334 141.34C205.486 141.418 206.216 141.292 206.98 140.961C207.755 140.632 208.636 140.186 209.509 139.648C213.025 137.468 216.658 134.423 220.072 131.463L224.363 134.929C221.701 139.217 218.771 143.097 214.746 146.662C213.723 147.541 212.628 148.414 211.308 149.191C209.982 149.955 208.475 150.739 206.263 151.064C205.158 151.208 203.821 151.18 202.439 150.74C201.764 150.541 201.053 150.184 200.496 149.842L199.629 149.293C198.484 148.552 197.395 147.771 196.361 146.956C192.226 143.68 188.774 139.986 185.59 136.144C184.023 134.205 182.503 132.244 181.096 130.208C179.671 128.15 178.332 126.182 177.007 123.89L186.587 118.209Z" fill="#FFC3BD"/>
<path d="M172.156 122.618C169.806 132.467 187.627 142.112 187.627 142.112L199.202 128.55C199.202 128.55 193.932 120.564 187.376 114.272C179.279 106.5 173.945 115.12 172.156 122.618Z" fill="#407BFF"/>
<path d="M218.907 133.509L221.639 124.736L228.829 128.319C228.829 128.319 227.781 134.72 222.548 135.83L218.907 133.509Z" fill="#FFC3BD"/>
<path d="M224.522 122.305L231.007 124.09L228.828 128.32L221.639 124.738L224.522 122.305Z" fill="#FFC3BD"/>
<path d="M160.954 95.5824C160.954 95.5824 166.972 94.5824 168.546 87.9154C168.546 87.9154 166.974 83.7014 170.027 80.8324C173.08 77.9634 171.555 74.8124 168.546 74.2394C165.537 73.6664 160.954 77.2744 160.954 77.2744L157.287 83.8334L158.78 90.4524L160.954 95.5824Z" fill="#263238"/>
<path opacity="0.3" d="M160.954 95.5824C160.954 95.5824 166.972 94.5824 168.546 87.9154C168.546 87.9154 166.974 83.7014 170.027 80.8324C173.08 77.9634 171.555 74.8124 168.546 74.2394C165.537 73.6664 160.954 77.2744 160.954 77.2744L157.287 83.8334L158.78 90.4524L160.954 95.5824Z" fill="white"/>
<path d="M165.521 85.4929C166 87.3419 167.215 88.9309 168.486 89.8769C170.398 91.2989 171.826 89.8989 171.69 87.7359C171.568 85.7889 170.426 82.7019 168.317 82.1249C166.238 81.5559 164.973 83.3789 165.521 85.4929Z" fill="#FFC3BD"/>
<path d="M161.984 93.6192C160.193 89.3502 156.893 78.2962 168.546 74.2402C168.546 74.2402 167.703 63.5832 173.37 67.9172C173.37 67.9172 167.954 61.0002 167.204 68.0842C167.204 68.0842 165.871 65.6672 167.871 64.0842C167.871 64.0842 157.204 60.5012 157.454 68.5842C157.454 68.5842 156.371 65.7932 158.204 63.5642C158.204 63.5642 155.884 63.4182 154.961 67.0842C154.038 70.7512 145.037 69.9962 145.829 78.3322C145.829 78.3322 137.871 88.3872 157.038 96.9862C157.038 96.9862 154.515 98.5422 155.955 101.029C155.955 101.029 156.622 98.3042 159.372 96.9862C159.372 96.9862 158.122 99.8352 160.789 100.668C160.789 100.668 159.826 98.1992 161.584 96.2822C162.234 95.5692 162.357 94.5102 161.984 93.6192Z" fill="#263238"/>
<path opacity="0.1" d="M168.87 97.9993C166.327 98.1153 166.48 100.601 166.517 100.975C168.71 100.779 170.772 99.7973 172.361 98.2533C171.441 98.4333 170.458 97.9273 168.87 97.9993Z" fill="black"/>
<path d="M167.579 73.1666C167.579 73.1666 168.888 68.3436 171.359 69.2966C173.829 70.2496 172.078 74.1666 173.37 75.9996C173.37 75.9996 171.515 75.3526 171.151 73.0716C170.787 70.7916 168.546 74.2396 168.546 74.2396L167.579 73.1666Z" fill="#263238"/>
<path d="M168.546 92.5115L170.928 89.7815L170.018 88.9805H167.074L166.164 89.7815L168.546 92.5115Z" fill="#407BFF"/>
<path opacity="0.2" d="M168.219 88.9805H167.073L166.163 89.7815L168.546 92.5115L167.309 89.7815L168.219 88.9805Z" fill="white"/>
</svg>
