<svg width="500" height="400" viewBox="0 0 500 400" fill="none" xmlns="http://www.w3.org/2000/svg">
<path d="M449.901 348.492H416.779V348.742H449.901V348.492Z" fill="#EBEBEB"/>
<path d="M331.22 351.207H322.527V351.457H331.22V351.207Z" fill="#EBEBEB"/>
<path d="M415.778 339.207H396.586V339.457H415.778V339.207Z" fill="#EBEBEB"/>
<path d="M95.652 340.887H52.459V341.137H95.652V340.887Z" fill="#EBEBEB"/>
<path d="M110.889 340.887H104.556V341.137H110.889V340.887Z" fill="#EBEBEB"/>
<path d="M225.147 345.109H131.471V345.359H225.147V345.109Z" fill="#EBEBEB"/>
<path d="M237.014 287.799H43.915C40.768 287.799 38.207 285.238 38.207 282.091V10.6592C38.207 7.51217 40.768 4.95117 43.915 4.95117H237.014C240.16 4.95117 242.721 7.51217 242.721 10.6592V282.091C242.721 285.238 240.16 287.799 237.014 287.799ZM43.915 5.20217C40.905 5.20217 38.457 7.65017 38.457 10.6602V282.092C38.457 285.102 40.905 287.55 43.915 287.55H237.014C240.023 287.55 242.471 285.102 242.471 282.092V10.6592C242.471 7.65017 240.023 5.20117 237.014 5.20117L43.915 5.20217Z" fill="#EBEBEB"/>
<path d="M453.31 287.799H260.212C257.065 287.799 254.505 285.238 254.505 282.091V10.6592C254.505 7.51217 257.066 4.95117 260.212 4.95117H453.31C456.458 4.95117 459.018 7.51217 459.018 10.6592V282.091C459.019 285.238 456.458 287.799 453.31 287.799ZM260.212 5.20217C257.203 5.20217 254.755 7.65017 254.755 10.6602V282.092C254.755 285.102 257.203 287.55 260.212 287.55H453.31C456.32 287.55 458.768 285.102 458.768 282.092V10.6592C458.768 7.65017 456.32 5.20117 453.31 5.20117L260.212 5.20217Z" fill="#EBEBEB"/>
<path d="M500 332.396H0V332.646H500V332.396Z" fill="#EBEBEB"/>
<path d="M164.189 333.563H160.336C159.681 333.563 159.15 333.032 159.15 332.377V242.01H165.375V332.377C165.375 333.032 164.844 333.563 164.189 333.563Z" fill="#F0F0F0"/>
<path d="M351.854 233.869H297.897V242.009H351.854V233.869Z" fill="#E6E6E6"/>
<path d="M202.756 333.563H198.903C198.248 333.563 197.717 333.032 197.717 332.377V242.01H203.942V332.377C203.941 333.032 203.411 333.563 202.756 333.563Z" fill="#E6E6E6"/>
<path d="M347.069 333.563H343.216C342.561 333.563 342.03 333.032 342.03 332.377V242.01H348.255V332.377C348.255 333.032 347.724 333.563 347.069 333.563Z" fill="#E6E6E6"/>
<path d="M313.287 233.869H155.552V242.009H313.287V233.869Z" fill="#F5F5F5"/>
<path d="M308.503 333.563H304.65C303.995 333.563 303.464 333.032 303.464 332.377V242.01H309.689V332.377C309.688 333.032 309.158 333.563 308.503 333.563Z" fill="#F0F0F0"/>
<path d="M406.267 332.303H408.904V167.026H406.267V332.303Z" fill="#EBEBEB"/>
<path d="M437.184 149.921C437.184 158.357 431.196 165.714 422.31 169.637H392.86C383.975 165.714 377.986 158.357 377.986 149.921C377.986 141.485 383.974 134.128 392.86 130.205H422.311C431.196 134.127 437.184 141.485 437.184 149.921Z" fill="#F0F0F0"/>
<path d="M393.239 168.99C385.63 165.415 378.737 158.913 378.737 149.921C378.737 140.948 385.637 134.424 393.239 130.852C394.112 130.442 393.351 129.148 392.482 129.557C384.397 133.355 377.237 140.425 377.237 149.921C377.237 159.421 384.395 166.485 392.482 170.285C393.35 170.694 394.113 169.401 393.239 168.99Z" fill="#E0E0E0"/>
<path d="M399.693 129.675C389.258 139.64 389.257 160.202 399.693 170.168C400.391 170.835 401.453 169.776 400.754 169.107C390.908 159.704 390.905 140.14 400.754 130.735C401.453 130.068 400.391 129.008 399.693 129.675Z" fill="#E0E0E0"/>
<path d="M406.835 130.205C406.835 143.349 406.835 156.493 406.835 169.637C406.835 170.602 408.335 170.604 408.335 169.637C408.335 156.493 408.335 143.349 408.335 130.205C408.335 129.24 406.835 129.239 406.835 130.205Z" fill="#E0E0E0"/>
<path d="M414.418 130.736C424.264 140.139 424.267 159.703 414.418 169.108C413.718 169.776 414.78 170.836 415.479 170.169C425.914 160.204 425.915 139.642 415.479 129.676C414.78 129.008 413.718 130.067 414.418 130.736Z" fill="#E0E0E0"/>
<path d="M421.932 130.852C429.541 134.427 436.434 140.929 436.434 149.921C436.434 158.894 429.534 165.418 421.932 168.99C421.059 169.4 421.82 170.694 422.689 170.285C430.774 166.487 437.934 159.417 437.934 149.921C437.934 140.421 430.776 133.357 422.689 129.557C421.821 129.149 421.058 130.441 421.932 130.852Z" fill="#E0E0E0"/>
<path d="M389.036 333.562H426.136C426.136 331.061 424.108 329.033 421.607 329.033H393.565C391.063 329.033 389.036 331.061 389.036 333.562Z" fill="#EBEBEB"/>
<path d="M114.183 260.099C114.267 260.22 113.637 260.903 115.863 260.845C121.347 260.703 130.993 259.685 134.29 254.469C138.998 247.022 127.084 248.476 127.984 244.483C128.884 240.49 141.946 242.825 144.078 237.067C146.211 231.31 136.94 233.028 137.18 230.123C137.42 227.218 147.474 230.286 150.307 224.141C153.14 217.996 144.789 221.742 146.012 219.193C147.234 216.644 157.42 205.689 152.863 203.705C148.306 201.721 138.806 213.082 135.514 214.45C132.222 215.818 130.74 205.401 126.547 209.202C122.354 213.003 126.321 228.612 121.288 230.921C117.539 232.641 119.258 226.836 114.525 227.372C108.096 228.101 107.463 250.403 114.183 260.099Z" fill="#EBEBEB"/>
<path d="M134.806 229.861C132.666 229.776 131.049 230.013 130.035 230.24C132.277 227.696 133.818 226.44 133.873 226.397C134.047 226.259 134.076 226.006 133.939 225.832C133.802 225.658 133.549 225.629 133.375 225.766C133.332 225.8 129.783 228.651 125.551 234.565C125.124 224.153 130.502 215.765 130.558 215.679C130.649 215.54 130.609 215.353 130.47 215.262C130.332 215.17 130.144 215.21 130.053 215.349C129.994 215.439 124.253 224.39 124.993 235.353C124.312 236.335 123.618 237.389 122.921 238.527C120.906 241.815 118.696 246.076 116.719 251.297C116.014 249.542 114.476 244.887 115.051 238.726C115.067 238.56 114.945 238.414 114.779 238.398C114.61 238.389 114.466 238.505 114.451 238.67C113.786 245.8 115.905 250.995 116.408 252.109C113.749 259.363 111.57 268.427 110.974 279.348C110.962 279.57 111.132 279.759 111.353 279.772C111.37 279.773 111.387 279.773 111.403 279.772C111.602 279.758 111.765 279.598 111.776 279.393C112.566 264.932 116.14 253.673 120.189 245.314C121.05 244.537 123.553 242.577 127.006 242.472C127.164 242.454 127.303 242.327 127.297 242.16C127.292 241.994 127.153 241.863 126.986 241.869C124.255 241.961 122.12 243.107 120.822 244.034C123.763 238.243 126.883 233.949 129.338 231.05C130.041 230.833 131.946 230.351 134.783 230.465C134.948 230.464 135.09 230.343 135.096 230.175C135.102 230.008 134.973 229.868 134.806 229.861Z" fill="#E0E0E0"/>
<path d="M99.2522 263.779C93.0642 263.896 82.4932 258.149 78.3432 252.558C74.1322 246.884 85.9782 250.404 84.7612 245.949C83.5452 241.494 68.9402 244.786 66.2452 238.405C63.5502 232.023 74.0872 233.49 73.6692 230.229C73.2512 226.967 62.3342 227.63 58.8302 220.847C55.3262 214.064 64.9282 217.864 63.4212 215.052C61.9142 212.241 49.8782 200.408 54.9152 197.941C59.9522 195.474 71.2342 207.799 75.0152 209.174C78.7952 210.55 79.6792 202.037 84.5972 206.109C89.5162 210.181 85.8342 227.976 91.6242 230.324C95.9372 232.073 94.1022 223.925 99.0672 225.981C107.758 229.58 101.765 263.731 99.2522 263.779Z" fill="#E6E6E6"/>
<g opacity="0.3">
<path d="M99.2522 263.779C93.0642 263.896 82.4932 258.149 78.3432 252.558C74.1322 246.884 85.9782 250.404 84.7612 245.949C83.5452 241.494 68.9402 244.786 66.2452 238.405C63.5502 232.023 74.0872 233.49 73.6692 230.229C73.2512 226.967 62.3342 227.63 58.8302 220.847C55.3262 214.064 64.9282 217.864 63.4212 215.052C61.9142 212.241 49.8782 200.408 54.9152 197.941C59.9522 195.474 71.2342 207.799 75.0152 209.174C78.7952 210.55 79.6792 202.037 84.5972 206.109C89.5162 210.181 85.8342 227.976 91.6242 230.324C95.9372 232.073 94.1022 223.925 99.0672 225.981C107.758 229.58 101.765 263.731 99.2522 263.779Z" fill="#E6E6E6"/>
</g>
<path d="M97.2082 256.351C97.2972 256.316 97.3792 256.262 97.4272 256.17C97.5722 255.895 100.963 249.333 100.203 239.579C100.185 239.352 99.9932 239.184 99.7582 239.199C99.5302 239.217 99.3602 239.416 99.3782 239.644C100.02 247.879 97.5622 253.907 96.8732 255.412C94.1022 247.891 90.7822 241.201 87.4492 235.475C88.5441 222.186 81.7342 211.304 81.6652 211.196C81.5422 211.003 81.2872 210.946 81.0942 211.069C80.9012 211.192 80.8442 211.447 80.9672 211.64C81.0332 211.743 87.2872 221.748 86.7042 234.194C78.7722 220.908 71.0302 213.19 70.8752 213.038C70.6582 212.826 70.3082 212.827 70.0952 213.047C69.8822 213.264 69.8851 213.614 70.1031 213.827C70.2331 213.954 75.7382 219.454 82.1822 229.099C78.4062 227.695 74.3102 226.965 70.4822 227.038C70.2532 227.042 70.0721 227.231 70.0761 227.461C70.0801 227.686 70.2652 227.866 70.4902 227.866C70.4932 227.866 70.4952 227.866 70.4982 227.866C74.5972 227.793 79.0081 228.65 82.9781 230.296C85.1941 233.693 87.4952 237.575 89.7122 241.877C87.5851 240.439 83.4522 238.447 78.1672 239.844C77.9462 239.902 77.8142 240.129 77.8722 240.349C77.9312 240.57 78.1572 240.706 78.3782 240.643C85.0822 238.875 89.8082 242.881 90.5812 243.594C96.6492 255.814 101.884 271.264 102.577 288.967C102.588 289.265 102.833 289.497 103.128 289.497C103.136 289.497 103.143 289.497 103.15 289.497C103.454 289.485 103.691 289.229 103.68 288.924C103.207 276.945 100.67 265.994 97.2082 256.351Z" fill="#F5F5F5"/>
<path d="M117.653 333.563C122.448 319.9 125.599 300.158 125.599 291.505C125.599 284.191 123.336 277.627 119.744 273.031H95.187C91.595 277.627 89.332 284.191 89.332 291.505C89.332 300.158 92.482 319.9 97.277 333.563H117.653Z" fill="#E6E6E6"/>
<path d="M105.284 260.733C105.362 260.803 105.039 261.381 106.572 260.971C110.348 259.96 116.862 257.649 118.278 253.486C120.301 247.542 112.288 250.533 112.247 247.617C112.206 244.701 121.644 244.144 122.164 239.8C122.683 235.456 116.546 238.189 116.229 236.137C115.912 234.085 123.388 234.537 124.328 229.808C125.268 225.079 120.106 229.064 120.529 227.095C120.952 225.126 126.186 215.84 122.698 215.224C119.21 214.608 114.519 224.06 112.466 225.556C110.413 227.052 107.652 220.081 105.379 223.412C103.106 226.743 108.453 236.898 105.35 239.335C103.039 241.151 103.263 236.842 100.074 238.002C95.7404 239.576 99.0134 255.133 105.284 260.733Z" fill="#F5F5F5"/>
<path d="M114.54 236.349C113.043 236.646 111.962 237.08 111.297 237.406C112.427 235.27 113.286 234.144 113.317 234.104C113.414 233.979 113.393 233.8 113.268 233.702C113.144 233.604 112.964 233.626 112.866 233.75C112.842 233.781 110.857 236.347 108.909 241.148C106.88 234.005 109.21 227.298 109.235 227.229C109.275 227.117 109.216 226.994 109.105 226.954C108.994 226.913 108.87 226.972 108.831 227.084C108.805 227.156 106.317 234.314 108.654 241.786C108.346 242.579 108.041 243.426 107.747 244.33C106.898 246.943 106.076 250.264 105.575 254.21C104.794 253.112 102.954 250.142 102.327 245.777C102.31 245.66 102.201 245.578 102.084 245.595C101.965 245.617 101.885 245.721 101.902 245.838C102.628 250.889 104.961 254.135 105.495 254.824C104.86 260.292 104.859 266.935 106.264 274.602C106.293 274.758 106.442 274.861 106.598 274.832C106.61 274.83 106.621 274.827 106.633 274.823C106.769 274.78 106.855 274.642 106.828 274.499C104.969 264.348 105.571 255.952 106.985 249.486C107.452 248.804 108.86 247.03 111.235 246.382C111.342 246.343 111.417 246.232 111.385 246.118C111.354 246.004 111.236 245.936 111.121 245.968C109.244 246.486 107.956 247.635 107.21 248.494C108.284 243.992 109.731 240.498 110.95 238.081C111.401 237.813 112.641 237.163 114.625 236.77C114.739 236.742 114.817 236.634 114.794 236.517C114.77 236.402 114.657 236.327 114.54 236.349Z" fill="#E0E0E0"/>
<path d="M237.19 247.25H172.324V333.562H237.19V247.25Z" fill="#F5F5F5"/>
<path d="M249.564 247.25H237.19V333.562H249.564V247.25Z" fill="#E6E6E6"/>
<path d="M232.979 253.654H176.867V274.615H232.979V253.654Z" fill="#FAFAFA"/>
<path d="M197.607 253.654L197.852 256.448C197.933 257.37 198.705 258.077 199.63 258.077H210.218C211.143 258.077 211.915 257.37 211.996 256.448L212.241 253.654H197.607Z" fill="#EBEBEB"/>
<path d="M232.979 276.904H176.867V297.865H232.979V276.904Z" fill="#FAFAFA"/>
<path d="M197.607 276.904L197.852 279.698C197.933 280.62 198.705 281.327 199.63 281.327H210.218C211.143 281.327 211.915 280.62 211.996 279.698L212.241 276.904H197.607Z" fill="#EBEBEB"/>
<path d="M232.979 300.154H176.867V321.115H232.979V300.154Z" fill="#FAFAFA"/>
<path d="M197.607 300.154L197.852 302.948C197.933 303.87 198.705 304.577 199.63 304.577H210.218C211.143 304.577 211.915 303.87 211.996 302.948L212.241 300.154H197.607Z" fill="#EBEBEB"/>
<path d="M245.178 373.714C352.26 373.714 439.067 368.645 439.067 362.391C439.067 356.138 352.26 351.068 245.178 351.068C138.096 351.068 51.2891 356.138 51.2891 362.391C51.2891 368.645 138.096 373.714 245.178 373.714Z" fill="#F5F5F5"/>
<path d="M380.673 231.527H124.101C121.958 231.527 120.221 229.79 120.221 227.647V40.3448C120.221 38.2018 121.958 36.4648 124.101 36.4648H380.674C382.817 36.4648 384.553 38.2018 384.553 40.3448V227.647C384.553 229.79 382.816 231.527 380.673 231.527Z" fill="#407BFF"/>
<path opacity="0.6" d="M380.673 231.527H124.101C121.958 231.527 120.221 229.79 120.221 227.647V40.3448C120.221 38.2018 121.958 36.4648 124.101 36.4648H380.674C382.817 36.4648 384.553 38.2018 384.553 40.3448V227.647C384.553 229.79 382.816 231.527 380.673 231.527Z" fill="white"/>
<path opacity="0.3" d="M171.728 36.4648H125.167C122.435 36.4648 120.221 38.6789 120.221 41.4109V226.581C120.221 229.313 122.435 231.527 125.167 231.527H171.728V36.4648Z" fill="white"/>
<path d="M379.607 36.4648H125.167C122.435 36.4648 120.221 38.6789 120.221 41.4109V54.3139H384.553V41.4109C384.553 38.6789 382.338 36.4648 379.607 36.4648Z" fill="#263238"/>
<path d="M128.857 42.7964C128.38 42.7964 127.993 42.4094 127.993 41.9324C127.993 41.4554 128.38 41.0684 128.857 41.0684H135.67C136.147 41.0684 136.534 41.4554 136.534 41.9324C136.534 42.4094 136.147 42.7964 135.67 42.7964H128.857Z" fill="white"/>
<path d="M128.857 46.2534C128.38 46.2534 127.993 45.8664 127.993 45.3894C127.993 44.9124 128.38 44.5254 128.857 44.5254H135.67C136.147 44.5254 136.534 44.9124 136.534 45.3894C136.534 45.8664 136.147 46.2534 135.67 46.2534H128.857Z" fill="white"/>
<path d="M128.857 49.7104C128.38 49.7104 127.993 49.3234 127.993 48.8464C127.993 48.3694 128.38 47.9824 128.857 47.9824H135.67C136.147 47.9824 136.534 48.3694 136.534 48.8464C136.534 49.3234 136.147 49.7104 135.67 49.7104H128.857Z" fill="white"/>
<path opacity="0.7" d="M180.828 67.9791V125.332C180.828 126.543 181.809 127.524 183.02 127.524H200.917C202.127 127.524 203.109 126.543 203.109 125.332V67.9791C203.109 66.7691 202.128 65.7871 200.917 65.7871H183.02C181.81 65.7871 180.828 66.7681 180.828 67.9791Z" fill="white"/>
<path opacity="0.4" d="M208.679 67.9791V125.332C208.679 126.543 209.66 127.524 210.871 127.524H228.768C229.979 127.524 230.96 126.543 230.96 125.332V67.9791C230.96 66.7691 229.979 65.7871 228.768 65.7871H210.871C209.661 65.7871 208.679 66.7681 208.679 67.9791Z" fill="white"/>
<path opacity="0.7" d="M236.53 67.9791V125.332C236.53 126.543 237.511 127.524 238.722 127.524H256.619C257.83 127.524 258.811 126.543 258.811 125.332V67.9791C258.811 66.7691 257.83 65.7871 256.619 65.7871H238.722C237.512 65.7871 236.53 66.7681 236.53 67.9791Z" fill="white"/>
<path opacity="0.4" d="M264.381 67.9791V125.332C264.381 126.543 265.362 127.524 266.573 127.524H284.47C285.681 127.524 286.662 126.543 286.662 125.332V67.9791C286.662 66.7691 285.681 65.7871 284.47 65.7871H266.573C265.363 65.7871 264.381 66.7681 264.381 67.9791Z" fill="white"/>
<path opacity="0.7" d="M292.231 67.9791V125.332C292.231 126.543 293.212 127.524 294.423 127.524H312.32C313.531 127.524 314.512 126.543 314.512 125.332V67.9791C314.512 66.7691 313.531 65.7871 312.32 65.7871H294.423C293.213 65.7871 292.231 66.7681 292.231 67.9791Z" fill="white"/>
<path opacity="0.4" d="M320.083 67.9791V125.332C320.083 126.543 321.064 127.524 322.275 127.524H340.172C341.382 127.524 342.364 126.543 342.364 125.332V67.9791C342.364 66.7691 341.383 65.7871 340.172 65.7871H322.275C321.065 65.7871 320.083 66.7681 320.083 67.9791Z" fill="white"/>
<path opacity="0.7" d="M347.934 67.9791V125.332C347.934 126.543 348.915 127.524 350.126 127.524H368.023C369.234 127.524 370.215 126.543 370.215 125.332V67.9791C370.215 66.7691 369.234 65.7871 368.023 65.7871H350.126C348.915 65.7871 347.934 66.7681 347.934 67.9791Z" fill="white"/>
<path d="M238.938 165.379H238.144V166.402H237.043V165.379H234.419V164.62L236.717 161.529H237.9L235.77 164.46H237.079V163.548H238.145V164.46H238.939L238.938 165.379Z" fill="black"/>
<path d="M242.45 163.77C242.777 164.044 242.941 164.411 242.941 164.87C242.941 165.168 242.867 165.438 242.718 165.681C242.569 165.925 242.343 166.12 242.04 166.266C241.736 166.412 241.361 166.485 240.915 166.485C240.571 166.485 240.234 166.44 239.902 166.349C239.57 166.259 239.288 166.13 239.056 165.962L239.502 165.099C239.687 165.238 239.901 165.346 240.143 165.423C240.384 165.5 240.632 165.538 240.887 165.538C241.17 165.538 241.393 165.483 241.556 165.371C241.718 165.26 241.8 165.104 241.8 164.904C241.8 164.695 241.715 164.537 241.545 164.431C241.376 164.324 241.083 164.27 240.665 164.27H239.418L239.669 161.527H242.642V162.432H240.609L240.532 163.358H240.929C241.616 163.359 242.123 163.496 242.45 163.77Z" fill="black"/>
<path d="M243.585 163.795C243.36 163.552 243.248 163.225 243.248 162.817C243.248 162.409 243.361 162.082 243.585 161.838C243.81 161.595 244.102 161.473 244.459 161.473C244.816 161.473 245.106 161.595 245.329 161.838C245.552 162.082 245.663 162.408 245.663 162.817C245.663 163.225 245.551 163.551 245.329 163.795C245.106 164.039 244.816 164.161 244.459 164.161C244.102 164.161 243.81 164.04 243.585 163.795ZM244.832 163.395C244.922 163.265 244.968 163.072 244.968 162.817C244.968 162.562 244.923 162.369 244.832 162.239C244.741 162.109 244.617 162.044 244.459 162.044C244.306 162.044 244.183 162.111 244.09 162.243C243.997 162.376 243.951 162.567 243.951 162.818C243.951 163.068 243.997 163.26 244.09 163.393C244.183 163.525 244.306 163.591 244.459 163.591C244.617 163.59 244.741 163.525 244.832 163.395ZM247.362 161.529H248.191L244.863 166.403H244.034L247.362 161.529ZM247.143 166.296C246.959 166.187 246.817 166.03 246.715 165.826C246.613 165.622 246.562 165.385 246.562 165.116C246.562 164.846 246.613 164.61 246.715 164.406C246.817 164.202 246.96 164.045 247.143 163.936C247.326 163.827 247.534 163.772 247.766 163.772C248.123 163.772 248.415 163.894 248.64 164.137C248.865 164.381 248.977 164.707 248.977 165.116C248.977 165.524 248.864 165.85 248.64 166.094C248.415 166.338 248.123 166.459 247.766 166.459C247.534 166.459 247.326 166.404 247.143 166.296ZM248.139 165.69C248.23 165.557 248.275 165.366 248.275 165.115C248.275 164.864 248.23 164.673 248.139 164.54C248.049 164.408 247.924 164.341 247.767 164.341C247.614 164.341 247.491 164.406 247.398 164.536C247.305 164.666 247.259 164.859 247.259 165.114C247.259 165.369 247.306 165.562 247.398 165.692C247.491 165.822 247.614 165.887 247.767 165.887C247.924 165.888 248.048 165.822 248.139 165.69Z" fill="black"/>
<path d="M314.506 163.533C314.761 163.658 314.963 163.836 315.111 164.065C315.26 164.295 315.334 164.561 315.334 164.862C315.334 165.187 315.253 165.473 315.091 165.719C314.928 165.965 314.706 166.154 314.425 166.286C314.145 166.419 313.832 166.485 313.489 166.485C312.807 166.485 312.273 166.276 311.888 165.859C311.503 165.441 311.31 164.844 311.31 164.069C311.31 163.517 311.415 163.043 311.624 162.648C311.832 162.254 312.123 161.955 312.497 161.75C312.871 161.546 313.304 161.443 313.796 161.443C314.056 161.443 314.305 161.472 314.546 161.53C314.785 161.589 314.988 161.671 315.155 161.777L314.737 162.606C314.495 162.444 314.192 162.363 313.826 162.363C313.413 162.363 313.085 162.484 312.844 162.725C312.602 162.967 312.473 163.317 312.454 163.776C312.742 163.488 313.144 163.345 313.658 163.345C313.967 163.345 314.251 163.408 314.506 163.533ZM314.016 165.447C314.167 165.317 314.241 165.141 314.241 164.918C314.241 164.695 314.166 164.518 314.016 164.385C313.864 164.252 313.664 164.186 313.413 164.186C313.166 164.186 312.965 164.254 312.807 164.391C312.649 164.528 312.571 164.704 312.571 164.917C312.571 165.131 312.648 165.304 312.801 165.439C312.954 165.574 313.162 165.641 313.427 165.641C313.668 165.642 313.864 165.578 314.016 165.447Z" fill="black"/>
<path d="M318.937 163.77C319.264 164.044 319.429 164.411 319.429 164.87C319.429 165.168 319.354 165.438 319.206 165.681C319.057 165.925 318.831 166.12 318.527 166.266C318.222 166.412 317.847 166.485 317.402 166.485C317.058 166.485 316.721 166.44 316.39 166.349C316.058 166.259 315.776 166.13 315.543 165.962L315.989 165.099C316.175 165.238 316.389 165.346 316.63 165.423C316.87 165.5 317.119 165.538 317.375 165.538C317.658 165.538 317.88 165.483 318.044 165.371C318.206 165.26 318.288 165.104 318.288 164.904C318.288 164.695 318.203 164.537 318.033 164.431C317.864 164.324 317.571 164.27 317.153 164.27H315.907L316.157 161.527H319.13V162.432H317.097L317.021 163.358H317.418C318.102 163.359 318.61 163.496 318.937 163.77Z" fill="black"/>
<path d="M320.072 163.793C319.847 163.55 319.735 163.223 319.735 162.815C319.735 162.407 319.847 162.08 320.072 161.836C320.297 161.593 320.589 161.471 320.946 161.471C321.303 161.471 321.593 161.593 321.816 161.836C322.039 162.08 322.15 162.406 322.15 162.815C322.15 163.223 322.039 163.549 321.816 163.793C321.593 164.037 321.303 164.159 320.946 164.159C320.589 164.159 320.297 164.038 320.072 163.793ZM321.318 163.393C321.409 163.263 321.454 163.07 321.454 162.815C321.454 162.56 321.409 162.367 321.318 162.237C321.227 162.107 321.104 162.042 320.946 162.042C320.793 162.042 320.67 162.109 320.576 162.241C320.484 162.374 320.438 162.565 320.438 162.816C320.438 163.066 320.484 163.258 320.576 163.391C320.669 163.523 320.793 163.589 320.946 163.589C321.104 163.588 321.227 163.523 321.318 163.393ZM323.849 161.527H324.677L321.349 166.401H320.521L323.849 161.527ZM323.63 166.294C323.446 166.185 323.304 166.028 323.202 165.824C323.1 165.62 323.049 165.383 323.049 165.114C323.049 164.844 323.1 164.608 323.202 164.404C323.304 164.2 323.446 164.043 323.63 163.934C323.813 163.825 324.021 163.77 324.252 163.77C324.609 163.77 324.901 163.892 325.126 164.135C325.351 164.379 325.463 164.705 325.463 165.114C325.463 165.522 325.351 165.848 325.126 166.092C324.901 166.336 324.609 166.457 324.252 166.457C324.021 166.457 323.813 166.402 323.63 166.294ZM324.625 165.688C324.716 165.555 324.761 165.364 324.761 165.113C324.761 164.862 324.716 164.671 324.625 164.538C324.535 164.406 324.411 164.339 324.253 164.339C324.1 164.339 323.977 164.404 323.885 164.534C323.792 164.664 323.746 164.857 323.746 165.112C323.746 165.367 323.792 165.56 323.885 165.69C323.977 165.82 324.1 165.885 324.253 165.885C324.411 165.886 324.535 165.82 324.625 165.688Z" fill="black"/>
<path d="M329.367 47.968C329.088 48.239 328.687 48.408 328.162 48.472V49.252H327.465V48.493C327.121 48.474 326.795 48.414 326.483 48.312C326.172 48.21 325.922 48.085 325.731 47.936L326.114 47.087C326.291 47.217 326.498 47.326 326.734 47.414C326.971 47.502 327.215 47.558 327.465 47.581V46.418C327.136 46.339 326.857 46.251 326.63 46.153C326.403 46.055 326.212 45.913 326.059 45.725C325.906 45.537 325.829 45.287 325.829 44.977C325.829 44.592 325.969 44.261 326.25 43.985C326.531 43.709 326.936 43.54 327.465 43.48V42.707H328.162V43.466C328.733 43.512 329.204 43.654 329.575 43.891L329.227 44.748C328.879 44.548 328.524 44.427 328.162 44.386V45.569C328.487 45.644 328.762 45.728 328.987 45.824C329.212 45.919 329.402 46.06 329.555 46.248C329.708 46.436 329.785 46.683 329.785 46.989C329.784 47.37 329.645 47.696 329.367 47.968ZM327.083 45.207C327.171 45.281 327.299 45.344 327.466 45.395V44.406C327.29 44.448 327.16 44.514 327.076 44.604C326.993 44.695 326.951 44.8 326.951 44.921C326.951 45.038 326.994 45.133 327.083 45.207ZM328.538 47.372C328.621 47.289 328.663 47.189 328.663 47.073C328.663 46.957 328.62 46.862 328.534 46.788C328.448 46.714 328.324 46.649 328.162 46.593V47.554C328.329 47.516 328.454 47.455 328.538 47.372Z" fill="white"/>
<path d="M332.061 43.543V48.417H330.933V44.448H329.958V43.543H332.061Z" fill="white"/>
<path d="M336.552 47.498V48.417H332.869V47.686L334.749 45.91C334.949 45.72 335.083 45.556 335.153 45.419C335.223 45.282 335.257 45.146 335.257 45.012C335.257 44.817 335.191 44.667 335.059 44.563C334.926 44.458 334.733 44.407 334.478 44.407C334.264 44.407 334.072 44.447 333.9 44.528C333.729 44.61 333.584 44.732 333.469 44.893L332.647 44.364C332.837 44.081 333.1 43.86 333.434 43.699C333.768 43.539 334.151 43.459 334.583 43.459C334.945 43.459 335.262 43.518 335.533 43.637C335.805 43.755 336.016 43.922 336.167 44.138C336.318 44.354 336.394 44.608 336.394 44.901C336.394 45.166 336.338 45.414 336.227 45.646C336.116 45.878 335.9 46.143 335.58 46.44L334.459 47.498H336.552Z" fill="white"/>
<path d="M337.248 48.2761C337.118 48.1471 337.053 47.9841 337.053 47.7891C337.053 47.5901 337.118 47.4291 337.248 47.3051C337.378 47.1821 337.538 47.1211 337.728 47.1211C337.918 47.1211 338.078 47.1831 338.209 47.3051C338.339 47.4281 338.404 47.5901 338.404 47.7891C338.404 47.9841 338.339 48.1471 338.209 48.2761C338.079 48.4061 337.919 48.4711 337.728 48.4711C337.538 48.4711 337.378 48.4061 337.248 48.2761Z" fill="white"/>
<path d="M339.831 48.201C339.515 48.002 339.268 47.713 339.09 47.334C338.911 46.955 338.822 46.504 338.822 45.979C338.822 45.455 338.912 45.003 339.09 44.625C339.269 44.246 339.516 43.958 339.831 43.758C340.147 43.559 340.506 43.459 340.91 43.459C341.313 43.459 341.673 43.559 341.989 43.758C342.305 43.958 342.552 44.247 342.73 44.625C342.909 45.003 342.998 45.455 342.998 45.979C342.998 46.504 342.908 46.955 342.73 47.334C342.552 47.713 342.304 48.001 341.989 48.201C341.673 48.401 341.313 48.5 340.91 48.5C340.507 48.5 340.147 48.4 339.831 48.201ZM341.61 47.164C341.779 46.909 341.864 46.514 341.864 45.98C341.864 45.446 341.779 45.052 341.61 44.797C341.44 44.542 341.207 44.414 340.91 44.414C340.617 44.414 340.386 44.542 340.217 44.797C340.047 45.052 339.963 45.447 339.963 45.98C339.963 46.514 340.047 46.909 340.217 47.164C340.386 47.419 340.617 47.547 340.91 47.547C341.208 47.546 341.44 47.419 341.61 47.164Z" fill="white"/>
<path d="M346.863 44.082C347.248 44.498 347.441 45.095 347.441 45.876C347.441 46.428 347.338 46.902 347.131 47.296C346.924 47.691 346.633 47.99 346.257 48.194C345.881 48.398 345.447 48.5 344.955 48.5C344.695 48.5 344.446 48.471 344.21 48.413C343.973 48.355 343.771 48.273 343.604 48.166L344.022 47.337C344.259 47.5 344.562 47.581 344.934 47.581C345.347 47.581 345.674 47.459 345.916 47.215C346.158 46.971 346.288 46.619 346.306 46.16C346.014 46.453 345.61 46.599 345.095 46.599C344.784 46.599 344.501 46.536 344.246 46.411C343.991 46.285 343.788 46.108 343.64 45.878C343.491 45.648 343.417 45.383 343.417 45.08C343.417 44.756 343.498 44.47 343.66 44.224C343.823 43.978 344.044 43.789 344.325 43.656C344.606 43.524 344.918 43.457 345.262 43.457C345.944 43.459 346.478 43.667 346.863 44.082ZM345.947 45.551C346.103 45.415 346.18 45.239 346.18 45.026C346.18 44.812 346.105 44.638 345.954 44.504C345.803 44.37 345.595 44.302 345.331 44.302C345.089 44.302 344.893 44.367 344.742 44.497C344.591 44.627 344.516 44.803 344.516 45.026C344.516 45.249 344.591 45.426 344.742 45.559C344.893 45.691 345.094 45.757 345.345 45.757C345.591 45.757 345.792 45.688 345.947 45.551Z" fill="white"/>
<path d="M351.874 46.328C352.002 46.523 352.066 46.748 352.066 47.003C352.066 47.305 351.98 47.568 351.808 47.794C351.636 48.019 351.395 48.193 351.083 48.316C350.772 48.439 350.412 48.5 350.004 48.5C349.596 48.5 349.237 48.438 348.928 48.316C348.619 48.193 348.38 48.019 348.211 47.794C348.041 47.569 347.956 47.305 347.956 47.003C347.956 46.748 348.02 46.523 348.148 46.328C348.276 46.133 348.458 45.975 348.695 45.854C348.514 45.743 348.375 45.602 348.277 45.433C348.179 45.264 348.131 45.07 348.131 44.852C348.131 44.569 348.21 44.323 348.368 44.114C348.526 43.905 348.747 43.744 349.03 43.63C349.313 43.517 349.638 43.459 350.005 43.459C350.376 43.459 350.705 43.516 350.99 43.63C351.276 43.744 351.497 43.905 351.655 44.114C351.813 44.323 351.892 44.569 351.892 44.852C351.892 45.07 351.843 45.264 351.746 45.433C351.648 45.603 351.507 45.743 351.321 45.854C351.562 45.975 351.746 46.133 351.874 46.328ZM350.676 47.48C350.841 47.352 350.923 47.182 350.923 46.968C350.923 46.755 350.841 46.585 350.676 46.459C350.511 46.334 350.288 46.271 350.004 46.271C349.725 46.271 349.505 46.334 349.342 46.459C349.18 46.584 349.099 46.754 349.099 46.968C349.099 47.186 349.18 47.358 349.342 47.483C349.505 47.609 349.725 47.671 350.004 47.671C350.288 47.672 350.512 47.608 350.676 47.48ZM349.458 44.451C349.321 44.56 349.252 44.71 349.252 44.9C349.252 45.086 349.319 45.232 349.454 45.338C349.588 45.445 349.772 45.499 350.004 45.499C350.236 45.499 350.422 45.445 350.561 45.338C350.7 45.232 350.769 45.085 350.769 44.9C350.769 44.71 350.699 44.56 350.561 44.451C350.422 44.342 350.236 44.287 350.004 44.287C349.777 44.287 349.595 44.342 349.458 44.451Z" fill="white"/>
<path d="M352.809 48.2761C352.68 48.1471 352.614 47.9841 352.614 47.7891C352.614 47.5901 352.679 47.4291 352.809 47.3051C352.939 47.1821 353.099 47.1211 353.29 47.1211C353.481 47.1211 353.641 47.1831 353.771 47.3051C353.901 47.4281 353.966 47.5901 353.966 47.7891C353.966 47.9841 353.901 48.1471 353.771 48.2761C353.641 48.4061 353.481 48.4711 353.29 48.4711C353.099 48.4711 352.939 48.4061 352.809 48.2761Z" fill="white"/>
<path d="M357.666 45.786C357.993 46.06 358.157 46.427 358.157 46.886C358.157 47.184 358.083 47.454 357.934 47.697C357.785 47.941 357.559 48.136 357.255 48.282C356.951 48.428 356.576 48.501 356.13 48.501C355.786 48.501 355.449 48.456 355.117 48.365C354.785 48.275 354.503 48.146 354.271 47.978L354.717 47.115C354.902 47.254 355.116 47.362 355.358 47.439C355.599 47.516 355.847 47.554 356.102 47.554C356.385 47.554 356.608 47.499 356.771 47.387C356.934 47.276 357.015 47.12 357.015 46.92C357.015 46.711 356.93 46.553 356.76 46.447C356.591 46.34 356.298 46.286 355.88 46.286H354.633L354.884 43.543H357.857V44.448H355.824L355.747 45.374H356.144C356.831 45.375 357.339 45.512 357.666 45.786Z" fill="white"/>
<path d="M359.627 48.201C359.311 48.002 359.064 47.713 358.886 47.334C358.707 46.955 358.618 46.504 358.618 45.979C358.618 45.455 358.708 45.003 358.886 44.625C359.065 44.246 359.312 43.958 359.627 43.758C359.943 43.559 360.302 43.459 360.706 43.459C361.109 43.459 361.469 43.559 361.785 43.758C362.101 43.958 362.348 44.247 362.527 44.625C362.706 45.003 362.795 45.455 362.795 45.979C362.795 46.504 362.705 46.955 362.527 47.334C362.348 47.713 362.101 48.001 361.785 48.201C361.469 48.401 361.11 48.5 360.706 48.5C360.302 48.5 359.943 48.4 359.627 48.201ZM361.406 47.164C361.575 46.909 361.66 46.514 361.66 45.98C361.66 45.446 361.575 45.052 361.406 44.797C361.236 44.542 361.003 44.414 360.706 44.414C360.413 44.414 360.183 44.542 360.013 44.797C359.843 45.052 359.759 45.447 359.759 45.98C359.759 46.514 359.843 46.909 360.013 47.164C360.182 47.419 360.413 47.547 360.706 47.547C361.003 47.546 361.236 47.419 361.406 47.164Z" fill="white"/>
<path d="M365.182 43.543V48.417H364.054V44.448H363.079V43.543H365.182Z" fill="white"/>
<path d="M366.191 48.2761C366.061 48.1471 365.996 47.9841 365.996 47.7891C365.996 47.5901 366.061 47.4291 366.191 47.3051C366.321 47.1821 366.481 47.1211 366.672 47.1211C366.863 47.1211 367.022 47.1831 367.153 47.3051C367.283 47.4281 367.348 47.5901 367.348 47.7891C367.348 47.9841 367.283 48.1471 367.153 48.2761C367.023 48.4061 366.863 48.4711 366.672 48.4711C366.481 48.4711 366.322 48.4061 366.191 48.2761Z" fill="white"/>
<path d="M368.775 48.201C368.459 48.002 368.212 47.713 368.033 47.334C367.854 46.955 367.765 46.504 367.765 45.979C367.765 45.455 367.855 45.003 368.033 44.625C368.212 44.246 368.459 43.958 368.775 43.758C369.091 43.559 369.45 43.459 369.854 43.459C370.257 43.459 370.617 43.559 370.933 43.758C371.249 43.958 371.496 44.247 371.674 44.625C371.853 45.003 371.942 45.455 371.942 45.979C371.942 46.504 371.852 46.955 371.674 47.334C371.495 47.713 371.248 48.001 370.933 48.201C370.617 48.401 370.258 48.5 369.854 48.5C369.45 48.5 369.091 48.4 368.775 48.201ZM370.554 47.164C370.723 46.909 370.808 46.514 370.808 45.98C370.808 45.446 370.723 45.052 370.554 44.797C370.384 44.542 370.151 44.414 369.854 44.414C369.561 44.414 369.331 44.542 369.161 44.797C368.991 45.052 368.907 45.447 368.907 45.98C368.907 46.514 368.991 46.909 369.161 47.164C369.33 47.419 369.561 47.547 369.854 47.547C370.151 47.546 370.384 47.419 370.554 47.164Z" fill="white"/>
<path d="M373.502 48.201C373.186 48.002 372.939 47.713 372.761 47.334C372.582 46.955 372.493 46.504 372.493 45.979C372.493 45.455 372.583 45.003 372.761 44.625C372.94 44.246 373.187 43.958 373.502 43.758C373.818 43.559 374.178 43.459 374.581 43.459C374.984 43.459 375.344 43.559 375.66 43.758C375.976 43.958 376.223 44.247 376.401 44.625C376.58 45.003 376.669 45.455 376.669 45.979C376.669 46.504 376.579 46.955 376.401 47.334C376.222 47.713 375.975 48.001 375.66 48.201C375.344 48.401 374.985 48.5 374.581 48.5C374.178 48.5 373.818 48.4 373.502 48.201ZM375.281 47.164C375.45 46.909 375.535 46.514 375.535 45.98C375.535 45.446 375.45 45.052 375.281 44.797C375.111 44.542 374.878 44.414 374.581 44.414C374.288 44.414 374.057 44.542 373.888 44.797C373.718 45.052 373.634 45.447 373.634 45.98C373.634 46.514 373.718 46.909 373.888 47.164C374.057 47.419 374.288 47.547 374.581 47.547C374.879 47.546 375.111 47.419 375.281 47.164Z" fill="white"/>
<path d="M189.88 135.244V140.118H188.752V136.149H187.777V135.244H189.88Z" fill="black"/>
<path d="M191.035 135.244H193.249C193.778 135.244 194.246 135.345 194.652 135.547C195.058 135.749 195.374 136.033 195.599 136.4C195.824 136.767 195.936 137.194 195.936 137.681C195.936 138.168 195.824 138.595 195.599 138.962C195.374 139.329 195.058 139.613 194.652 139.815C194.246 140.017 193.778 140.118 193.249 140.118H191.035V135.244ZM193.194 139.191C193.681 139.191 194.07 139.055 194.36 138.784C194.65 138.513 194.795 138.145 194.795 137.68C194.795 137.216 194.65 136.848 194.36 136.577C194.07 136.305 193.681 136.169 193.194 136.169H192.163V139.191H193.194Z" fill="black"/>
<path d="M216.558 135.244V140.118H215.43V136.149H214.455V135.244H216.558Z" fill="black"/>
<path d="M225.08 135.244L223.486 140.118H222.274L221.202 136.817L220.095 140.118H218.89L217.288 135.244H218.458L219.558 138.67L220.707 135.244H221.752L222.866 138.697L224.001 135.244H225.08Z" fill="black"/>
<path d="M245.133 135.244V140.118H244.005V136.149H243.03V135.244H245.133Z" fill="black"/>
<path d="M250.724 140.118L250.717 137.193L249.283 139.602H248.774L247.347 137.256V140.118H246.289V135.244H247.222L249.047 138.273L250.843 135.244H251.769L251.783 140.118H250.724Z" fill="black"/>
<path d="M280.573 143.382H270.47C268.261 143.382 266.47 141.591 266.47 139.382V136.242C266.47 134.033 268.261 132.242 270.47 132.242H280.573C282.782 132.242 284.573 134.033 284.573 136.242V139.382C284.573 141.591 282.783 143.382 280.573 143.382Z" fill="#407BFF"/>
<path d="M273.666 137.706C273.893 137.954 274.007 138.262 274.007 138.629C274.007 138.912 273.932 139.174 273.784 139.413C273.635 139.652 273.409 139.843 273.105 139.987C272.801 140.131 272.428 140.203 271.988 140.203C271.644 140.203 271.307 140.158 270.975 140.067C270.643 139.977 270.361 139.848 270.129 139.68L270.567 138.817C270.753 138.956 270.968 139.064 271.211 139.141C271.455 139.218 271.704 139.256 271.959 139.256C272.242 139.256 272.465 139.202 272.628 139.092C272.79 138.983 272.872 138.829 272.872 138.629C272.872 138.23 272.568 138.031 271.959 138.031H271.444V137.286L272.446 136.151H270.371V135.246H273.783V135.977L272.683 137.23C273.112 137.299 273.438 137.458 273.666 137.706Z" fill="white"/>
<path d="M279.271 140.118L279.264 137.193L277.83 139.602H277.321L275.894 137.256V140.118H274.836V135.244H275.769L277.593 138.273L279.389 135.244H280.315L280.329 140.118H279.271Z" fill="white"/>
<path d="M301.298 137.248C301.553 137.373 301.755 137.551 301.904 137.78C302.053 138.01 302.127 138.276 302.127 138.577C302.127 138.902 302.045 139.188 301.884 139.434C301.721 139.68 301.499 139.869 301.219 140.001C300.938 140.134 300.626 140.2 300.283 140.2C299.601 140.2 299.067 139.991 298.682 139.574C298.297 139.156 298.104 138.559 298.104 137.784C298.104 137.232 298.209 136.758 298.418 136.363C298.627 135.969 298.917 135.67 299.29 135.465C299.664 135.261 300.098 135.158 300.589 135.158C300.849 135.158 301.098 135.187 301.338 135.245C301.577 135.304 301.78 135.386 301.947 135.492L301.529 136.321C301.288 136.159 300.984 136.078 300.617 136.078C300.204 136.078 299.876 136.199 299.635 136.44C299.393 136.682 299.263 137.032 299.245 137.491C299.533 137.203 299.934 137.06 300.449 137.06C300.759 137.06 301.043 137.123 301.298 137.248ZM300.807 139.163C300.958 139.033 301.033 138.857 301.033 138.634C301.033 138.411 300.958 138.234 300.807 138.101C300.656 137.968 300.455 137.902 300.204 137.902C299.958 137.902 299.756 137.97 299.598 138.107C299.44 138.244 299.361 138.42 299.361 138.633C299.361 138.847 299.438 139.02 299.591 139.155C299.744 139.29 299.953 139.357 300.217 139.357C300.46 139.358 300.656 139.293 300.807 139.163Z" fill="black"/>
<path d="M307.279 140.118L307.272 137.193L305.838 139.602H305.33L303.902 137.256V140.118H302.844V135.244H303.777L305.602 138.273L307.398 135.244H308.324L308.338 140.118H307.279Z" fill="black"/>
<path d="M329.657 135.244V140.118H328.529V136.149H327.554V135.244H329.657Z" fill="black"/>
<path d="M333.152 138.391V140.118H332.025V138.377L330.137 135.244H331.335L332.637 137.409L333.939 135.244H335.046L333.152 138.391Z" fill="black"/>
<path d="M358.225 137.706C358.452 137.954 358.566 138.262 358.566 138.629C358.566 138.912 358.49 139.174 358.342 139.413C358.193 139.652 357.968 139.843 357.664 139.987C357.36 140.131 356.987 140.203 356.547 140.203C356.203 140.203 355.866 140.158 355.534 140.067C355.202 139.977 354.919 139.848 354.688 139.68L355.126 138.817C355.312 138.956 355.527 139.064 355.77 139.141C356.014 139.218 356.263 139.256 356.518 139.256C356.801 139.256 357.024 139.202 357.186 139.092C357.349 138.983 357.43 138.829 357.43 138.629C357.43 138.23 357.126 138.031 356.517 138.031H356.002V137.286L357.004 136.151H354.928V135.246H358.341V135.977L357.241 137.23C357.67 137.299 357.997 137.458 358.225 137.706Z" fill="black"/>
<path d="M361.663 138.391V140.118H360.536V138.377L358.648 135.244H359.846L361.148 137.409L362.45 135.244H363.557L361.663 138.391Z" fill="black"/>
<path d="M178.043 109.422C177.929 108.662 178.453 107.953 179.213 107.838L205.517 103.892L233.56 92.2589L261.741 88.5019L289.392 98.1799L317.008 86.2129H344.922L371.237 77.4409C371.966 77.1979 372.755 77.5919 372.998 78.3209C373.241 79.0509 372.847 79.8399 372.117 80.0829L345.372 88.9969H317.584L289.498 101.168L261.447 91.3499L234.108 94.9949L206.098 106.621L179.624 110.592C178.866 110.706 178.158 110.182 178.043 109.422Z" fill="#407BFF"/>
<path d="M205.501 115.539L178.241 93.2771C177.645 92.7911 177.557 91.9141 178.043 91.3181C178.529 90.7221 179.406 90.6341 180.002 91.1201L206.287 112.585L233.388 108.068L261.117 97.9011L289.088 84.4021L317.207 76.9041L345.003 80.6101L371.226 71.4321C371.952 71.1781 372.746 71.5601 373 72.2861C373.254 73.0121 372.872 73.8071 372.146 74.0611L345.295 83.4591L317.389 79.7381L289.934 87.0601L262.202 100.463L233.974 110.795L205.501 115.539Z" fill="#263238"/>
<path d="M153.358 71.8316C154.319 67.7596 151.798 63.6792 147.726 62.7177C143.654 61.7562 139.574 64.2777 138.612 68.3497C137.651 72.4217 140.172 76.5021 144.244 77.4636C148.316 78.4251 152.396 75.9036 153.358 71.8316Z" fill="#407BFF"/>
<path opacity="0.5" d="M164.287 93.771H127.683C126.833 93.771 126.144 93.082 126.144 92.233V84.537C126.144 83.687 126.833 82.998 127.683 82.998H164.287C165.137 82.998 165.826 83.687 165.826 84.537V92.233C165.826 93.083 165.137 93.771 164.287 93.771Z" fill="white"/>
<path d="M131.291 89.9881L129.71 90.8191L130.012 89.0581L128.733 87.8111L130.5 87.5541L131.291 85.9531L132.082 87.5541L133.849 87.8111L132.57 89.0581L132.872 90.8191L131.291 89.9881Z" fill="#407BFF"/>
<path d="M138.638 89.9881L137.057 90.8191L137.359 89.0581L136.08 87.8111L137.848 87.5541L138.638 85.9531L139.429 87.5541L141.197 87.8111L139.918 89.0581L140.22 90.8191L138.638 89.9881Z" fill="#407BFF"/>
<path d="M145.985 89.9881L144.404 90.8191L144.706 89.0581L143.426 87.8111L145.194 87.5541L145.985 85.9531L146.775 87.5541L148.543 87.8111L147.264 89.0581L147.566 90.8191L145.985 89.9881Z" fill="#407BFF"/>
<path opacity="0.9" d="M153.33 89.9881L151.749 90.8191L152.051 89.0581L150.772 87.8111L152.54 87.5541L153.33 85.9531L154.121 87.5541L155.889 87.8111L154.61 89.0581L154.912 90.8191L153.33 89.9881Z" fill="white"/>
<path opacity="0.9" d="M160.678 89.9881L159.096 90.8191L159.398 89.0581L158.119 87.8111L159.887 87.5541L160.678 85.9531L161.468 87.5541L163.236 87.8111L161.957 89.0581L162.259 90.8191L160.678 89.9881Z" fill="white"/>
<path d="M153.357 113.531C154.319 109.459 151.797 105.378 147.725 104.417C143.653 103.455 139.573 105.977 138.611 110.049C137.65 114.121 140.171 118.201 144.243 119.163C148.315 120.124 152.395 117.603 153.357 113.531Z" fill="#263238"/>
<path opacity="0.7" d="M153.357 113.531C154.319 109.459 151.797 105.378 147.725 104.417C143.653 103.455 139.573 105.977 138.611 110.049C137.65 114.121 140.171 118.201 144.243 119.163C148.315 120.124 152.395 117.603 153.357 113.531Z" fill="white"/>
<path opacity="0.5" d="M164.287 135.468H127.683C126.833 135.468 126.144 134.779 126.144 133.93V126.234C126.144 125.384 126.833 124.695 127.683 124.695H164.287C165.137 124.695 165.826 125.384 165.826 126.234V133.93C165.826 134.779 165.137 135.468 164.287 135.468Z" fill="white"/>
<path d="M131.291 131.683L129.71 132.514L130.012 130.754L128.733 129.507L130.5 129.25L131.291 127.648L132.082 129.25L133.849 129.507L132.57 130.754L132.872 132.514L131.291 131.683Z" fill="#407BFF"/>
<path d="M138.638 131.683L137.057 132.514L137.359 130.754L136.08 129.507L137.848 129.25L138.638 127.648L139.429 129.25L141.197 129.507L139.918 130.754L140.22 132.514L138.638 131.683Z" fill="#407BFF"/>
<path opacity="0.9" d="M145.985 131.683L144.404 132.514L144.706 130.754L143.426 129.507L145.194 129.25L145.985 127.648L146.775 129.25L148.543 129.507L147.264 130.754L147.566 132.514L145.985 131.683Z" fill="white"/>
<path opacity="0.9" d="M153.33 131.683L151.749 132.514L152.051 130.754L150.772 129.507L152.54 129.25L153.33 127.648L154.121 129.25L155.889 129.507L154.61 130.754L154.912 132.514L153.33 131.683Z" fill="white"/>
<path opacity="0.9" d="M160.678 131.683L159.096 132.514L159.398 130.754L158.119 129.507L159.887 129.25L160.678 127.648L161.468 129.25L163.236 129.507L161.957 130.754L162.259 132.514L160.678 131.683Z" fill="white"/>
<path d="M151.339 158.83C154.298 155.871 154.298 151.074 151.339 148.116C148.38 145.157 143.584 145.157 140.625 148.116C137.666 151.074 137.666 155.871 140.625 158.83C143.584 161.788 148.38 161.788 151.339 158.83Z" fill="#407BFF"/>
<path opacity="0.3" d="M151.339 158.83C154.298 155.871 154.298 151.074 151.339 148.116C148.38 145.157 143.584 145.157 140.625 148.116C137.666 151.074 137.666 155.871 140.625 158.83C143.584 161.788 148.38 161.788 151.339 158.83Z" fill="white"/>
<path opacity="0.5" d="M164.287 177.166H127.683C126.833 177.166 126.144 176.477 126.144 175.628V167.932C126.144 167.082 126.833 166.393 127.683 166.393H164.287C165.137 166.393 165.826 167.082 165.826 167.932V175.628C165.826 176.477 165.137 177.166 164.287 177.166Z" fill="white"/>
<path d="M131.291 173.381L129.71 174.213L130.012 172.452L128.733 171.205L130.5 170.948L131.291 169.346L132.082 170.948L133.849 171.205L132.57 172.452L132.872 174.213L131.291 173.381Z" fill="#407BFF"/>
<path d="M138.638 173.381L137.057 174.213L137.359 172.452L136.08 171.205L137.848 170.948L138.638 169.346L139.429 170.948L141.197 171.205L139.918 172.452L140.22 174.213L138.638 173.381Z" fill="#407BFF"/>
<path d="M145.985 173.381L144.404 174.213L144.706 172.452L143.426 171.205L145.194 170.948L145.985 169.346L146.775 170.948L148.543 171.205L147.264 172.452L147.566 174.213L145.985 173.381Z" fill="#407BFF"/>
<path d="M153.33 173.381L151.749 174.213L152.051 172.452L150.772 171.205L152.54 170.948L153.33 169.346L154.121 170.948L155.889 171.205L154.61 172.452L154.912 174.213L153.33 173.381Z" fill="#407BFF"/>
<path opacity="0.9" d="M160.678 173.381L159.096 174.213L159.398 172.452L158.119 171.205L159.887 170.948L160.678 169.346L161.468 170.948L163.236 171.205L161.957 172.452L162.259 174.213L160.678 173.381Z" fill="white"/>
<path d="M151.339 200.527C154.297 197.568 154.297 192.772 151.339 189.813C148.38 186.854 143.583 186.854 140.625 189.813C137.666 192.772 137.666 197.568 140.625 200.527C143.583 203.485 148.38 203.485 151.339 200.527Z" fill="#263238"/>
<path opacity="0.5" d="M151.339 200.527C154.297 197.568 154.297 192.772 151.339 189.813C148.38 186.854 143.583 186.854 140.625 189.813C137.666 192.772 137.666 197.568 140.625 200.527C143.583 203.485 148.38 203.485 151.339 200.527Z" fill="white"/>
<path opacity="0.5" d="M164.287 218.864H127.683C126.833 218.864 126.144 218.175 126.144 217.325V209.629C126.144 208.779 126.833 208.09 127.683 208.09H164.287C165.137 208.09 165.826 208.779 165.826 209.629V217.325C165.826 218.175 165.137 218.864 164.287 218.864Z" fill="white"/>
<path d="M131.291 215.079L129.71 215.91L130.012 214.149L128.733 212.902L130.5 212.645L131.291 211.043L132.082 212.645L133.849 212.902L132.57 214.149L132.872 215.91L131.291 215.079Z" fill="#407BFF"/>
<path d="M138.638 215.079L137.057 215.91L137.359 214.149L136.08 212.902L137.848 212.645L138.638 211.043L139.429 212.645L141.197 212.902L139.918 214.149L140.22 215.91L138.638 215.079Z" fill="#407BFF"/>
<path opacity="0.9" d="M145.985 215.079L144.404 215.91L144.706 214.149L143.426 212.902L145.194 212.645L145.985 211.043L146.775 212.645L148.543 212.902L147.264 214.149L147.566 215.91L145.985 215.079Z" fill="white"/>
<path d="M145.985 215.079L144.404 215.91L144.706 214.149L143.426 212.902L145.194 212.645L145.985 211.043V215.079Z" fill="#407BFF"/>
<path opacity="0.9" d="M153.33 215.079L151.749 215.91L152.051 214.149L150.772 212.902L152.54 212.645L153.33 211.043L154.121 212.645L155.889 212.902L154.61 214.149L154.912 215.91L153.33 215.079Z" fill="white"/>
<path opacity="0.9" d="M160.678 215.079L159.096 215.91L159.398 214.149L158.119 212.902L159.887 212.645L160.678 211.043L161.468 212.645L163.236 212.902L161.957 214.149L162.259 215.91L160.678 215.079Z" fill="white"/>
<path d="M188.939 201.955H180.828V217.303H188.939V201.955Z" fill="#407BFF"/>
<path d="M208.517 196.09H200.406V217.302H208.517V196.09Z" fill="#407BFF"/>
<path d="M228.093 185.316H219.982V217.301H228.093V185.316Z" fill="#407BFF"/>
<path d="M198.728 193.139H190.617V217.304H198.728V193.139Z" fill="#263238"/>
<path d="M218.305 190.705H210.194V217.303H218.305V190.705Z" fill="#263238"/>
<path d="M237.882 191.334H229.771V217.303H237.882V191.334Z" fill="#263238"/>
<g opacity="0.6">
<path d="M198.728 193.139H190.617V217.304H198.728V193.139Z" fill="white"/>
<path d="M218.305 190.705H210.194V217.303H218.305V190.705Z" fill="white"/>
<path d="M237.882 191.334H229.771V217.303H237.882V191.334Z" fill="white"/>
</g>
<path d="M247.671 182.242H239.56V217.302H247.671V182.242Z" fill="#407BFF"/>
<path d="M325.653 217.303H258.811L263.338 201.955L272.655 193.137L282.444 206.696L292.232 190.704L302.021 201.31L311.81 191.333L321.598 182.242H325.653V217.303Z" fill="#407BFF"/>
<path opacity="0.8" d="M325.653 217.303H258.811L263.338 207.054L272.655 199.512L282.444 206.696L292.232 198.353L302.021 201.31L311.81 198.983L321.598 194.991L325.653 182.242V217.303Z" fill="white"/>
<path d="M353.455 166.751H369.749C369.749 157.752 362.454 150.457 353.455 150.457C344.456 150.457 337.161 157.752 337.161 166.751H353.455Z" fill="#407BFF"/>
<path opacity="0.5" d="M353.455 166.751H369.749C369.749 157.752 362.454 150.457 353.455 150.457C344.456 150.457 337.161 157.752 337.161 166.751H353.455Z" fill="white"/>
<path opacity="0.7" d="M364.977 155.229C362.028 152.28 357.955 150.457 353.456 150.457C344.457 150.457 337.162 157.752 337.162 166.751H353.456L364.977 155.229Z" fill="white"/>
<path opacity="0.2" d="M341.934 155.207L353.455 166.728V150.434C348.956 150.434 344.883 152.258 341.934 155.207Z" fill="black"/>
<path d="M341.934 155.207L353.455 166.728V150.434C348.956 150.434 344.883 152.258 341.934 155.207Z" fill="#407BFF"/>
<path opacity="0.5" d="M341.934 155.207L353.455 166.728V150.434C348.956 150.434 344.883 152.258 341.934 155.207Z" fill="white"/>
<path d="M362.44 158.936L361.27 157.762L353.898 165.115C353.753 165.075 353.612 165.025 353.454 165.025C352.514 165.025 351.751 165.787 351.751 166.728C351.751 167.668 352.513 168.431 353.454 168.431C354.394 168.431 355.156 167.669 355.156 166.728C355.156 166.572 355.107 166.432 355.067 166.289L362.44 158.936Z" fill="black"/>
<path d="M353.455 192.357H369.749C369.749 183.358 362.454 176.062 353.455 176.062C344.456 176.062 337.161 183.358 337.161 192.357H353.455Z" fill="#407BFF"/>
<path opacity="0.5" d="M353.455 192.357H369.749C369.749 183.358 362.454 176.062 353.455 176.062C344.456 176.062 337.161 183.358 337.161 192.357H353.455Z" fill="white"/>
<path opacity="0.7" d="M364.977 180.836C362.028 177.887 357.955 176.064 353.456 176.064C344.457 176.064 337.162 183.359 337.162 192.358H353.456L364.977 180.836Z" fill="white"/>
<path d="M341.934 180.813L353.455 192.334V176.041C348.956 176.041 344.883 177.864 341.934 180.813Z" fill="#407BFF"/>
<path opacity="0.5" d="M341.934 180.813L353.455 192.334V176.041C348.956 176.041 344.883 177.864 341.934 180.813Z" fill="white"/>
<path d="M354.283 190.877V181.406H352.626V190.877C352.113 191.17 351.752 191.701 351.752 192.334C351.752 193.274 352.514 194.037 353.455 194.037C354.395 194.037 355.157 193.275 355.157 192.334C355.157 191.701 354.796 191.171 354.283 190.877Z" fill="black"/>
<path d="M353.455 217.964H369.749C369.749 208.965 362.454 201.67 353.455 201.67C344.456 201.67 337.161 208.965 337.161 217.964H353.455Z" fill="#407BFF"/>
<path opacity="0.5" d="M353.455 217.964H369.749C369.749 208.965 362.454 201.67 353.455 201.67C344.456 201.67 337.161 208.965 337.161 217.964H353.455Z" fill="white"/>
<path opacity="0.7" d="M364.977 206.442C362.028 203.493 357.955 201.67 353.456 201.67C344.457 201.67 337.162 208.965 337.162 217.964H353.456L364.977 206.442Z" fill="white"/>
<path d="M341.934 206.419L353.455 217.94V201.646C348.956 201.647 344.883 203.471 341.934 206.419Z" fill="#407BFF"/>
<path opacity="0.5" d="M341.934 206.419L353.455 217.94V201.646C348.956 201.647 344.883 203.471 341.934 206.419Z" fill="white"/>
<path d="M362.44 210.149L361.27 208.975L353.898 216.328C353.753 216.288 353.612 216.238 353.454 216.238C352.514 216.238 351.751 217 351.751 217.941C351.751 218.881 352.513 219.644 353.454 219.644C354.394 219.644 355.156 218.882 355.156 217.941C355.156 217.785 355.107 217.645 355.067 217.502L362.44 210.149Z" fill="black"/>
<path d="M375.61 52.8615L364.661 52.9805C363.156 52.9965 361.949 54.2305 361.966 55.7355L362.065 64.8965C362.081 66.3985 363.309 67.6035 364.811 67.5925L367.979 67.5685L369.347 69.6865C369.811 70.4045 370.868 70.3875 371.308 69.6535L372.61 67.4795L375.76 67.4555C377.269 67.4445 378.481 66.2095 378.464 64.7005L378.365 55.5575C378.348 54.0515 377.115 52.8445 375.61 52.8615Z" fill="#407BFF"/>
<path d="M367.192 60.2761C367.379 60.3671 367.526 60.4981 367.635 60.6661C367.743 60.8341 367.798 61.0291 367.798 61.2501C367.798 61.4881 367.738 61.6971 367.62 61.8771C367.5 62.0581 367.339 62.1961 367.132 62.2931C366.926 62.3901 366.699 62.4381 366.447 62.4381C365.946 62.4381 365.555 62.2851 365.273 61.9791C364.992 61.6731 364.85 61.2361 364.85 60.6691C364.85 60.2641 364.927 59.9181 365.08 59.6291C365.233 59.3401 365.446 59.1201 365.72 58.9711C365.994 58.8211 366.31 58.7461 366.671 58.7461C366.861 58.7461 367.043 58.7671 367.219 58.8101C367.395 58.8521 367.543 58.9131 367.665 58.9911L367.36 59.5971C367.183 59.4781 366.96 59.4191 366.691 59.4191C366.389 59.4191 366.149 59.5071 365.973 59.6841C365.796 59.8611 365.7 60.1171 365.687 60.4541C365.899 60.2431 366.192 60.1381 366.57 60.1381C366.798 60.1391 367.004 60.1841 367.192 60.2761ZM366.833 61.6791C366.943 61.5841 366.999 61.4541 366.999 61.2911C366.999 61.1281 366.943 60.9981 366.833 60.9011C366.722 60.8051 366.575 60.7561 366.391 60.7561C366.212 60.7561 366.064 60.8061 365.948 60.9071C365.832 61.0071 365.775 61.1361 365.775 61.2921C365.775 61.4481 365.831 61.5761 365.943 61.6751C366.055 61.7731 366.208 61.8221 366.402 61.8221C366.579 61.8211 366.722 61.7741 366.833 61.6791Z" fill="white"/>
<path d="M368.838 62.2191C368.608 62.0731 368.426 61.8611 368.295 61.5841C368.164 61.3071 368.098 60.9771 368.098 60.5921C368.098 60.2071 368.164 59.8771 368.295 59.6001C368.426 59.3231 368.608 59.1111 368.838 58.9661C369.07 58.8201 369.334 58.7461 369.629 58.7461C369.925 58.7461 370.188 58.8191 370.42 58.9661C370.652 59.1121 370.832 59.3231 370.963 59.6001C371.094 59.8781 371.16 60.2081 371.16 60.5921C371.16 60.9761 371.094 61.3071 370.963 61.5841C370.832 61.8611 370.652 62.0731 370.42 62.2191C370.188 62.3651 369.926 62.4381 369.629 62.4381C369.334 62.4381 369.07 62.3651 368.838 62.2191ZM370.142 61.4591C370.266 61.2721 370.327 60.9831 370.327 60.5921C370.327 60.2011 370.266 59.9121 370.142 59.7251C370.017 59.5381 369.847 59.4451 369.629 59.4451C369.415 59.4451 369.246 59.5381 369.122 59.7251C368.998 59.9121 368.935 60.2011 368.935 60.5921C368.935 60.9831 368.997 61.2721 369.122 61.4591C369.245 61.6461 369.415 61.7401 369.629 61.7401C369.847 61.7401 370.017 61.6461 370.142 61.4591Z" fill="white"/>
<path d="M371.747 60.4676C371.583 60.2886 371.5 60.0506 371.5 59.7516C371.5 59.4526 371.582 59.2136 371.747 59.0356C371.911 58.8566 372.127 58.7676 372.388 58.7676C372.65 58.7676 372.862 58.8566 373.025 59.0356C373.188 59.2146 373.27 59.4536 373.27 59.7516C373.27 60.0506 373.188 60.2896 373.025 60.4676C372.862 60.6466 372.649 60.7356 372.388 60.7356C372.126 60.7356 371.911 60.6466 371.747 60.4676ZM372.661 60.1746C372.727 60.0796 372.76 59.9386 372.76 59.7516C372.76 59.5646 372.727 59.4236 372.661 59.3286C372.595 59.2336 372.504 59.1856 372.388 59.1856C372.276 59.1856 372.186 59.2346 372.118 59.3306C372.049 59.4276 372.016 59.5676 372.016 59.7516C372.016 59.9356 372.05 60.0756 372.118 60.1726C372.186 60.2696 372.276 60.3176 372.388 60.3176C372.504 60.3176 372.595 60.2696 372.661 60.1746ZM374.514 58.8086H375.122L372.684 62.3776H372.076L374.514 58.8086ZM374.354 62.2986C374.22 62.2186 374.115 62.1036 374.04 61.9546C373.965 61.8056 373.928 61.6316 373.928 61.4346C373.928 61.2376 373.965 61.0646 374.04 60.9146C374.115 60.7656 374.219 60.6496 374.354 60.5706C374.489 60.4906 374.64 60.4506 374.811 60.4506C375.072 60.4506 375.285 60.5406 375.451 60.7186C375.615 60.8966 375.697 61.1356 375.697 61.4346C375.697 61.7336 375.615 61.9726 375.451 62.1506C375.285 62.3296 375.072 62.4186 374.811 62.4186C374.64 62.4186 374.488 62.3786 374.354 62.2986ZM375.083 61.8546C375.149 61.7576 375.183 61.6176 375.183 61.4336C375.183 61.2506 375.149 61.1096 375.083 61.0136C375.017 60.9166 374.925 60.8676 374.81 60.8676C374.698 60.8676 374.607 60.9156 374.54 61.0106C374.472 61.1056 374.438 61.2466 374.438 61.4336C374.438 61.6206 374.472 61.7626 374.54 61.8566C374.607 61.9516 374.698 61.9996 374.81 61.9996C374.925 62.0006 375.017 61.9516 375.083 61.8546Z" fill="white"/>
<path d="M364.849 100.769L375.798 100.65C377.303 100.634 378.51 99.4002 378.493 97.8952L378.394 88.7342C378.378 87.2322 377.15 86.0272 375.648 86.0382L372.48 86.0622L371.112 83.9442C370.648 83.2262 369.591 83.2432 369.151 83.9772L367.849 86.1502L364.699 86.1742C363.191 86.1852 361.978 87.4202 361.995 88.9292L362.094 98.0722C362.11 99.5782 363.344 100.785 364.849 100.769Z" fill="#263238"/>
<path d="M367.297 93.9486C367.536 94.1496 367.656 94.4176 367.656 94.7546C367.656 94.9716 367.602 95.1696 367.493 95.3486C367.385 95.5276 367.219 95.6696 366.996 95.7766C366.773 95.8836 366.498 95.9376 366.172 95.9376C365.921 95.9376 365.674 95.9046 365.43 95.8386C365.187 95.7716 364.981 95.6776 364.811 95.5556L365.137 94.9236C365.273 95.0256 365.43 95.1046 365.606 95.1606C365.782 95.2166 365.965 95.2446 366.151 95.2446C366.358 95.2446 366.522 95.2036 366.64 95.1226C366.76 95.0406 366.819 94.9276 366.819 94.7806C366.819 94.6276 366.757 94.5116 366.632 94.4336C366.508 94.3556 366.293 94.3156 365.987 94.3156H365.074L365.257 92.3066H367.434V92.9696H365.945L365.889 93.6476H366.18C366.686 93.6476 367.057 93.7486 367.297 93.9486Z" fill="white"/>
<path d="M368.731 95.7191C368.501 95.5731 368.319 95.3611 368.188 95.0841C368.057 94.8071 367.991 94.4771 367.991 94.0921C367.991 93.7081 368.057 93.3771 368.188 93.1001C368.319 92.8231 368.501 92.6111 368.731 92.4661C368.963 92.3201 369.227 92.2461 369.522 92.2461C369.818 92.2461 370.081 92.3201 370.313 92.4661C370.545 92.6121 370.725 92.8231 370.856 93.1001C370.987 93.3781 371.053 93.7081 371.053 94.0921C371.053 94.4761 370.987 94.8071 370.856 95.0841C370.725 95.3611 370.545 95.5731 370.313 95.7191C370.081 95.8651 369.819 95.9381 369.522 95.9381C369.227 95.9381 368.963 95.8651 368.731 95.7191ZM370.035 94.9591C370.16 94.7721 370.221 94.4831 370.221 94.0921C370.221 93.7011 370.16 93.4121 370.035 93.2251C369.911 93.0381 369.74 92.9451 369.522 92.9451C369.308 92.9451 369.138 93.0381 369.015 93.2251C368.89 93.4121 368.828 93.7011 368.828 94.0921C368.828 94.4831 368.89 94.7721 369.015 94.9591C369.138 95.1461 369.308 95.2401 369.522 95.2401C369.74 95.2401 369.91 95.1461 370.035 94.9591Z" fill="white"/>
<path d="M371.641 93.9676C371.477 93.7886 371.393 93.5506 371.393 93.2506C371.393 92.9516 371.476 92.7126 371.641 92.5336C371.805 92.3546 372.02 92.2656 372.281 92.2656C372.542 92.2656 372.755 92.3546 372.918 92.5336C373.081 92.7126 373.163 92.9516 373.163 93.2506C373.163 93.5496 373.081 93.7886 372.918 93.9676C372.755 94.1466 372.542 94.2356 372.281 94.2356C372.019 94.2356 371.805 94.1466 371.641 93.9676ZM372.553 93.6746C372.619 93.5796 372.653 93.4386 372.653 93.2516C372.653 93.0646 372.619 92.9236 372.553 92.8286C372.487 92.7336 372.396 92.6856 372.28 92.6856C372.168 92.6856 372.078 92.7346 372.01 92.8306C371.941 92.9276 371.908 93.0676 371.908 93.2516C371.908 93.4356 371.942 93.5756 372.01 93.6726C372.078 93.7696 372.168 93.8176 372.28 93.8176C372.397 93.8166 372.487 93.7696 372.553 93.6746ZM374.407 92.3076H375.015L372.577 95.8776H371.969L374.407 92.3076ZM374.247 95.7986C374.113 95.7186 374.008 95.6036 373.933 95.4546C373.858 95.3056 373.821 95.1316 373.821 94.9346C373.821 94.7376 373.858 94.5646 373.933 94.4146C374.008 94.2656 374.112 94.1496 374.247 94.0706C374.381 93.9906 374.533 93.9506 374.704 93.9506C374.966 93.9506 375.178 94.0406 375.344 94.2186C375.508 94.3966 375.591 94.6356 375.591 94.9346C375.591 95.2336 375.509 95.4726 375.344 95.6516C375.179 95.8306 374.966 95.9196 374.704 95.9196C374.533 95.9186 374.381 95.8786 374.247 95.7986ZM374.976 95.3546C375.042 95.2586 375.076 95.1176 375.076 94.9336C375.076 94.7506 375.042 94.6096 374.976 94.5136C374.91 94.4166 374.818 94.3676 374.703 94.3676C374.591 94.3676 374.5 94.4156 374.433 94.5106C374.364 94.6056 374.331 94.7466 374.331 94.9336C374.331 95.1206 374.365 95.2626 374.433 95.3566C374.5 95.4516 374.591 95.4996 374.703 95.4996C374.818 95.5006 374.91 95.4516 374.976 95.3546Z" fill="white"/>
<path d="M260.753 163.691C260.027 163.691 259.438 163.102 259.438 162.376C259.438 161.65 260.027 161.061 260.753 161.061H301.431C302.157 161.061 302.746 161.65 302.746 162.376C302.746 163.102 302.157 163.691 301.431 163.691H260.753Z" fill="#263238"/>
<path d="M260.753 173.173C260.027 173.173 259.438 172.584 259.438 171.858C259.438 171.132 260.027 170.543 260.753 170.543H293.502C294.228 170.543 294.816 171.132 294.816 171.858C294.816 172.584 294.228 173.173 293.502 173.173H260.753Z" fill="#263238"/>
<path d="M260.753 168.431C260.027 168.431 259.438 167.842 259.438 167.116C259.438 166.39 260.027 165.801 260.753 165.801H290.156C290.882 165.801 291.471 166.39 291.471 167.116C291.471 167.842 290.882 168.431 290.156 168.431H260.753Z" fill="#263238"/>
<g opacity="0.5">
<path d="M260.753 163.691C260.027 163.691 259.438 163.102 259.438 162.376C259.438 161.65 260.027 161.061 260.753 161.061H301.431C302.157 161.061 302.746 161.65 302.746 162.376C302.746 163.102 302.157 163.691 301.431 163.691H260.753Z" fill="white"/>
<path d="M260.753 173.173C260.027 173.173 259.438 172.584 259.438 171.858C259.438 171.132 260.027 170.543 260.753 170.543H293.502C294.228 170.543 294.816 171.132 294.816 171.858C294.816 172.584 294.228 173.173 293.502 173.173H260.753Z" fill="white"/>
<path d="M260.753 168.431C260.027 168.431 259.438 167.842 259.438 167.116C259.438 166.39 260.027 165.801 260.753 165.801H290.156C290.882 165.801 291.471 166.39 291.471 167.116C291.471 167.842 290.882 168.431 290.156 168.431H260.753Z" fill="white"/>
</g>
<path d="M182.143 163.691C181.417 163.691 180.828 163.102 180.828 162.376C180.828 161.65 181.417 161.061 182.143 161.061H222.821C223.547 161.061 224.136 161.65 224.136 162.376C224.136 163.102 223.547 163.691 222.821 163.691H182.143Z" fill="#263238"/>
<path d="M182.143 173.173C181.417 173.173 180.828 172.584 180.828 171.858C180.828 171.132 181.417 170.543 182.143 170.543H205.968C206.694 170.543 207.283 171.132 207.283 171.858C207.283 172.584 206.694 173.173 205.968 173.173H182.143Z" fill="#263238"/>
<path d="M182.143 168.431C181.417 168.431 180.828 167.842 180.828 167.116C180.828 166.39 181.417 165.801 182.143 165.801H216.645C217.371 165.801 217.96 166.39 217.96 167.116C217.96 167.842 217.371 168.431 216.645 168.431H182.143Z" fill="#263238"/>
<g opacity="0.5">
<path d="M182.143 163.691C181.417 163.691 180.828 163.102 180.828 162.376C180.828 161.65 181.417 161.061 182.143 161.061H222.821C223.547 161.061 224.136 161.65 224.136 162.376C224.136 163.102 223.547 163.691 222.821 163.691H182.143Z" fill="white"/>
<path d="M182.143 173.173C181.417 173.173 180.828 172.584 180.828 171.858C180.828 171.132 181.417 170.543 182.143 170.543H205.968C206.694 170.543 207.283 171.132 207.283 171.858C207.283 172.584 206.694 173.173 205.968 173.173H182.143Z" fill="white"/>
<path d="M182.143 168.431C181.417 168.431 180.828 167.842 180.828 167.116C180.828 166.39 181.417 165.801 182.143 165.801H216.645C217.371 165.801 217.96 166.39 217.96 167.116C217.96 167.842 217.371 168.431 216.645 168.431H182.143Z" fill="white"/>
</g>
<path d="M355.322 173.873H337.937C337.077 173.873 336.319 173.176 336.243 172.316L333.978 146.431C333.903 145.571 334.539 144.873 335.399 144.873H352.784C353.644 144.873 354.402 145.57 354.478 146.431L356.743 172.316C356.818 173.176 356.182 173.873 355.322 173.873Z" fill="#407BFF"/>
<path d="M356.322 173.873H338.937C338.077 173.873 337.319 173.176 337.243 172.316L334.978 146.431C334.903 145.571 335.539 144.873 336.399 144.873H353.784C354.644 144.873 355.402 145.57 355.478 146.431L357.743 172.316C357.818 173.176 357.182 173.873 356.322 173.873Z" fill="#407BFF"/>
<path opacity="0.5" d="M356.322 173.873H338.937C338.077 173.873 337.319 173.176 337.243 172.316L334.978 146.431C334.903 145.571 335.539 144.873 336.399 144.873H353.784C354.644 144.873 355.402 145.57 355.478 146.431L357.743 172.316C357.818 173.176 357.182 173.873 356.322 173.873Z" fill="black"/>
<path opacity="0.6" d="M353.872 145.873H336.487C336.18 145.873 335.952 146.123 335.979 146.431L338.244 172.316C338.271 172.623 338.543 172.873 338.85 172.873H356.235C356.543 172.873 356.771 172.623 356.744 172.316L354.479 146.431C354.452 146.123 354.18 145.873 353.872 145.873Z" fill="white"/>
<path opacity="0.3" d="M356.743 172.315L354.509 146.779L338.461 172.721C338.568 172.813 338.704 172.872 338.849 172.872H356.234C356.542 172.872 356.77 172.622 356.743 172.315Z" fill="white"/>
<path opacity="0.9" d="M351.135 159.374H342.131C341.557 159.374 341.05 158.909 341 158.334L340.535 153.019C340.485 152.445 340.91 151.979 341.484 151.979H350.488C351.062 151.979 351.569 152.445 351.619 153.019L352.084 158.334C352.135 158.908 351.71 159.374 351.135 159.374Z" fill="white"/>
<path opacity="0.9" d="M351.945 168.624H342.941C342.367 168.624 341.86 168.159 341.81 167.584L341.345 162.269C341.295 161.695 341.72 161.229 342.294 161.229H351.298C351.872 161.229 352.379 161.695 352.429 162.269L352.894 167.584C352.944 168.158 352.519 168.624 351.945 168.624Z" fill="white"/>
<path d="M342.285 154.114C342.11 154.114 341.956 153.972 341.941 153.798C341.926 153.623 342.055 153.482 342.23 153.482H349.462C349.637 153.482 349.791 153.624 349.806 153.798C349.821 153.973 349.692 154.114 349.517 154.114H342.285Z" fill="#263238"/>
<path d="M342.485 156.396C342.31 156.396 342.156 156.254 342.141 156.08C342.126 155.905 342.255 155.764 342.43 155.764H348.434C348.609 155.764 348.763 155.906 348.778 156.08C348.793 156.255 348.664 156.396 348.489 156.396H342.485Z" fill="#263238"/>
<path d="M342.385 155.255C342.21 155.255 342.056 155.113 342.041 154.939C342.026 154.764 342.155 154.623 342.33 154.623H347.106C347.281 154.623 347.435 154.765 347.45 154.939C347.465 155.114 347.336 155.255 347.161 155.255H342.385Z" fill="#263238"/>
<g opacity="0.5">
<path d="M342.285 154.114C342.11 154.114 341.956 153.972 341.941 153.798C341.926 153.623 342.055 153.482 342.23 153.482H349.462C349.637 153.482 349.791 153.624 349.806 153.798C349.821 153.973 349.692 154.114 349.517 154.114H342.285Z" fill="white"/>
<path d="M342.485 156.396C342.31 156.396 342.156 156.254 342.141 156.08C342.126 155.905 342.255 155.764 342.43 155.764H348.434C348.609 155.764 348.763 155.906 348.778 156.08C348.793 156.255 348.664 156.396 348.489 156.396H342.485Z" fill="white"/>
<path d="M342.385 155.255C342.21 155.255 342.056 155.113 342.041 154.939C342.026 154.764 342.155 154.623 342.33 154.623H347.106C347.281 154.623 347.435 154.765 347.45 154.939C347.465 155.114 347.336 155.255 347.161 155.255H342.385Z" fill="white"/>
</g>
<path d="M343.106 163.497C342.931 163.497 342.777 163.355 342.762 163.181C342.747 163.006 342.876 162.865 343.051 162.865H350.283C350.458 162.865 350.612 163.007 350.627 163.181C350.642 163.356 350.513 163.497 350.338 163.497H343.106Z" fill="#263238"/>
<path d="M343.206 164.638C343.031 164.638 342.877 164.496 342.862 164.322C342.847 164.147 342.976 164.006 343.151 164.006H347.927C348.102 164.006 348.256 164.148 348.271 164.322C348.286 164.497 348.157 164.638 347.982 164.638H343.206Z" fill="#263238"/>
<g opacity="0.5">
<path d="M343.106 163.497C342.931 163.497 342.777 163.355 342.762 163.181C342.747 163.006 342.876 162.865 343.051 162.865H350.283C350.458 162.865 350.612 163.007 350.627 163.181C350.642 163.356 350.513 163.497 350.338 163.497H343.106Z" fill="white"/>
<path d="M343.206 164.638C343.031 164.638 342.877 164.496 342.862 164.322C342.847 164.147 342.976 164.006 343.151 164.006H347.927C348.102 164.006 348.256 164.148 348.271 164.322C348.286 164.497 348.157 164.638 347.982 164.638H343.206Z" fill="white"/>
</g>
<path d="M370.867 129.246C371.032 128.668 370.86 128.111 370.482 128.003C370.104 127.895 369.664 128.276 369.498 128.855C369.333 129.433 369.505 129.99 369.883 130.097C370.262 130.205 370.702 129.824 370.867 129.246Z" fill="#263238"/>
<path d="M370.107 130.123L365.691 132.954C365.691 132.954 366.567 134.554 368.741 134.748L370.107 130.123Z" fill="#DE5753"/>
<path d="M390.645 135.528C387.682 142.521 386.577 145.551 381.671 147.945C374.834 149.732 366.335 146.377 367.153 138.634C367.885 131.667 372.597 121.426 380.62 121.014C386.339 120.723 391.211 125.123 391.502 130.842C391.584 132.45 391.291 134.054 390.645 135.528Z" fill="#E4897B"/>
<path d="M372.27 128.173C372.158 128.138 372.069 128.052 372.03 127.941C371.794 127.076 371.154 126.378 370.313 126.068C370.13 126.013 370.024 125.821 370.076 125.636C370.132 125.451 370.324 125.342 370.511 125.391C371.579 125.768 372.398 126.639 372.707 127.729C372.773 127.907 372.682 128.104 372.505 128.17C372.499 128.172 372.494 128.174 372.488 128.176C372.418 128.201 372.34 128.201 372.27 128.173Z" fill="#263238"/>
<path opacity="0.2" d="M374.348 144.658C374.348 144.658 369.262 145.692 367.252 141.25C367.935 144.814 370.899 147.087 374.468 147.978L375.693 147.123L375.03 145.314L374.348 144.658Z" fill="black"/>
<path d="M383.594 156.261C383.594 156.261 379.199 154.109 382.367 145.73C382.367 145.73 378.858 142.249 375.21 143.726C371.562 145.203 374.624 152.921 370.33 154.111C370.33 154.111 372.572 157.214 383.594 156.261Z" fill="#E4897B"/>
<path d="M370.681 128.123C370.681 128.123 370.048 128.014 369.611 127.305C369.611 127.305 369.677 128.097 370.519 128.399L370.681 128.123Z" fill="#263238"/>
<path d="M368.236 154.456C368.236 154.456 370.861 150.369 377.924 151.181C384.987 151.993 383.595 156.261 383.595 156.261L368.236 154.456Z" fill="#407BFF"/>
<path opacity="0.3" d="M368.236 154.456C368.236 154.456 370.861 150.369 377.924 151.181C384.987 151.993 383.595 156.261 383.595 156.261L368.236 154.456Z" fill="white"/>
<path d="M373.925 133.627C373.925 133.627 373.948 130.857 375.97 127.851C377.992 124.846 376.848 122.902 376.962 120.999C377.076 119.096 386.826 117.179 390.576 123.679C390.576 123.679 397.326 129.512 392.576 136.512C387.826 143.512 385.909 148.857 380.159 147.976C374.409 147.096 377.675 137.586 373.925 133.627Z" fill="#263238"/>
<path opacity="0.4" d="M390.576 123.682C388.865 120.716 385.907 119.513 383.183 119.252C381.693 122.574 385.631 126.254 385.631 126.254C385.631 126.254 379.847 127.68 380.769 132.416C381.691 137.153 388.426 134.66 388.426 134.66C388.426 134.66 384.177 138.777 387.29 141.213C387.971 141.746 388.624 141.848 389.232 141.708C390.229 140.154 391.3 138.398 392.577 136.515C397.326 129.515 390.576 123.682 390.576 123.682Z" fill="black"/>
<path d="M390.576 123.682C390.149 122.942 389.636 122.323 389.076 121.789C386.439 123.143 384.631 125.884 384.631 129.052C384.631 135.787 390.599 137.061 392.13 137.185C392.278 136.962 392.421 136.742 392.575 136.515C397.326 129.515 390.576 123.682 390.576 123.682Z" fill="#407BFF"/>
<path d="M374.412 131.43C373.149 132.331 372.296 133.698 372.043 135.229C371.723 137.262 373.604 138.058 375.4 137.31C377.027 136.633 379.134 134.759 378.633 132.801C378.132 130.843 375.97 130.346 374.412 131.43Z" fill="#E4897B"/>
<path d="M388.085 126.787C388.085 126.787 382.902 121.023 387.243 117.681C390.743 114.986 393.439 121.806 393.439 121.806C393.439 121.806 392.868 114.181 398.243 115.056C403.667 115.939 400.368 122.556 400.368 122.556C400.368 122.556 405.118 119.556 407.118 122.806C409.118 126.056 403.296 128.195 403.296 128.195C403.296 128.195 409.868 132.069 406.743 134.75C403.618 137.431 400.618 134.228 400.618 134.228C400.618 134.228 402.493 139.431 398.993 140.251C395.824 140.993 394.868 136.181 394.868 136.181C394.868 136.181 392.493 141.931 389.618 139.681C386.743 137.431 389.743 133.628 389.743 133.628C389.743 133.628 384.446 135.931 383.594 131.556C382.743 127.181 388.085 126.787 388.085 126.787Z" fill="#263238"/>
<path d="M397.119 172.766C397.119 172.766 406.629 193.204 402.048 195.055C397.468 196.907 383.496 200.056 383.496 200.056L376.772 202.488L372.874 199.954L373.863 193.399L383.704 195.547L395.508 190.259L389.932 177.839L397.119 172.766Z" fill="#E4897B"/>
<path d="M392.58 161.798C392.895 161.444 393.478 161.546 393.666 161.982C395.847 167.029 406.095 191.276 403.235 194.807C401.108 197.432 390.821 198.807 390.821 198.807L388.632 192.932L394.87 190.057L387.851 174.062C387.851 174.062 387.107 167.943 392.58 161.798Z" fill="#407BFF"/>
<path opacity="0.2" d="M387.851 174.06L391.593 182.589C394.693 164.15 392.58 161.797 392.58 161.797C387.107 167.942 387.851 174.06 387.851 174.06Z" fill="black"/>
<path d="M389.307 336.848L394.67 355.078L400.113 354.762L398.96 334.971L389.307 336.848Z" fill="#E4897B"/>
<path d="M361.093 201.873C361.093 201.873 354.477 215.175 360.837 239.633C367.198 264.091 392.647 349.3 392.647 349.3L399.814 348.439C399.814 348.439 400.265 317.863 390.183 293.189C390.183 293.189 385.345 251.241 387.701 241.38C389.348 234.486 390.351 228.725 387.507 218.285C385.901 212.386 384.349 208.151 382.915 205.296C381.043 201.567 381.596 200.133 381.596 200.133L361.093 201.873Z" fill="#263238"/>
<path opacity="0.5" d="M392.649 349.299L399.816 348.438C399.816 348.438 399.832 347.256 399.785 345.191L391.749 346.282C392.327 348.22 392.649 349.299 392.649 349.299Z" fill="black"/>
<path opacity="0.4" d="M369.561 270.803C378.756 245.248 376.225 226.707 376.225 226.707L370.475 225.957L365.975 233.957L362.839 247.066C364.62 253.539 366.965 261.792 369.561 270.803Z" fill="black"/>
<path d="M394.53 354.554L400.999 353.651C401.28 353.617 401.548 353.782 401.643 354.049L404.728 359.962C404.917 360.485 404.646 361.062 404.123 361.251C404.056 361.275 403.986 361.292 403.916 361.302C401.218 361.581 398.806 361.723 395.455 362.133C391.499 362.613 392.56 362.964 387.918 363.593C385.12 363.969 384.222 360.846 385.391 360.546C390.746 359.204 391.112 357.493 392.974 355.293C393.384 354.865 393.938 354.602 394.53 354.554Z" fill="#263238"/>
<path d="M391.073 347.974L401.007 346.727L400.854 349.687L392.092 350.771L391.073 347.974Z" fill="#263238"/>
<path d="M361.841 338.082L364.184 356.248H369.684L371.1 338.415L361.841 338.082Z" fill="#E4897B"/>
<path d="M352.346 199.832C352.346 199.832 352.265 201.411 351.014 204.596C348.779 210.286 345.002 221.1 346.873 237.194C349.792 262.297 363.219 350.205 363.219 350.205H370.446C370.446 350.205 375.396 320.332 369.554 294.016C369.554 294.016 367.483 256.971 370.567 247.313C372.714 240.589 378.787 234.081 377.23 219.875C375.673 205.67 371.904 200.805 371.904 200.805L352.346 199.832Z" fill="#263238"/>
<path opacity="0.5" d="M362.721 346.938C363.04 349.032 363.219 350.206 363.219 350.206H370.446C370.446 350.206 370.641 349.02 370.907 346.938H362.721Z" fill="black"/>
<path d="M364.063 355.68L370.498 355.816C370.778 355.821 371.018 356.02 371.074 356.294L372.307 362.367C372.42 362.905 372.076 363.433 371.538 363.546C371.469 363.56 371.399 363.568 371.328 363.567C368.649 363.472 366.268 363.281 362.931 363.225C358.993 363.154 359.984 363.643 355.353 363.625C352.563 363.611 352.11 360.431 353.296 360.296C358.722 359.714 360.314 358.089 362.437 356.19C362.899 355.827 363.477 355.645 364.063 355.68Z" fill="#263238"/>
<path d="M361.841 348.674H371.862L371.302 351.585H362.464L361.841 348.674Z" fill="#263238"/>
<path d="M387.736 212.43C377.482 198.305 395.361 166.93 393.267 161.062C391.173 155.194 358.611 145.43 354.333 162.063C350.055 178.695 352.326 190.078 351.683 197.306C350.736 207.931 346.361 212.181 346.361 212.181C346.361 212.181 368.986 220.68 387.736 212.43Z" fill="#407BFF"/>
<path opacity="0.2" d="M352.065 174.983C351.516 180.692 351.623 185.555 351.728 189.636C363.84 175.595 361.159 162.307 361.159 162.307L360.174 162.932L355.799 166.557C355.799 166.557 354.063 170.285 352.065 174.983Z" fill="black"/>
<path d="M333.18 172.884C333.18 172.884 336.572 190.579 340.442 193.65C344.312 196.72 357.688 174.84 357.688 174.84L351.077 170.886L341.909 183.213L336.496 170.524L337.569 163.755L335.805 159.606C335.224 158.569 333.71 158.634 333.22 159.718L331.22 164.146C330.802 165.072 330.759 166.124 331.102 167.081L333.18 172.884Z" fill="#E4897B"/>
<path d="M341.902 182.088L338.735 174.421L334.511 180.675C334.511 180.675 336.61 195.602 341.985 194.212C347.118 192.884 358.723 175.423 361.235 168.69C363.747 161.957 360.348 155.396 360.348 155.396C360.348 155.396 356.235 154.329 350.947 166.735C346.402 177.397 341.902 182.088 341.902 182.088Z" fill="#407BFF"/>
<path d="M124.601 148.18C123.463 147.219 121.723 147.565 121 148.867C116.94 156.181 105.279 178.28 108.993 184.43C113.465 191.836 134.702 191.242 134.702 191.242L135.727 184.959L122.098 177.906C122.098 177.906 126.298 169.528 127.576 166.679C129.544 162.298 132.472 154.826 124.601 148.18Z" fill="#263238"/>
<path opacity="0.4" d="M122.098 177.906C122.098 177.906 126.297 169.528 127.577 166.679C128.997 163.514 130.918 158.735 128.908 153.821L125.429 150.129L122.098 151.183C122.098 151.183 115.346 183.731 122.12 190.408C124.439 190.772 126.73 190.984 128.709 191.103C131.089 189.722 132.825 186.738 133.974 184.052L122.098 177.906Z" fill="black"/>
<path d="M144.553 117.384C144.365 116.724 144.561 116.09 144.992 115.966C145.423 115.843 145.925 116.278 146.114 116.937C146.302 117.597 146.106 118.231 145.674 118.354C145.244 118.478 144.742 118.043 144.553 117.384Z" fill="#263238"/>
<path d="M145.42 118.387L150.457 121.617C150.457 121.617 149.457 123.442 146.977 123.664L145.42 118.387Z" fill="#A24E3F"/>
<path d="M121.991 124.551C125.371 132.529 126.632 135.986 132.228 138.716C140.027 140.755 149.723 136.927 148.791 128.094C147.956 120.145 142.581 108.462 133.428 107.992C126.904 107.66 121.345 112.68 121.013 119.204C120.919 121.039 121.254 122.869 121.991 124.551Z" fill="#B97964"/>
<path d="M142.954 116.161C143.082 116.121 143.184 116.023 143.227 115.896C143.497 114.909 144.226 114.113 145.186 113.759C145.395 113.696 145.515 113.477 145.457 113.267C145.393 113.056 145.174 112.932 144.96 112.988C143.742 113.418 142.808 114.412 142.454 115.655C142.379 115.857 142.482 116.083 142.685 116.158C142.691 116.16 142.698 116.163 142.704 116.165C142.785 116.193 142.874 116.192 142.954 116.161Z" fill="#263238"/>
<path opacity="0.2" d="M140.582 134.967C140.582 134.967 146.384 136.147 148.677 131.08C147.898 135.146 144.516 137.739 140.445 138.755L139.047 137.779L139.803 135.715L140.582 134.967Z" fill="black"/>
<path d="M129.344 149.898C129.344 149.898 134.942 147.157 130.907 136.485C130.907 136.485 135.376 132.051 140.023 133.932C144.669 135.813 140.769 145.643 146.238 147.158C146.238 147.158 143.382 151.112 129.344 149.898Z" fill="#B97964"/>
<path d="M130.403 144.522C130.403 144.522 129.39 140.889 135.605 139.366C141.819 137.843 146.986 139.713 147.814 142.436C148.642 145.16 130.403 144.522 130.403 144.522Z" fill="#263238"/>
<path opacity="0.2" d="M130.403 144.522C130.403 144.522 129.39 140.889 135.605 139.366C141.819 137.843 146.986 139.713 147.814 142.436C148.642 145.16 130.403 144.522 130.403 144.522Z" fill="white"/>
<path d="M142.956 122.591C142.956 122.591 144.996 120.897 142.956 119.024C140.916 117.151 137.933 115.556 138.811 112.974C139.689 110.392 135.694 108.607 135.694 108.607C135.694 108.607 139.604 106.057 137.309 104.017C134.948 101.918 133.975 105.802 128.468 107.978C122.127 110.484 115.037 116.513 119.372 124.418C123.707 132.324 127.533 138.954 132.718 137.679C137.903 136.404 140.369 126.373 140.369 126.373L142.956 122.591Z" fill="#263238"/>
<path d="M141.53 119.875C142.971 120.903 143.944 122.462 144.233 124.209C144.599 126.529 142.452 127.437 140.404 126.583C138.548 125.811 136.144 123.673 136.715 121.439C137.286 119.206 139.754 118.639 141.53 119.875Z" fill="#B97964"/>
<path d="M153.73 342.467L155.697 355.806L163.722 355.512L164.325 341.707L153.73 342.467Z" fill="#B97964"/>
<path d="M163.28 354.56L155.371 354.727C155.027 354.733 154.732 354.977 154.663 355.315L153.147 362.779C153.008 363.44 153.431 364.089 154.092 364.228C154.177 364.246 154.264 364.255 154.35 364.254C157.643 364.137 160.569 363.903 164.67 363.833C169.51 363.746 168.292 364.347 173.983 364.325C177.412 364.308 177.968 360.399 176.511 360.234C169.843 359.518 167.886 357.522 165.277 355.187C164.711 354.741 164 354.518 163.28 354.56Z" fill="#263238"/>
<path d="M114.612 342.467L114.092 354.288L122.423 355.379L125.206 341.707L114.612 342.467Z" fill="#B97964"/>
<path d="M121.938 353.238L114.043 352.742C113.699 352.719 113.386 352.938 113.288 353.268L111.152 360.579C110.958 361.226 111.325 361.908 111.972 362.102C112.055 362.127 112.141 362.143 112.227 362.15C115.518 362.309 118.453 362.321 122.546 362.595C127.376 362.914 126.112 363.411 131.785 363.865C135.203 364.135 136.085 360.287 134.647 360C128.062 358.728 126.28 356.575 123.875 354.03C123.349 353.539 122.659 353.256 121.938 353.238Z" fill="#263238"/>
<path d="M133.712 185.286L138.616 186.465L146.918 184.367L148.259 188.033L149.291 193.172L142.688 194.301L137.263 191.031L130.342 190.891L133.712 185.286Z" fill="#B97964"/>
<path d="M121.979 149.516L126.03 206.45L169.553 206.79C169.553 206.79 174.863 191.066 168.301 168.792L161.891 147.306C161.352 145.498 159.904 144.107 158.072 143.655C151.619 142.063 135.93 140.159 123.687 146.482C122.564 147.061 121.89 148.254 121.979 149.516Z" fill="#263238"/>
<path d="M125.05 206.898C122.612 218.183 121.973 226.089 122.007 231.37C122.019 233.238 122.115 234.778 122.245 236.022C122.637 239.765 122.774 243.533 122.541 247.291L122.481 248.258C121.81 259.095 121.694 270.168 121.712 277.467C121.712 277.518 121.712 277.57 121.712 277.621C121.725 282.412 120.975 287.161 119.487 291.688C119.255 292.394 119.032 293.116 118.817 293.855C112.668 314.946 113.194 348.61 113.194 348.61L125.126 349.282L157.963 204.836H127.489C126.318 204.835 125.311 205.694 125.05 206.898Z" fill="#407BFF"/>
<path opacity="0.2" d="M142.891 228.781L138.804 227.84L136.28 224.781C136.28 224.781 136.536 247.648 143.165 269.928L149.626 241.507L142.891 228.781Z" fill="black"/>
<path d="M112.139 346.287L112.314 349.801L125.895 350.358L126.498 346.792L112.139 346.287Z" fill="#407BFF"/>
<path opacity="0.3" d="M112.139 346.287L112.314 349.801L125.895 350.358L126.498 346.792L112.139 346.287Z" fill="black"/>
<path d="M137.038 204.834C134.253 221.53 135.968 231.049 137.82 236.027C138.001 236.514 138.183 236.957 138.363 237.359C139.71 240.375 140.664 243.564 141.094 246.867C141.114 247.023 141.135 247.179 141.156 247.336C142.877 260.288 146.174 273.878 148.154 281.404C148.164 281.441 148.173 281.477 148.183 281.514C149.054 284.82 149.31 288.274 148.842 291.669C148.689 292.778 148.572 293.967 148.487 295.223C147.172 314.663 153.563 350.1 153.563 350.1L165.242 349.024L170.347 206.519C170.38 205.599 169.681 204.834 168.808 204.834H137.038Z" fill="#407BFF"/>
<path d="M152.053 348.311L153.051 351.741L166.174 350.602L166.366 346.984L152.053 348.311Z" fill="#407BFF"/>
<path opacity="0.3" d="M152.053 348.311L153.051 351.741L166.174 350.602L166.366 346.984L152.053 348.311Z" fill="black"/>
<g opacity="0.7">
<path d="M159.322 207.258H137.274V210.318H159.322V207.258Z" fill="white"/>
<path d="M134.359 207.258H125.89L125.429 210.318H134.359V207.258Z" fill="white"/>
<path d="M169.016 207.258H162.298V210.318H169.016V207.258Z" fill="white"/>
</g>
<path opacity="0.4" d="M168.3 168.792L164.839 157.19L162.471 153.887L159.411 151.535L157.963 155.105C157.963 155.105 158.856 166.328 169.728 174.349C169.33 172.547 168.861 170.695 168.3 168.792Z" fill="black"/>
<path d="M189.062 149.494L191.169 144.911L190.796 137.782C190.748 136.87 191.054 135.974 191.651 135.283L192.869 133.872C194.287 132.231 196.835 132.239 198.242 133.889L198.939 134.707C199.505 135.372 199.807 136.222 199.785 137.095L199.68 141.12C199.658 141.968 199.332 142.78 198.762 143.408L195.387 147.123L193.908 153.885L189.062 149.494Z" fill="#B97964"/>
<path d="M161.691 144.731L182.227 161.263L189.404 147.375L195.566 149.954C195.566 149.954 191.178 174.612 185.562 175.007C179.946 175.402 165.894 168.75 160.108 160.844C155.901 155.095 157.812 148.514 159.168 145.351C159.594 144.357 160.849 144.053 161.691 144.731Z" fill="#263238"/>
</svg>
