<svg width="500" height="400" viewBox="0 0 500 400" fill="none" xmlns="http://www.w3.org/2000/svg">
<path d="M449.901 348.492H416.779V348.742H449.901V348.492Z" fill="#EBEBEB"/>
<path d="M331.22 351.207H322.527V351.457H331.22V351.207Z" fill="#EBEBEB"/>
<path d="M415.778 339.207H396.586V339.457H415.778V339.207Z" fill="#EBEBEB"/>
<path d="M95.652 340.887H52.459V341.137H95.652V340.887Z" fill="#EBEBEB"/>
<path d="M110.889 340.887H104.556V341.137H110.889V340.887Z" fill="#EBEBEB"/>
<path d="M225.147 345.109H131.471V345.359H225.147V345.109Z" fill="#EBEBEB"/>
<path d="M237.014 287.799H43.915C40.768 287.799 38.207 285.238 38.207 282.091V10.6592C38.207 7.51217 40.768 4.95117 43.915 4.95117H237.014C240.16 4.95117 242.721 7.51217 242.721 10.6592V282.091C242.721 285.238 240.16 287.799 237.014 287.799ZM43.915 5.20217C40.905 5.20217 38.457 7.65017 38.457 10.6602V282.092C38.457 285.102 40.905 287.55 43.915 287.55H237.014C240.023 287.55 242.471 285.102 242.471 282.092V10.6592C242.471 7.65017 240.023 5.20117 237.014 5.20117L43.915 5.20217Z" fill="#EBEBEB"/>
<path d="M453.31 287.799H260.212C257.065 287.799 254.505 285.238 254.505 282.091V10.6592C254.505 7.51217 257.066 4.95117 260.212 4.95117H453.31C456.458 4.95117 459.018 7.51217 459.018 10.6592V282.091C459.019 285.238 456.458 287.799 453.31 287.799ZM260.212 5.20217C257.203 5.20217 254.755 7.65017 254.755 10.6602V282.092C254.755 285.102 257.203 287.55 260.212 287.55H453.31C456.32 287.55 458.768 285.102 458.768 282.092V10.6592C458.768 7.65017 456.32 5.20117 453.31 5.20117L260.212 5.20217Z" fill="#EBEBEB"/>
<path d="M500 332.396H0V332.646H500V332.396Z" fill="#EBEBEB"/>
<path d="M106.923 332.879H81.342C79.383 332.879 77.761 331.359 77.632 329.405L74.119 275.828C73.978 273.684 75.68 271.867 77.828 271.867H110.434C112.583 271.867 114.284 273.683 114.143 275.828L110.63 329.405C110.504 331.36 108.881 332.879 106.923 332.879Z" fill="#F5F5F5"/>
<path d="M114.019 274.668C113.61 273.071 112.179 271.867 110.435 271.867H77.83C76.086 271.867 74.655 273.071 74.246 274.668L74.145 276.208L74.246 277.748C74.655 279.345 76.086 280.549 77.83 280.549H110.436C112.18 280.549 113.611 279.345 114.02 277.748L114.121 276.208L114.019 274.668Z" fill="#EBEBEB"/>
<path d="M76.4232 222.804C72.2512 217.662 64.1882 214.231 55.3362 212.579C56.0302 215.111 55.5102 217.447 54.0132 218.02C52.3432 218.66 50.1042 216.867 49.0112 214.016C48.7032 213.211 48.5312 212.414 48.4642 211.662C39.5392 210.937 30.6142 211.963 24.6582 214.822C24.6582 214.822 30.4902 220.078 37.0952 233.899C37.2982 233.892 37.5012 233.885 37.7082 233.887C41.9832 233.93 45.4282 235.994 45.4032 238.497C45.3852 240.326 43.5152 241.879 40.8452 242.568C41.1922 243.453 41.5392 244.353 41.8842 245.288C48.1762 262.318 64.9632 250.007 64.8122 238.351C64.8122 238.351 85.7722 234.327 76.4232 222.804Z" fill="#F0F0F0"/>
<path d="M31.807 217.137C31.499 217.021 31.335 216.965 31.335 216.965C31.494 217.02 31.649 217.08 31.807 217.137Z" fill="#E0E0E0"/>
<path d="M57.8421 231.623C57.7031 229.506 57.8651 223.858 63.0551 220.634C63.0551 220.634 57.3071 221.492 56.4791 230.563C49.5001 225.249 41.3191 220.533 31.8081 217.137C34.4691 218.137 48.0151 223.658 61.9451 236.792C61.7581 236.796 54.5011 236.99 51.3611 244.28C51.3611 244.28 55.8211 237.856 63.4391 238.216C72.7361 247.339 82.0361 259.9 88.2261 276.835C88.5001 277.585 89.3281 277.974 90.0741 277.688C90.8181 277.403 91.1891 276.574 90.8941 275.833C88.6631 270.237 78.9581 248.307 57.8421 231.623Z" fill="#E0E0E0"/>
<path d="M100.654 222.922C103.466 216.927 110.466 211.656 118.66 207.922C118.596 210.547 119.663 212.689 121.254 212.885C123.029 213.104 124.771 210.825 125.145 207.794C125.251 206.939 125.225 206.124 125.11 205.377C133.598 202.525 142.507 201.373 148.977 202.714C148.977 202.714 144.582 209.219 141.498 224.224C141.299 224.266 141.101 224.308 140.9 224.36C136.761 225.431 133.914 228.264 134.541 230.687C134.999 232.458 137.187 233.515 139.945 233.541C139.821 234.484 139.702 235.441 139.591 236.431C137.583 254.475 118.326 246.567 115.667 235.217C115.667 235.217 94.3543 236.356 100.654 222.922Z" fill="#E0E0E0"/>
<path d="M142.594 206.681C142.865 206.494 143.011 206.4 143.011 206.4C142.87 206.492 142.733 206.588 142.594 206.681Z" fill="#F5F5F5"/>
<path d="M99.3752 277.873C99.2672 278.663 99.8262 279.378 100.617 279.476C101.409 279.574 102.119 278.997 102.205 278.203C104.136 260.276 110.14 245.846 116.967 234.753C124.274 232.57 130.149 237.731 130.149 237.731C125.347 231.412 118.256 232.97 118.074 233.011C128.432 216.911 140.251 208.292 142.593 206.68C134.179 212.265 127.373 218.812 121.879 225.649C118.892 217.044 113.106 217.594 113.106 217.594C118.919 219.474 120.436 224.917 120.81 227.005C104.332 248.283 100.191 271.905 99.3752 277.873Z" fill="#F5F5F5"/>
<path d="M106.644 221.118C105.315 214.631 99.7444 207.867 92.6534 202.318C92.1014 204.885 90.5614 206.717 88.9684 206.535C87.1914 206.332 86.0324 203.709 86.3784 200.675C86.4764 199.819 86.6914 199.033 86.9794 198.334C79.3954 193.573 71.0034 190.366 64.4004 190.154C64.4004 190.154 67.1494 197.508 66.6324 212.817C66.8154 212.904 66.9994 212.992 67.1814 213.089C70.9544 215.1 73.0584 218.52 71.8814 220.73C71.0214 222.344 68.6464 222.859 65.9594 222.239C65.8594 223.184 65.7514 224.143 65.6264 225.132C63.3524 243.144 83.9254 239.967 89.1684 229.555C89.1684 229.555 109.622 235.654 106.644 221.118Z" fill="#F5F5F5"/>
<path d="M69.6764 195.505C69.4564 195.26 69.3364 195.135 69.3364 195.135C69.4524 195.257 69.5624 195.382 69.6764 195.505Z" fill="#E0E0E0"/>
<path d="M86.0913 220.367C86.9443 218.424 89.6943 213.489 95.7853 213.022C95.7853 213.022 90.2893 211.131 85.3703 218.798C81.6303 210.863 76.5473 202.905 69.6763 195.504C71.5763 197.619 81.0473 208.767 87.3453 226.846C87.1773 226.763 80.6493 223.588 74.5003 228.606C74.5003 228.606 81.4213 224.965 88.0133 228.799C92.0523 241.183 94.5083 256.617 92.1863 274.498C92.0833 275.29 92.6383 276.017 93.4323 276.107C94.2243 276.197 94.9353 275.633 95.0153 274.84C95.6213 268.846 97.1283 244.912 86.0913 220.367Z" fill="#E0E0E0"/>
<path d="M77.8628 177.748H74.3628L99.6398 65.248H103.14L77.8628 177.748Z" fill="#F5F5F5"/>
<path d="M71.6128 177.748H61.3628L86.6398 65.248H96.8898L71.6128 177.748Z" fill="#F5F5F5"/>
<path d="M101.614 177.748H87.3638L112.641 65.248H126.891L101.614 177.748Z" fill="#FAFAFA"/>
<path d="M132.92 181.739H53.8589V61.4258H132.92V181.739ZM58.8589 176.739H127.92V66.4258H58.8589V176.739Z" fill="#EBEBEB"/>
<path d="M139.42 176.738H47.3589V181.739H139.42V176.738Z" fill="#E0E0E0"/>
<path d="M94.8896 63.9258H91.8896V179.239H94.8896V63.9258Z" fill="#EBEBEB"/>
<path d="M130.42 120.082H56.3589V123.082H130.42V120.082Z" fill="#E0E0E0"/>
<path d="M245.178 373.714C352.26 373.714 439.067 368.645 439.067 362.391C439.067 356.138 352.26 351.068 245.178 351.068C138.096 351.068 51.2891 356.138 51.2891 362.391C51.2891 368.645 138.096 373.714 245.178 373.714Z" fill="#F5F5F5"/>
<path d="M279.819 357.116L298.538 338.398L317.257 357.116C317.739 357.598 318.393 357.869 319.076 357.869C321.367 357.869 322.515 355.099 320.894 353.478L298.538 331.123L276.182 353.478C274.562 355.098 275.709 357.869 278.001 357.869C278.682 357.869 279.337 357.599 279.819 357.116Z" fill="#407BFF"/>
<path opacity="0.2" d="M299.171 331.758H297.904L292.168 337.494V344.497H292.439L298.538 338.399L304.637 344.497H304.908V337.494L299.171 331.758Z" fill="black"/>
<path d="M299.368 357.869H297.707C296.05 357.869 294.707 356.526 294.707 354.869V291.713H302.367V354.868C302.368 356.527 301.025 357.869 299.368 357.869Z" fill="#407BFF"/>
<path opacity="0.2" d="M302.368 291.715H294.707V296.359H302.368V291.715Z" fill="black"/>
<path d="M434.875 293.428H162.201C156.601 293.428 152.045 288.872 152.045 283.272V62.0703H445.03V283.272C445.03 288.873 440.475 293.428 434.875 293.428ZM155.475 65.5003V283.272C155.475 286.981 158.493 289.999 162.201 289.999H434.875C438.584 289.999 441.601 286.981 441.601 283.272V65.5003H155.475Z" fill="#407BFF"/>
<g opacity="0.8">
<path d="M434.875 293.428H162.201C156.601 293.428 152.045 288.872 152.045 283.272V62.0703H445.03V283.272C445.03 288.873 440.475 293.428 434.875 293.428ZM155.475 65.5003V283.272C155.475 286.981 158.493 289.999 162.201 289.999H434.875C438.584 289.999 441.601 286.981 441.601 283.272V65.5003H155.475Z" fill="white"/>
</g>
<g opacity="0.8">
<path d="M155.475 65.5V283.272C155.475 286.981 158.493 289.999 162.201 289.999H434.875C438.584 289.999 441.601 286.981 441.601 283.272V65.5H155.475Z" fill="white"/>
</g>
<path d="M451.648 59.9277H145.428V67.6437H451.648V59.9277Z" fill="#407BFF"/>
<path opacity="0.5" d="M451.648 59.9277H145.428V67.6437H451.648V59.9277Z" fill="white"/>
<path opacity="0.5" d="M451.648 59.9277H145.428V63.7857H451.648V59.9277Z" fill="white"/>
<path d="M347.203 244.587V243.129H335.974V231.809H334.517V243.129H323.741V231.809H322.283V243.129H311.692V231.809H310.234V243.129H299.734V231.809H298.276V243.129H287.5V231.809H286.043V243.129H274.907V244.587H286.043V255.179H274.907V256.637H286.043V267.228H274.907V268.685H286.043V280.006H287.5V268.685H298.276V280.006H299.734V268.685H310.234V280.006H311.692V268.685H322.283V280.006H323.741V268.685H334.517V280.006H335.974V268.685H347.203V267.228H335.974V256.637H347.203V255.179H335.974V244.587H347.203ZM322.283 244.587V255.179H311.692V244.587H322.283ZM310.234 244.587V255.179H299.734V244.587H310.234ZM287.501 244.587H298.277V255.179H287.501V244.587ZM287.501 267.228V256.637H298.277V267.228H287.501ZM299.734 267.228V256.637H310.234V267.228H299.734ZM311.691 267.228V256.637H322.282V267.228H311.691ZM334.517 267.228H323.741V256.637H334.517V267.228ZM334.517 255.179H323.741V244.587H334.517V255.179Z" fill="#407BFF"/>
<path opacity="0.7" d="M347.203 244.587V243.129H335.974V231.809H334.517V243.129H323.741V231.809H322.283V243.129H311.692V231.809H310.234V243.129H299.734V231.809H298.276V243.129H287.5V231.809H286.043V243.129H274.907V244.587H286.043V255.179H274.907V256.637H286.043V267.228H274.907V268.685H286.043V280.006H287.5V268.685H298.276V280.006H299.734V268.685H310.234V280.006H311.692V268.685H322.283V280.006H323.741V268.685H334.517V280.006H335.974V268.685H347.203V267.228H335.974V256.637H347.203V255.179H335.974V244.587H347.203ZM322.283 244.587V255.179H311.692V244.587H322.283ZM310.234 244.587V255.179H299.734V244.587H310.234ZM287.501 244.587H298.277V255.179H287.501V244.587ZM287.501 267.228V256.637H298.277V267.228H287.501ZM299.734 267.228V256.637H310.234V267.228H299.734ZM311.691 267.228V256.637H322.282V267.228H311.691ZM334.517 267.228H323.741V256.637H334.517V267.228ZM334.517 255.179H323.741V244.587H334.517V255.179Z" fill="white"/>
<path d="M343.535 281.465H278.561C275.746 281.465 273.446 279.175 273.436 276.359L273.28 235.497C273.275 234.124 273.806 232.832 274.774 231.86C275.743 230.888 277.032 230.352 278.405 230.352H343.535C346.361 230.352 348.66 232.651 348.66 235.477V276.339C348.66 279.165 346.361 281.465 343.535 281.465ZM278.405 233.268C277.813 233.268 277.257 233.499 276.839 233.918C276.421 234.337 276.192 234.895 276.195 235.486L276.351 276.348C276.356 277.562 277.347 278.55 278.561 278.55H343.535C344.754 278.55 345.745 277.559 345.745 276.339V235.477C345.745 234.259 344.754 233.267 343.535 233.267H278.405V233.268Z" fill="#407BFF"/>
<g opacity="0.8">
<path d="M343.535 281.465H278.561C275.746 281.465 273.446 279.175 273.436 276.359L273.28 235.497C273.275 234.124 273.806 232.832 274.774 231.86C275.743 230.888 277.032 230.352 278.405 230.352H343.535C346.361 230.352 348.66 232.651 348.66 235.477V276.339C348.66 279.165 346.361 281.465 343.535 281.465ZM278.405 233.268C277.813 233.268 277.257 233.499 276.839 233.918C276.421 234.337 276.192 234.895 276.195 235.486L276.351 276.348C276.356 277.562 277.347 278.55 278.561 278.55H343.535C344.754 278.55 345.745 277.559 345.745 276.339V235.477C345.745 234.259 344.754 233.267 343.535 233.267H278.405V233.268Z" fill="white"/>
</g>
<path d="M335.245 252.595V246.57H276.237L276.26 252.595H335.245Z" fill="#407BFF"/>
<path opacity="0.6" d="M335.245 252.595V246.57H276.237L276.26 252.595H335.245Z" fill="white"/>
<path d="M323.012 234.822H276.304C276.238 235.035 276.194 235.256 276.195 235.486L276.215 240.847H323.012V234.822Z" fill="#407BFF"/>
<path opacity="0.3" d="M323.012 234.822H276.304C276.238 235.035 276.194 235.256 276.195 235.486L276.215 240.847H323.012V234.822Z" fill="white"/>
<path d="M341.375 270.969H276.33L276.351 276.347C276.352 276.574 276.397 276.788 276.462 276.994H341.376V270.969H341.375Z" fill="#407BFF"/>
<path opacity="0.2" d="M341.375 270.969H276.33L276.351 276.347C276.352 276.574 276.397 276.788 276.462 276.994H341.376V270.969H341.375Z" fill="black"/>
<path d="M310.963 264.944V258.92H276.284L276.307 264.944H310.963Z" fill="#407BFF"/>
<path d="M430.622 99.5839V98.1259H407.252V74.7559H405.794V98.1259H383.153V74.7559H381.695V98.1259H359.054V74.7559H357.596V98.1259H334.955V74.7559H333.5V98.1259H310.859V74.7559H309.401V98.1259H286.76V74.7559H285.303V98.1259H262.662V74.7559H261.204V98.1259H238.563V74.7559H237.105V98.1259H214.464V74.7559H213.007V98.1259H190.366V74.7559H188.908V98.1259H165.538V99.5839H188.908V122.225H165.538V123.683H188.908V146.324H165.538V147.781H188.908V170.421H165.538V171.878H188.908V194.519H165.538V195.977H188.908V219.347H190.366V195.977H213.007V219.347H214.464V195.977H237.105V219.347H238.563V195.977H261.204V219.347H262.662V195.977H285.303V219.347H286.76V195.977H309.401V219.347H310.859V195.977H333.5V219.347H334.957V195.977H357.598V219.347H359.056V195.977H381.697V219.347H383.155V195.977H405.796V219.347H407.254V195.977H430.624V194.519H407.254V171.878H430.624V170.421H407.254V147.781H430.624V146.324H407.254V123.683H430.624V122.225H407.254V99.5839H430.622ZM381.697 99.5839V122.225H359.056V99.5839H381.697ZM333.5 146.323H310.859V123.682H333.5V146.323ZM334.957 123.682H357.598V146.323H334.957V123.682ZM309.401 146.323H286.76V123.682H309.401V146.323ZM285.303 146.323H262.662V123.682H285.303V146.323ZM261.204 146.323H238.563V123.682H261.204V146.323ZM237.106 146.323H214.465V123.682H237.106V146.323ZM237.106 147.781V170.421H214.465V147.781H237.106ZM238.563 147.781H261.204V170.421H238.563V147.781ZM262.662 147.781H285.303V170.421H262.662V147.781ZM286.76 147.781H309.401V170.421H286.76V147.781ZM310.859 147.781H333.5V170.421H310.859V147.781ZM334.957 147.781H357.598V170.421H334.957V147.781ZM359.056 147.781H381.697V170.421H359.056V147.781ZM359.056 146.323V123.682H381.697V146.323H359.056ZM357.598 99.5839V122.225H334.957V99.5839H357.598ZM333.5 99.5839V122.225H310.859V99.5839H333.5ZM309.401 99.5839V122.225H286.76V99.5839H309.401ZM285.303 99.5839V122.225H262.662V99.5839H285.303ZM261.204 99.5839V122.225H238.563V99.5839H261.204ZM237.106 99.5839V122.225H214.465V99.5839H237.106ZM190.367 99.5839H213.008V122.225H190.367V99.5839ZM190.367 123.682H213.008V146.323H190.367V123.682ZM190.367 147.781H213.008V170.421H190.367V147.781ZM190.367 194.519V171.878H213.008V194.519H190.367ZM214.465 194.519V171.878H237.106V194.519H214.465ZM238.563 194.519V171.878H261.204V194.519H238.563ZM262.662 194.519V171.878H285.303V194.519H262.662ZM286.76 194.519V171.878H309.401V194.519H286.76ZM310.859 194.519V171.878H333.5V194.519H310.859ZM334.957 194.519V171.878H357.598V194.519H334.957ZM359.056 194.519V171.878H381.697V194.519H359.056ZM405.795 194.519H383.154V171.878H405.795V194.519ZM405.795 170.421H383.154V147.781H405.795V170.421ZM405.795 146.323H383.154V123.682H405.795V146.323ZM405.795 122.225H383.154V99.5839H405.795V122.225Z" fill="#407BFF"/>
<path opacity="0.7" d="M430.622 99.5839V98.1259H407.252V74.7559H405.794V98.1259H383.153V74.7559H381.695V98.1259H359.054V74.7559H357.596V98.1259H334.955V74.7559H333.5V98.1259H310.859V74.7559H309.401V98.1259H286.76V74.7559H285.303V98.1259H262.662V74.7559H261.204V98.1259H238.563V74.7559H237.105V98.1259H214.464V74.7559H213.007V98.1259H190.366V74.7559H188.908V98.1259H165.538V99.5839H188.908V122.225H165.538V123.683H188.908V146.324H165.538V147.781H188.908V170.421H165.538V171.878H188.908V194.519H165.538V195.977H188.908V219.347H190.366V195.977H213.007V219.347H214.464V195.977H237.105V219.347H238.563V195.977H261.204V219.347H262.662V195.977H285.303V219.347H286.76V195.977H309.401V219.347H310.859V195.977H333.5V219.347H334.957V195.977H357.598V219.347H359.056V195.977H381.697V219.347H383.155V195.977H405.796V219.347H407.254V195.977H430.624V194.519H407.254V171.878H430.624V170.421H407.254V147.781H430.624V146.324H407.254V123.683H430.624V122.225H407.254V99.5839H430.622ZM381.697 99.5839V122.225H359.056V99.5839H381.697ZM333.5 146.323H310.859V123.682H333.5V146.323ZM334.957 123.682H357.598V146.323H334.957V123.682ZM309.401 146.323H286.76V123.682H309.401V146.323ZM285.303 146.323H262.662V123.682H285.303V146.323ZM261.204 146.323H238.563V123.682H261.204V146.323ZM237.106 146.323H214.465V123.682H237.106V146.323ZM237.106 147.781V170.421H214.465V147.781H237.106ZM238.563 147.781H261.204V170.421H238.563V147.781ZM262.662 147.781H285.303V170.421H262.662V147.781ZM286.76 147.781H309.401V170.421H286.76V147.781ZM310.859 147.781H333.5V170.421H310.859V147.781ZM334.957 147.781H357.598V170.421H334.957V147.781ZM359.056 147.781H381.697V170.421H359.056V147.781ZM359.056 146.323V123.682H381.697V146.323H359.056ZM357.598 99.5839V122.225H334.957V99.5839H357.598ZM333.5 99.5839V122.225H310.859V99.5839H333.5ZM309.401 99.5839V122.225H286.76V99.5839H309.401ZM285.303 99.5839V122.225H262.662V99.5839H285.303ZM261.204 99.5839V122.225H238.563V99.5839H261.204ZM237.106 99.5839V122.225H214.465V99.5839H237.106ZM190.367 99.5839H213.008V122.225H190.367V99.5839ZM190.367 123.682H213.008V146.323H190.367V123.682ZM190.367 147.781H213.008V170.421H190.367V147.781ZM190.367 194.519V171.878H213.008V194.519H190.367ZM214.465 194.519V171.878H237.106V194.519H214.465ZM238.563 194.519V171.878H261.204V194.519H238.563ZM262.662 194.519V171.878H285.303V194.519H262.662ZM286.76 194.519V171.878H309.401V194.519H286.76ZM310.859 194.519V171.878H333.5V194.519H310.859ZM334.957 194.519V171.878H357.598V194.519H334.957ZM359.056 194.519V171.878H381.697V194.519H359.056ZM405.795 194.519H383.154V171.878H405.795V194.519ZM405.795 170.421H383.154V147.781H405.795V170.421ZM405.795 146.323H383.154V123.682H405.795V146.323ZM405.795 122.225H383.154V99.5839H405.795V122.225Z" fill="white"/>
<path d="M426.823 220.804H169.339C167.935 220.804 166.614 220.257 165.622 219.265C164.629 218.271 164.082 216.951 164.082 215.547V78.5558C164.082 75.6568 166.44 73.2988 169.339 73.2988H426.822C429.721 73.2988 432.079 75.6578 432.079 78.5558V215.547C432.08 218.446 429.721 220.804 426.823 220.804ZM169.339 76.2138C168.047 76.2138 166.997 77.2638 166.997 78.5558V215.547C166.997 216.173 167.241 216.761 167.683 217.203C168.125 217.646 168.714 217.889 169.339 217.889H426.822C428.113 217.889 429.164 216.839 429.164 215.547V78.5558C429.164 77.2638 428.113 76.2138 426.822 76.2138H169.339Z" fill="#407BFF"/>
<g opacity="0.8">
<path d="M426.823 220.804H169.339C167.935 220.804 166.614 220.257 165.622 219.265C164.629 218.271 164.082 216.951 164.082 215.547V78.5558C164.082 75.6568 166.44 73.2988 169.339 73.2988H426.822C429.721 73.2988 432.079 75.6578 432.079 78.5558V215.547C432.08 218.446 429.721 220.804 426.823 220.804ZM169.339 76.2138C168.047 76.2138 166.997 77.2638 166.997 78.5558V215.547C166.997 216.173 167.241 216.761 167.683 217.203C168.125 217.646 168.714 217.889 169.339 217.889H426.822C428.113 217.889 429.164 216.839 429.164 215.547V78.5558C429.164 77.2638 428.113 76.2138 426.822 76.2138H169.339Z" fill="white"/>
</g>
<path d="M233.014 154.281H218.555V217.889H233.014V154.281Z" fill="#407BFF"/>
<path d="M257.112 132.594H242.653V217.891H257.112V132.594Z" fill="#407BFF"/>
<path opacity="0.6" d="M257.112 132.594H242.653V217.891H257.112V132.594Z" fill="white"/>
<path d="M281.211 154.281H266.752V217.889H281.211V154.281Z" fill="#407BFF"/>
<path opacity="0.3" d="M281.211 154.281H266.752V217.889H281.211V154.281Z" fill="white"/>
<path d="M184.817 175.971H170.358V217.89H184.817V175.971Z" fill="#407BFF"/>
<path opacity="0.6" d="M184.817 175.971H170.358V217.89H184.817V175.971Z" fill="white"/>
<path d="M208.916 165.498H194.457V217.889H208.916V165.498Z" fill="#407BFF"/>
<path opacity="0.3" d="M208.916 165.498H194.457V217.889H208.916V165.498Z" fill="white"/>
<path d="M305.31 175.971H290.851V217.89H305.31V175.971Z" fill="#407BFF"/>
<path d="M425.802 110.904H411.343V217.889H425.802V110.904Z" fill="#407BFF"/>
<path opacity="0.3" d="M425.802 110.904H411.343V217.889H425.802V110.904Z" fill="white"/>
<path d="M329.408 154.281H314.949V217.889H329.408V154.281Z" fill="#407BFF"/>
<path opacity="0.6" d="M329.408 154.281H314.949V217.889H329.408V154.281Z" fill="white"/>
<path d="M401.704 132.594H387.245V217.891H401.704V132.594Z" fill="#407BFF"/>
<path opacity="0.6" d="M401.704 132.594H387.245V217.891H401.704V132.594Z" fill="white"/>
<path d="M377.605 143.809H363.146V217.889H377.605V143.809Z" fill="#407BFF"/>
<path d="M353.506 165.498H339.047V217.889H353.506V165.498Z" fill="#407BFF"/>
<path opacity="0.3" d="M353.506 165.498H339.047V217.889H353.506V165.498Z" fill="white"/>
<path d="M396.741 231.857V237.897C400.636 238.208 404.181 239.752 406.988 242.141L411.258 237.871C407.345 234.403 402.298 232.189 396.741 231.857Z" fill="#407BFF"/>
<path opacity="0.3" d="M396.741 231.857V237.897C400.636 238.208 404.181 239.752 406.988 242.141L411.258 237.871C407.345 234.403 402.298 232.189 396.741 231.857Z" fill="white"/>
<path d="M393.826 273.918C385.008 273.214 377.978 266.184 377.273 257.365H371.233C371.958 269.512 381.679 279.233 393.826 279.958V273.918Z" fill="#407BFF"/>
<path opacity="0.7" d="M393.826 273.918C385.008 273.214 377.978 266.184 377.273 257.365H371.233C371.958 269.512 381.679 279.233 393.826 279.958V273.918Z" fill="white"/>
<path d="M377.272 254.451C377.977 245.633 385.007 238.603 393.825 237.899V231.859C381.678 232.584 371.958 242.305 371.233 254.452L377.272 254.451Z" fill="#407BFF"/>
<path opacity="0.2" d="M377.272 254.451C377.977 245.633 385.007 238.603 393.825 237.899V231.859C381.678 232.584 371.958 242.305 371.233 254.452L377.272 254.451Z" fill="black"/>
<path d="M413.319 239.934L409.049 244.204C411.733 247.358 413.357 251.443 413.357 255.909C413.357 265.4 406.04 273.176 396.741 273.919V279.959C409.371 279.205 419.382 268.728 419.382 255.908C419.382 249.778 417.089 244.186 413.319 239.934Z" fill="#407BFF"/>
<path d="M250.717 244.589V243.131H239.488V231.811H238.03V243.131H227.254V231.811H225.796V243.131H215.205V231.811H213.747V243.131H203.247V231.811H201.789V243.131H191.013V231.811H189.555V243.131H178.419V244.589H189.555V255.181H178.419V256.639H189.555V267.23H178.419V268.687H189.555V280.008H191.013V268.687H201.789V280.008H203.247V268.687H213.747V280.008H215.205V268.687H225.796V280.008H227.254V268.687H238.03V280.008H239.488V268.687H250.717V267.23H239.488V256.639H250.717V255.181H239.488V244.589H250.717ZM225.797 244.589V255.181H215.206V244.589H225.797ZM213.748 244.589V255.181H203.248V244.589H213.748ZM191.015 244.589H201.791V255.181H191.015V244.589ZM191.015 267.23V256.639H201.791V267.23H191.015ZM203.248 267.23V256.639H213.748V267.23H203.248ZM215.206 267.23V256.639H225.797V267.23H215.206ZM238.031 267.23H227.255V256.639H238.031V267.23ZM238.031 255.181H227.255V244.589H238.031V255.181Z" fill="#407BFF"/>
<path opacity="0.7" d="M250.717 244.589V243.131H239.488V231.811H238.03V243.131H227.254V231.811H225.796V243.131H215.205V231.811H213.747V243.131H203.247V231.811H201.789V243.131H191.013V231.811H189.555V243.131H178.419V244.589H189.555V255.181H178.419V256.639H189.555V267.23H178.419V268.687H189.555V280.008H191.013V268.687H201.789V280.008H203.247V268.687H213.747V280.008H215.205V268.687H225.796V280.008H227.254V268.687H238.03V280.008H239.488V268.687H250.717V267.23H239.488V256.639H250.717V255.181H239.488V244.589H250.717ZM225.797 244.589V255.181H215.206V244.589H225.797ZM213.748 244.589V255.181H203.248V244.589H213.748ZM191.015 244.589H201.791V255.181H191.015V244.589ZM191.015 267.23V256.639H201.791V267.23H191.015ZM203.248 267.23V256.639H213.748V267.23H203.248ZM215.206 267.23V256.639H225.797V267.23H215.206ZM238.031 267.23H227.255V256.639H238.031V267.23ZM238.031 255.181H227.255V244.589H238.031V255.181Z" fill="white"/>
<path d="M247.042 281.466H181.912C179.082 281.466 176.78 279.164 176.78 276.334V235.486C176.78 232.656 179.082 230.354 181.912 230.354H247.043C249.873 230.354 252.175 232.656 252.175 235.486V276.334C252.174 279.164 249.872 281.466 247.042 281.466ZM181.912 233.269C180.69 233.269 179.695 234.263 179.695 235.486V276.334C179.695 277.557 180.69 278.551 181.912 278.551H247.042C248.265 278.551 249.259 277.557 249.259 276.334V235.486C249.259 234.263 248.265 233.269 247.042 233.269H181.912Z" fill="#407BFF"/>
<g opacity="0.8">
<path d="M247.042 281.466H181.912C179.082 281.466 176.78 279.164 176.78 276.334V235.486C176.78 232.656 179.082 230.354 181.912 230.354H247.043C249.873 230.354 252.175 232.656 252.175 235.486V276.334C252.174 279.164 249.872 281.466 247.042 281.466ZM181.912 233.269C180.69 233.269 179.695 234.263 179.695 235.486V276.334C179.695 277.557 180.69 278.551 181.912 278.551H247.042C248.265 278.551 249.259 277.557 249.259 276.334V235.486C249.259 234.263 248.265 233.269 247.042 233.269H181.912Z" fill="white"/>
</g>
<path d="M239.614 241.435H233.094L226.573 247.956L214.311 254.087H201.464L188.813 266.739H179.695V268.925H189.718L202.37 256.273H214.827L227.868 249.752L233.999 243.622H240.13L249.259 239.057V236.613L239.614 241.435Z" fill="#407BFF"/>
<g opacity="0.6">
<path d="M239.614 241.435H233.094L226.573 247.956L214.311 254.087H201.464L188.813 266.739H179.695V268.925H189.718L202.37 256.273H214.827L227.868 249.752L233.999 243.622H240.13L249.259 239.057V236.613L239.614 241.435Z" fill="white"/>
</g>
<path d="M239.225 254.283L214.311 266.74H201.659L189.008 273.065H179.695V275.251H189.524L202.175 268.926H214.827L240.52 256.079L249.259 247.34V244.248L239.225 254.283Z" fill="#407BFF"/>
<path d="M239.614 247.762L226.962 254.088H214.311L201.659 260.413H179.695V262.6H202.175L214.827 256.274H227.479L240.13 249.948H249.259V247.762H239.614Z" fill="#407BFF"/>
<g opacity="0.3">
<path d="M239.614 247.762L226.962 254.088H214.311L201.659 260.413H179.695V262.6H202.175L214.827 256.274H227.479L240.13 249.948H249.259V247.762H239.614Z" fill="white"/>
</g>
<path d="M269.859 299.626H151.474C149.912 299.626 148.645 298.359 148.645 296.797V293.876C148.645 292.314 149.912 291.047 151.474 291.047H269.859C271.422 291.047 272.688 292.314 272.688 293.876V296.797C272.688 298.359 271.421 299.626 269.859 299.626Z" fill="#407BFF"/>
<path opacity="0.6" d="M269.859 299.626H151.474C149.912 299.626 148.645 298.359 148.645 296.797V293.876C148.645 292.314 149.912 291.047 151.474 291.047H269.859C271.422 291.047 272.688 292.314 272.688 293.876V296.797C272.688 298.359 271.421 299.626 269.859 299.626Z" fill="white"/>
<path d="M254.053 299.625H167.279V313.69H254.053V299.625Z" fill="#407BFF"/>
<path opacity="0.3" d="M254.053 299.625H167.279V313.69H254.053V299.625Z" fill="white"/>
<path d="M254.053 356.65H167.279V363.682H254.053V356.65Z" fill="#407BFF"/>
<path opacity="0.3" d="M254.053 356.65H167.279V363.682H254.053V356.65Z" fill="white"/>
<path d="M211.689 384.433H209.641C207.746 384.433 206.21 383.887 206.21 381.992V299.625H215.119V381.992C215.12 383.887 213.584 384.433 211.689 384.433Z" fill="#263238"/>
<path d="M168.303 384.433H166.255C164.36 384.433 162.825 383.887 162.825 381.992V299.625H171.734V381.992C171.734 383.887 170.198 384.433 168.303 384.433Z" fill="#263238"/>
<path d="M255.077 384.433H253.029C251.134 384.433 249.598 383.887 249.598 381.992V299.625H258.507V381.992C258.508 383.887 256.972 384.433 255.077 384.433Z" fill="#263238"/>
<path d="M179.552 291.168H178.455C177.46 291.168 176.653 290.361 176.653 289.366V287.209H181.355V289.366C181.354 290.361 180.547 291.168 179.552 291.168Z" fill="#263238"/>
<path d="M212.041 291.168H210.944C209.949 291.168 209.142 290.361 209.142 289.366V287.209H213.844V289.366C213.843 290.361 213.036 291.168 212.041 291.168Z" fill="#263238"/>
<path d="M234.561 291.168H233.464C232.469 291.168 231.662 290.361 231.662 289.366V282.244H236.364V289.366C236.363 290.361 235.556 291.168 234.561 291.168Z" fill="#263238"/>
<path d="M195.823 291.168H194.726C193.731 291.168 192.924 290.361 192.924 289.366V282.244H197.626V289.366C197.625 290.361 196.818 291.168 195.823 291.168Z" fill="#263238"/>
<path d="M221.62 281.903C226.372 281.903 230.224 278.051 230.224 273.299C230.224 268.547 226.372 264.695 221.62 264.695C216.868 264.695 213.016 268.547 213.016 273.299C213.016 278.051 216.868 281.903 221.62 281.903Z" fill="#407BFF"/>
<path opacity="0.5" d="M221.62 281.903C226.372 281.903 230.224 278.051 230.224 273.299C230.224 268.547 226.372 264.695 221.62 264.695C216.868 264.695 213.016 268.547 213.016 273.299C213.016 278.051 216.868 281.903 221.62 281.903Z" fill="white"/>
<path d="M227.384 275.167C227.384 279.382 223.967 282.799 219.752 282.799C215.537 282.799 212.12 279.382 212.12 275.167C212.12 270.952 215.537 267.535 219.752 267.535C223.967 267.535 227.384 270.952 227.384 275.167Z" fill="#407BFF"/>
<path opacity="0.2" d="M227.384 275.167C227.384 279.382 223.967 282.799 219.752 282.799C215.537 282.799 212.12 279.382 212.12 275.167C212.12 270.952 215.537 267.535 219.752 267.535C223.967 267.535 227.384 270.952 227.384 275.167Z" fill="white"/>
<path d="M235.963 271.537H195.217C194.967 271.537 194.718 271.569 194.477 271.632L174.998 276.74C173.715 277.076 172.82 278.236 172.82 279.562V285.942C172.82 287.554 174.126 288.86 175.738 288.86H216.484C216.734 288.86 216.982 288.828 217.224 288.765L236.703 283.657C237.986 283.32 238.881 282.161 238.881 280.835V274.455C238.88 272.843 237.574 271.537 235.963 271.537Z" fill="#407BFF"/>
<path opacity="0.7" d="M235.963 271.537H195.217C194.967 271.537 194.718 271.569 194.477 271.632L174.998 276.74C173.715 277.076 172.82 278.236 172.82 279.562V285.942C172.82 287.554 174.126 288.86 175.738 288.86H216.484C216.734 288.86 216.982 288.828 217.224 288.765L236.703 283.657C237.986 283.32 238.881 282.161 238.881 280.835V274.455C238.88 272.843 237.574 271.537 235.963 271.537Z" fill="white"/>
<path d="M215.723 288.86C216.743 288.86 217.751 288.388 218.265 287.507C218.519 287.072 218.662 286.568 218.662 286.038V279.658C218.662 278.047 217.356 276.74 215.744 276.74H175.759C174.739 276.74 173.731 277.212 173.217 278.093C172.963 278.528 172.82 279.032 172.82 279.562V285.942C172.82 287.554 174.126 288.86 175.738 288.86H215.723Z" fill="#263238"/>
<path opacity="0.5" d="M215.723 288.86C216.743 288.86 217.751 288.388 218.265 287.507C218.519 287.072 218.662 286.568 218.662 286.038V279.658C218.662 278.047 217.356 276.74 215.744 276.74H175.759C174.739 276.74 173.731 277.212 173.217 278.093C172.963 278.528 172.82 279.032 172.82 279.562V285.942C172.82 287.554 174.126 288.86 175.738 288.86H215.723Z" fill="white"/>
<path d="M182.484 280.785H175.981C175.546 280.785 175.193 280.432 175.193 279.997C175.193 279.562 175.546 279.209 175.981 279.209H182.484C182.919 279.209 183.272 279.562 183.272 279.997C183.272 280.432 182.919 280.785 182.484 280.785Z" fill="white"/>
<path d="M182.484 283.644H175.981C175.546 283.644 175.193 283.291 175.193 282.856C175.193 282.421 175.546 282.068 175.981 282.068H182.484C182.919 282.068 183.272 282.421 183.272 282.856C183.272 283.292 182.919 283.644 182.484 283.644Z" fill="white"/>
<path d="M182.484 286.504H175.981C175.546 286.504 175.193 286.151 175.193 285.716C175.193 285.281 175.546 284.928 175.981 284.928H182.484C182.919 284.928 183.272 285.281 183.272 285.716C183.272 286.151 182.919 286.504 182.484 286.504Z" fill="white"/>
<path d="M211.194 284.988C210.697 284.491 209.891 284.491 209.394 284.988L208.484 284.077C209.482 283.079 211.106 283.079 212.103 284.077L211.194 284.988Z" fill="#407BFF"/>
<path d="M207.731 283.326L206.821 282.415C207.749 281.488 208.982 280.977 210.293 280.977C211.604 280.977 212.838 281.488 213.765 282.415L212.855 283.326C211.486 281.956 209.1 281.957 207.731 283.326Z" fill="#407BFF"/>
<path d="M206.306 281.899L205.396 280.988C208.097 278.288 212.492 278.287 215.193 280.988L214.283 281.899C212.084 279.701 208.506 279.7 206.306 281.899Z" fill="#407BFF"/>
<g opacity="0.3">
<path d="M211.194 284.988C210.697 284.491 209.891 284.491 209.394 284.988L208.484 284.077C209.482 283.079 211.106 283.079 212.103 284.077L211.194 284.988Z" fill="black"/>
<path d="M207.731 283.326L206.821 282.415C207.749 281.488 208.982 280.977 210.293 280.977C211.604 280.977 212.838 281.488 213.765 282.415L212.855 283.326C211.486 281.956 209.1 281.957 207.731 283.326Z" fill="black"/>
<path d="M206.306 281.899L205.396 280.988C208.097 278.288 212.492 278.287 215.193 280.988L214.283 281.899C212.084 279.701 208.506 279.7 206.306 281.899Z" fill="black"/>
</g>
<path d="M424.939 132.676C424.283 136.794 423.698 142.823 426.662 145.456C426.662 145.456 426.653 149.642 415.22 154.569C410.828 148.724 413.875 145.909 413.875 145.909C418.424 144.655 418.232 142.8 417.327 139.64L424.939 132.676Z" fill="#FF8B7B"/>
<path opacity="0.2" d="M421.85 135.482L417.378 139.639C417.602 140.371 417.761 141.123 417.85 141.883C419.599 141.572 422.293 139.989 422.601 138.074C422.57 137.161 422.311 136.27 421.85 135.482Z" fill="black"/>
<path d="M430.044 125.455C428.443 132.238 427.906 135.134 423.838 138.048C417.717 142.44 409.739 138.98 409.28 131.864C408.879 125.452 411.576 115.404 418.755 113.879C423.877 112.736 428.955 115.96 430.098 121.082C430.421 122.524 430.402 124.021 430.044 125.455Z" fill="#FF8B7B"/>
<path d="M418.813 125.36C418.711 125.917 418.337 126.319 417.977 126.261C417.617 126.203 417.393 125.689 417.485 125.133C417.577 124.577 417.961 124.174 418.322 124.232C418.682 124.29 418.875 124.825 418.813 125.36Z" fill="#263238"/>
<path d="M412.51 124.284C412.408 124.851 412.034 125.243 411.674 125.185C411.314 125.127 411.09 124.613 411.182 124.057C411.274 123.501 411.658 123.098 412.019 123.166C412.379 123.235 412.602 123.728 412.51 124.284Z" fill="#263238"/>
<path d="M414.279 125.631C413.559 126.818 412.68 127.901 411.666 128.849C412.175 129.356 412.879 129.617 413.596 129.566L414.279 125.631Z" fill="#F84A35"/>
<path d="M416.255 132.271C415.976 132.268 415.698 132.24 415.423 132.189C415.333 132.177 415.27 132.095 415.282 132.005C415.282 132.003 415.282 132.001 415.283 131.999C415.305 131.91 415.392 131.853 415.483 131.869C416.885 132.139 418.332 131.729 419.382 130.762C419.445 130.695 419.55 130.691 419.617 130.753C419.684 130.816 419.688 130.921 419.626 130.988C418.722 131.854 417.506 132.317 416.255 132.271Z" fill="#263238"/>
<path d="M421.529 123.679C421.404 123.754 421.245 123.736 421.138 123.637C420.243 123.007 419.126 122.779 418.055 123.008C417.874 123.049 417.694 122.937 417.652 122.756C417.611 122.58 417.721 122.404 417.897 122.363C417.901 122.362 417.905 122.361 417.909 122.361C419.194 122.076 420.538 122.365 421.593 123.153C421.725 123.276 421.733 123.483 421.609 123.615C421.589 123.644 421.561 123.666 421.529 123.679Z" fill="#263238"/>
<path d="M410.657 121.739C410.54 121.706 410.449 121.615 410.417 121.498C410.371 121.32 410.476 121.138 410.653 121.089C411.692 120.77 412.822 120.99 413.666 121.675C413.801 121.787 413.819 121.987 413.707 122.122C413.701 122.129 413.695 122.135 413.69 122.141C413.57 122.276 413.363 122.288 413.228 122.168L413.224 122.165C412.548 121.655 411.668 121.497 410.856 121.741C410.791 121.761 410.721 121.76 410.657 121.739Z" fill="#263238"/>
<path d="M381.315 168.945L372.894 160.778L372.371 156.737C372.268 155.938 371.749 155.255 371.008 154.94L369.332 154.229C368.865 154.031 368.478 153.682 368.233 153.238L367.638 152.162C366.954 150.924 365.317 150.607 364.22 151.501C363.691 151.932 363.385 152.577 363.385 153.259V158.989C363.385 159.767 363.784 160.491 364.442 160.907L369.592 164.16L377.977 174.287L381.315 168.945Z" fill="#FF8B7B"/>
<path d="M408.032 146.363C408.032 146.363 402.403 147.352 391.804 167.678L390.027 170.947C389.073 172.702 386.744 173.131 385.227 171.831L379.027 166.517L375.107 172.325C375.107 172.325 385.27 185.392 391.078 184.376C396.886 183.36 404 166.266 404 166.266C404 166.266 412.646 143.777 408.032 146.363Z" fill="#407BFF"/>
<path opacity="0.1" d="M395.618 181.031C400.041 175.777 404 166.266 404 166.266C404 166.266 405.495 162.373 406.911 158.015L401.822 154.527C401.822 154.527 396.329 171.994 395.618 181.031Z" fill="black"/>
<path d="M414.958 341.1L413.836 354.399L406.378 353.944L406.266 341.155L414.958 341.1Z" fill="#FF8B7B"/>
<path d="M403.076 354.225C402.108 354.221 401.109 354.04 400.79 353.622C400.625 353.378 400.632 353.056 400.807 352.82C400.938 352.607 401.147 352.453 401.39 352.391C402.691 352.039 405.401 353.602 405.52 353.671C405.587 353.71 405.623 353.787 405.608 353.864C405.593 353.94 405.534 353.999 405.458 354.015C404.672 354.153 403.875 354.224 403.076 354.225ZM401.845 352.705C401.726 352.702 401.607 352.717 401.492 352.749C401.338 352.775 401.204 352.869 401.129 353.005C400.991 353.234 401.039 353.345 401.091 353.408C401.45 353.916 403.414 353.937 404.863 353.764C403.932 353.223 402.908 352.864 401.845 352.705Z" fill="#407BFF"/>
<path d="M405.43 354.011C405.404 354.018 405.377 354.016 405.353 354.004C404.424 353.587 402.56 351.891 402.73 351.017C402.75 350.806 402.91 350.55 403.418 350.501C403.789 350.463 404.159 350.579 404.443 350.82C405.431 351.639 405.63 353.74 405.64 353.838C405.645 353.904 405.613 353.968 405.557 354.004C405.517 354.022 405.471 354.024 405.43 354.011ZM403.539 350.85L403.433 350.84C403.102 350.867 403.079 351 403.065 351.047C403.015 351.575 404.236 352.9 405.199 353.475C405.11 352.592 404.753 351.757 404.175 351.084C403.999 350.932 403.773 350.849 403.539 350.85Z" fill="#407BFF"/>
<path d="M406.258 352.927L414.756 352.963C415.076 352.964 415.353 353.187 415.422 353.5L416.929 360.42C417.067 361.033 416.682 361.642 416.07 361.78C415.991 361.798 415.911 361.807 415.83 361.808C412.767 361.742 410.044 361.563 406.23 361.552C401.729 361.534 402.869 362.078 397.577 362.131C394.389 362.16 393.82 358.533 395.173 358.36C401.363 357.607 402.014 355.742 404.41 353.537C404.93 353.114 405.588 352.897 406.258 352.927Z" fill="#263238"/>
<path opacity="0.2" d="M414.288 349.044L406.333 348.87L406.266 341.155L414.958 341.1L414.288 349.044Z" fill="#263238"/>
<path d="M403.565 208.477C403.565 208.477 401.786 255.839 401.823 271.634C401.866 290.209 405.09 345.898 405.09 345.898H415.544C415.544 345.898 419.246 322.733 419.045 298.773C418.975 290.375 417.135 281.957 417.94 274.248C419.663 257.729 426.216 251.599 426.434 208.478L403.565 208.477Z" fill="#263238"/>
<path opacity="0.2" d="M421.369 230.678L418.221 226.736C418.221 226.736 415.808 248.838 417.841 275.415C417.868 275.024 417.898 274.634 417.938 274.247C419.081 263.288 422.349 256.897 424.484 241.248L421.369 230.678Z" fill="black"/>
<path d="M437.929 340.824L437.616 354.166L430.145 354.165L429.256 341.406L437.929 340.824Z" fill="#FF8B7B"/>
<path d="M426.555 354.225C425.587 354.221 424.588 354.04 424.269 353.622C424.104 353.378 424.111 353.056 424.287 352.82C424.418 352.607 424.627 352.453 424.87 352.391C426.171 352.039 428.881 353.602 429 353.671C429.067 353.71 429.103 353.787 429.088 353.864C429.073 353.94 429.014 353.999 428.938 354.015C428.151 354.153 427.353 354.224 426.555 354.225ZM425.323 352.705C425.204 352.702 425.085 352.717 424.97 352.749C424.816 352.775 424.682 352.869 424.607 353.005C424.469 353.234 424.517 353.345 424.569 353.408C424.928 353.916 426.891 353.937 428.341 353.764C427.41 353.223 426.387 352.864 425.323 352.705Z" fill="#407BFF"/>
<path d="M428.908 354.011C428.882 354.018 428.855 354.016 428.831 354.004C427.902 353.587 426.038 351.891 426.208 351.017C426.228 350.806 426.388 350.55 426.896 350.501C427.267 350.463 427.637 350.579 427.921 350.82C428.909 351.639 429.108 353.74 429.118 353.838C429.123 353.904 429.091 353.968 429.035 354.004C428.995 354.022 428.95 354.024 428.908 354.011ZM427.018 350.85L426.912 350.84C426.58 350.867 426.558 351 426.544 351.047C426.494 351.575 427.715 352.9 428.678 353.475C428.589 352.592 428.232 351.757 427.654 351.084C427.478 350.932 427.251 350.849 427.018 350.85Z" fill="#407BFF"/>
<path d="M429.737 352.927L438.235 352.963C438.555 352.964 438.832 353.187 438.901 353.5L440.408 360.42C440.546 361.033 440.161 361.642 439.549 361.78C439.47 361.798 439.39 361.807 439.309 361.808C436.246 361.742 433.523 361.563 429.709 361.552C425.208 361.534 426.348 362.078 421.056 362.131C417.868 362.16 417.299 358.533 418.652 358.36C424.842 357.607 425.493 355.742 427.889 353.537C428.409 353.114 429.066 352.897 429.737 352.927Z" fill="#263238"/>
<path opacity="0.2" d="M437.743 348.794L429.792 349.103L429.256 341.406L437.93 340.824L437.743 348.794Z" fill="#263238"/>
<path d="M417.067 208.477C417.067 208.477 420.133 256.932 421.132 273.086C422.258 291.288 428.174 345.898 428.174 345.898H438.845C438.845 345.898 440.693 321.464 440.405 299.066C440.283 289.558 437.281 280.612 437.103 273.667C436.873 264.666 442.123 232.276 438.895 206.02L417.067 208.477Z" fill="#263238"/>
<path d="M411.26 145.757C405.059 146.531 400.516 147.935 400.806 168.842C401.096 189.749 401.967 210.656 401.967 210.656H440.006C440.006 210.656 438.264 178.715 440.006 165.648C441.748 152.581 440.587 146.193 432.456 145.757C424.327 145.321 416.734 145.074 411.26 145.757Z" fill="#407BFF"/>
<path d="M413.583 143.496V146.157C413.583 146.157 414.414 148.805 421.621 148.66C428.828 148.515 429.409 145.332 429.409 145.332V143.398C429.409 142.005 428.141 140.966 426.775 141.239C424.706 141.653 421.281 141.939 416.029 141.307C414.725 141.15 413.583 142.183 413.583 143.496Z" fill="#407BFF"/>
<path opacity="0.1" d="M377.417 175.071L381.15 168.337L379.322 166.77L375.699 173.06C376.1 173.548 376.69 174.25 377.417 175.071Z" fill="black"/>
<path d="M378.157 164.703L373.583 172.107L375.108 175.229L380.625 166.3L378.157 164.703Z" fill="#407BFF"/>
<path opacity="0.1" d="M421.621 148.658C414.414 148.803 413.583 146.155 413.583 146.155V145.527C413.583 145.527 411.46 149.643 417.721 150.296C423.982 150.949 428.124 147.947 428.993 146.154C428.994 146.152 428.994 146.15 428.995 146.148C428.296 147.104 426.448 148.561 421.621 148.658Z" fill="black"/>
<path opacity="0.1" d="M439.691 157.547H434.149C434.149 157.547 437.209 169.599 439.303 176.7C439.402 172.45 439.617 168.574 440.007 165.647C440.301 163.44 440.504 161.441 440.613 159.611L439.691 157.547Z" fill="black"/>
<path d="M444.943 191.49L440.043 205.21L436.122 207.973C435.576 208.357 435.252 208.983 435.252 209.65V211.969C435.252 212.18 435.219 212.39 435.155 212.591C434.795 213.723 435.468 214.923 436.622 215.206L439.387 215.884C440.187 216.08 441.026 215.779 441.519 215.12L443.555 212.398C443.82 212.043 443.964 211.612 443.964 211.169V207.169L450.171 193.312L444.943 191.49Z" fill="#FF8B7B"/>
<path d="M432.457 145.756C432.457 145.756 440.152 146.337 444.943 154.322C449.734 162.307 454.09 179.875 452.783 186.844C451.476 193.813 449.734 197.588 449.734 197.588L442.737 194.83C442.737 194.83 445.088 189.288 444.507 183.566C443.926 177.843 432.747 155.63 432.456 153.016C432.167 150.402 429.844 146.337 432.457 145.756Z" fill="#407BFF"/>
<path opacity="0.1" d="M443.708 191.855C443.23 193.662 442.738 194.83 442.738 194.83L449.735 197.588C449.735 197.588 450.26 196.446 450.949 194.271L443.708 191.855Z" fill="black"/>
<path d="M441.534 196.079L449.785 198.848L452.478 196.652L442.528 193.312L441.534 196.079Z" fill="#407BFF"/>
<path d="M418.144 118.143C415.722 117.503 409.588 115.312 412.492 109.867C415.397 104.422 416.145 111.319 418.674 111.754C421.204 112.19 430.06 111.827 430.713 119.449C430.713 119.449 433.619 124.095 429.406 130.526C429.406 130.526 426.163 129.975 426.659 127.289C427.155 124.603 425.937 124.095 424.949 123.224C423.961 122.353 424.687 119.449 424.687 119.449C424.687 119.449 419.758 118.569 418.144 118.143Z" fill="#263238"/>
<path d="M430.999 131.05C430.356 132.203 429.284 133.055 428.017 133.422C426.325 133.884 425.481 132.37 425.953 130.766C426.391 129.327 427.791 127.351 429.488 127.565C430.715 127.759 431.553 128.911 431.359 130.139C431.307 130.465 431.184 130.776 430.999 131.05Z" fill="#FF8B7B"/>
<path d="M426.722 125.546L422.102 124.811C421.7 123.635 420.037 123.368 419.331 123.255C418.597 123.138 416.828 122.861 416.131 124.001L414.518 123.744C414.208 122.444 412.441 122.159 411.707 122.042C410.847 121.905 408.562 121.541 408.249 123.503C408.001 125.059 409.211 126.549 410.945 126.825C412.68 127.101 414.292 126.06 414.54 124.504C414.557 124.395 414.564 124.292 414.566 124.193L415.945 124.412C415.916 124.507 415.89 124.607 415.873 124.716C415.625 126.272 416.835 127.762 418.57 128.038C420.304 128.314 421.916 127.273 422.164 125.717C422.19 125.554 422.192 125.406 422.185 125.265L426.655 125.976C427.265 126.073 427.825 126.381 428.234 126.844L428.561 126.557C428.085 126.018 427.432 125.659 426.722 125.546ZM411.014 126.395C409.517 126.157 408.469 124.89 408.679 123.572C408.85 122.498 409.735 122.17 411.638 122.473C413.541 122.776 414.28 123.363 414.11 124.437C413.9 125.754 412.512 126.633 411.014 126.395ZM418.638 127.608C417.141 127.37 416.093 126.103 416.303 124.785C416.474 123.711 417.359 123.383 419.262 123.685C421.165 123.988 421.904 124.575 421.733 125.649C421.524 126.967 420.135 127.846 418.638 127.608Z" fill="#263238"/>
<g opacity="0.2">
<path d="M413.838 234.215L409.26 238.793C412.138 242.175 413.879 246.555 413.879 251.343C413.879 259.447 408.892 266.362 401.829 269.252C401.823 270.103 401.82 270.908 401.822 271.634C401.825 272.945 401.844 274.448 401.877 276.096C412.551 272.921 420.339 263.048 420.339 251.343C420.339 244.77 417.88 238.775 413.838 234.215Z" fill="black"/>
<path d="M430.828 127.805C432.527 123.539 431.236 120.453 430.828 119.658V127.805Z" fill="black"/>
<path d="M431.359 130.138C431.466 129.459 431.244 128.813 430.828 128.33V131.295C430.882 131.211 430.949 131.137 430.999 131.049C431.184 130.775 431.307 130.464 431.359 130.138Z" fill="black"/>
<path d="M411.629 232.005C409.116 229.777 406.16 228.049 402.915 226.938C402.842 229.131 402.766 231.429 402.691 233.793C404.271 234.529 405.738 235.466 407.051 236.583L411.629 232.005Z" fill="black"/>
</g>
<path d="M89.0951 358.186L88.2871 372.425L96.2461 373.063L98.2841 359.549L89.0951 358.186Z" fill="#FF8B7B"/>
<path d="M98.1193 372.63C98.0383 372.613 97.9753 372.55 97.9593 372.469C97.9443 372.387 97.9823 372.305 98.0533 372.263C98.1813 372.189 101.076 370.519 102.466 370.895C102.725 370.961 102.949 371.126 103.089 371.354C103.277 371.607 103.284 371.95 103.108 372.211C102.767 372.657 101.699 372.851 100.665 372.855C99.8113 372.854 98.9603 372.779 98.1193 372.63ZM98.7563 372.363C100.305 372.548 102.403 372.526 102.787 371.983C102.843 371.916 102.894 371.797 102.746 371.552C102.665 371.406 102.522 371.305 102.358 371.278C102.235 371.244 102.108 371.228 101.981 371.231C100.845 371.401 99.7513 371.785 98.7563 372.363Z" fill="#407BFF"/>
<path d="M98.0153 372.617C97.9553 372.579 97.9213 372.51 97.9263 372.439C97.9373 372.335 98.1503 370.09 99.2053 369.214C99.5083 368.956 99.9043 368.832 100.3 368.873C100.843 368.925 101.014 369.199 101.035 369.424C101.216 370.359 99.2253 372.171 98.2323 372.616C98.2063 372.629 98.1773 372.632 98.1503 372.624C98.1063 372.64 98.0573 372.637 98.0153 372.617ZM100.17 369.248C99.9213 369.246 99.6793 369.335 99.4903 369.499C98.8723 370.219 98.4903 371.111 98.3963 372.054C99.4253 371.44 100.729 370.023 100.676 369.459C100.661 369.409 100.637 369.266 100.283 369.237L100.17 369.248Z" fill="#407BFF"/>
<path d="M97.2651 371.468L88.1841 371.506C87.8421 371.507 87.5461 371.746 87.4721 372.08L85.8621 379.475C85.7141 380.13 86.1261 380.781 86.7801 380.928C86.8641 380.947 86.9501 380.957 87.0361 380.958C90.3091 380.887 93.2201 380.696 97.2951 380.684C102.105 380.665 100.887 381.246 106.542 381.302C109.949 381.333 110.557 377.458 109.111 377.273C102.496 376.469 101.801 374.475 99.2401 372.119C98.6841 371.668 97.9811 371.436 97.2651 371.468Z" fill="#263238"/>
<path opacity="0.2" d="M88.6123 366.692L97.0553 367.701L98.2843 359.549L89.0953 358.186L88.6123 366.692Z" fill="#263238"/>
<path d="M104.003 199.919C104.003 199.919 95.7482 205.379 95.2362 223.765C94.8662 237.038 95.7292 265.541 96.2372 280.367C96.4192 285.672 95.8442 290.964 94.5022 296.1C92.1582 305.07 88.5272 324.976 87.4292 364.497H98.3072C98.3072 364.497 110.081 313.562 113.408 290.27C116.735 266.978 122.11 199.918 122.11 199.918L104.003 199.919Z" fill="#263238"/>
<path opacity="0.4" d="M119.496 230.855L110.743 228.486C110.743 228.486 111.569 258.556 114.948 277.844C116.467 264.286 118.146 246.195 119.496 230.855Z" fill="black"/>
<path d="M121.919 361.262L122.254 375.52L130.238 375.519L131.188 361.885L121.919 361.262Z" fill="#FF8B7B"/>
<path d="M131.529 375.358C131.448 375.341 131.386 375.278 131.369 375.197C131.354 375.115 131.392 375.033 131.463 374.991C131.591 374.917 134.486 373.247 135.876 373.623C136.135 373.689 136.359 373.854 136.499 374.082C136.686 374.335 136.694 374.678 136.518 374.939C136.177 375.385 135.109 375.579 134.075 375.583C133.221 375.582 132.369 375.507 131.529 375.358ZM132.166 375.091C133.715 375.276 135.813 375.254 136.197 374.711C136.253 374.644 136.304 374.525 136.156 374.28C136.075 374.134 135.932 374.033 135.768 374.006C135.645 373.972 135.519 373.956 135.391 373.959C134.255 374.129 133.16 374.513 132.166 375.091Z" fill="#407BFF"/>
<path d="M131.425 375.347C131.365 375.309 131.331 375.24 131.336 375.169C131.347 375.065 131.559 372.82 132.615 371.944C132.919 371.686 133.314 371.562 133.711 371.603C134.254 371.655 134.425 371.929 134.446 372.154C134.627 373.089 132.635 374.901 131.643 375.346C131.617 375.359 131.588 375.362 131.561 375.354C131.515 375.369 131.467 375.366 131.425 375.347ZM133.58 371.977C133.331 371.975 133.089 372.064 132.9 372.228C132.282 372.947 131.9 373.84 131.806 374.783C132.835 374.169 134.139 372.752 134.086 372.188C134.071 372.138 134.047 371.995 133.693 371.966L133.58 371.977Z" fill="#407BFF"/>
<path d="M130.675 374.196L121.594 374.234C121.252 374.235 120.956 374.474 120.882 374.808L119.272 382.203C119.124 382.858 119.536 383.509 120.191 383.656C120.275 383.675 120.361 383.685 120.447 383.686C123.72 383.615 126.631 383.424 130.706 383.412C135.516 383.393 134.298 383.974 139.953 384.03C143.36 384.061 143.967 380.185 142.522 380.001C135.907 379.197 135.212 377.203 132.651 374.847C132.094 374.396 131.391 374.164 130.675 374.196Z" fill="#263238"/>
<path opacity="0.2" d="M122.119 369.779L130.615 370.11L131.188 361.885L121.919 361.262L122.119 369.779Z" fill="#263238"/>
<path d="M111.873 204.696C111.873 204.696 106.689 218.129 112.897 241.553C115.495 251.356 120.007 281.492 120.007 281.492C120.949 286.784 120.995 292.191 120.224 297.511C119.552 302.15 118.912 308.997 119.04 317.827C119.296 335.488 120.576 367.226 120.576 367.226H132.094C132.094 367.226 138.487 308.165 138.493 288.392C138.499 266.886 131.582 202.648 131.582 202.648L111.873 204.696Z" fill="#263238"/>
<path d="M111.552 152.334C111.552 152.334 116.395 151.546 115.79 142.585C115.79 142.585 120.169 140.263 123.241 142.741C126.313 145.218 121.132 151.735 124.906 154.124C124.906 154.124 121.852 156.451 111.552 152.334Z" fill="#FF8B7B"/>
<path d="M131.59 129.03C131.6 128.427 131.927 127.943 132.321 127.949C132.715 127.955 133.027 128.449 133.017 129.052C133.008 129.655 132.68 130.139 132.287 130.132C131.892 130.127 131.58 129.634 131.59 129.03Z" fill="#263238"/>
<path d="M131.326 130.092L134.741 134.092C134.741 134.092 133.435 135.373 131.293 134.928L131.326 130.092Z" fill="#FF5652"/>
<path d="M129.108 127.319C129.224 127.342 129.343 127.309 129.43 127.229C130.052 126.58 130.95 126.272 131.84 126.401C132.028 126.44 132.213 126.322 132.256 126.134C132.296 125.944 132.178 125.757 131.99 125.71C130.869 125.531 129.73 125.906 128.936 126.718C128.793 126.843 128.778 127.06 128.903 127.203C128.907 127.207 128.911 127.212 128.915 127.216C128.964 127.273 129.033 127.31 129.108 127.319Z" fill="#263238"/>
<path d="M132.427 139.116C131.741 142.689 129.387 144.768 126.458 145.576C126.458 145.576 126.458 145.576 126.448 145.586C125.742 145.78 124.984 145.903 124.226 145.955C121.39 146.15 118.318 145.382 115.789 143.836C111.776 140.109 111.592 136.884 110.783 129.308C110.589 127.711 110.773 126.083 111.326 124.568C113.261 119.162 119.22 116.357 124.625 118.292C132.202 121.026 133.748 132.216 132.427 139.116Z" fill="#FF8B7B"/>
<path opacity="0.2" d="M126.479 145.556C126.479 145.556 126.479 145.566 126.459 145.576C126.459 145.576 126.459 145.576 126.449 145.586C125.743 145.78 124.985 145.903 124.227 145.955L124.565 143.641C124.565 143.641 125.363 145.259 126.479 145.556Z" fill="black"/>
<path d="M132.176 127.986L133.816 127.648C133.816 127.648 132.893 128.835 132.176 127.986Z" fill="#263238"/>
<path d="M122.841 116.036C122.841 116.036 131.221 114.842 133.515 121.753C135.809 128.664 129.68 119.739 128.178 119.535C126.675 119.331 132.091 125.833 124.905 133.854L119.087 144.277C119.087 144.277 116.839 143.589 115.83 144.701C115.83 144.701 111.152 143.311 110.043 133.855C108.935 124.398 110.982 115.61 122.841 116.036Z" fill="#263238"/>
<path d="M124.906 132.558C124.906 132.558 128.046 131.479 128.472 133.441C128.899 135.403 127.482 133.04 124.906 132.558Z" fill="#263238"/>
<path d="M116.511 144.066C116.511 144.066 112.302 144.354 113.07 146.222C113.838 148.09 113.894 144.905 116.511 144.066Z" fill="#263238"/>
<path d="M111.366 121.479C111.366 121.479 97.237 114.109 95.25 124.976C93.263 135.844 101.327 139.467 97.47 146.712C93.614 153.957 103.196 148.932 104.949 141.804C106.702 134.676 108.434 129.326 111.366 129.255C111.366 129.255 115.212 125.577 111.366 121.479Z" fill="#263238"/>
<path d="M111.366 121.48C111.366 121.48 110.739 121.154 109.738 120.742C110.582 122.853 111.336 126.179 109.994 129.729C110.422 129.439 110.876 129.268 111.365 129.256C111.365 129.256 115.212 125.578 111.366 121.48Z" fill="#407BFF"/>
<path d="M124.438 131.094C125.651 132.069 126.425 133.486 126.59 135.033C126.794 137.087 124.864 137.776 123.11 136.923C121.52 136.152 119.519 134.154 120.133 132.223C120.748 130.292 122.941 129.919 124.438 131.094Z" fill="#FF8B7B"/>
<path d="M126.314 139.242C127.091 139.242 127.722 138.611 127.722 137.834C127.722 137.056 127.091 136.426 126.314 136.426C125.536 136.426 124.906 137.056 124.906 137.834C124.906 138.611 125.536 139.242 126.314 139.242Z" fill="#407BFF"/>
<path opacity="0.7" d="M126.314 139.242C127.091 139.242 127.722 138.611 127.722 137.834C127.722 137.056 127.091 136.426 126.314 136.426C125.536 136.426 124.906 137.056 124.906 137.834C124.906 138.611 125.536 139.242 126.314 139.242Z" fill="white"/>
<path d="M105.697 153.357C105.697 153.357 96.7711 154.017 91.9081 164.255C87.0451 174.493 83.7171 193.69 95.2351 194.202C106.753 194.714 105.696 191.899 105.696 191.899L105.721 186.78L98.3401 184.564C96.7881 184.098 95.9401 182.43 96.4781 180.902L100.354 169.887L105.697 153.357Z" fill="#407BFF"/>
<path opacity="0.1" d="M105.697 153.357C105.697 153.357 96.7711 154.017 91.9081 164.255C87.0451 174.493 83.7171 193.69 95.2351 194.202C106.753 194.714 105.696 191.899 105.696 191.899L105.721 186.78L98.3401 184.564C96.7881 184.098 95.9401 182.43 96.4781 180.902L100.354 169.887L105.697 153.357Z" fill="black"/>
<path d="M111.502 155.608C111.502 155.608 108.687 148.54 111.502 148.668C114.317 148.796 125.451 150.588 128.139 150.076C130.827 149.564 123.66 156.475 123.66 156.475L111.502 155.608Z" fill="#407BFF"/>
<path d="M111.502 155.608C111.502 155.608 108.687 148.54 111.502 148.668C114.317 148.796 125.451 150.588 128.139 150.076C130.827 149.564 123.66 156.475 123.66 156.475L111.502 155.608Z" fill="#263238"/>
<path d="M98.5629 206.999C98.5629 206.999 100.496 202.066 100.293 196.504C99.8999 185.729 98.1509 168.749 97.2829 161.968C96.2199 153.652 107.521 151.969 119.295 152.737C131.069 153.505 137.724 153.249 136.444 167.07C135.164 180.891 132.605 206.999 132.605 206.999H98.5629Z" fill="#407BFF"/>
<path opacity="0.1" d="M136.263 169.025C135.028 167.321 134.008 166.289 134.008 166.289L129.523 167.309C129.523 167.309 130.922 184.196 134.434 188.202C135.064 181.675 135.741 174.61 136.263 169.025Z" fill="black"/>
<path d="M129.039 153.68C129.039 153.68 135.933 152.993 138.748 160.16C140.789 165.354 144.846 176.867 146.924 182.811C147.419 184.225 149.359 184.367 150.061 183.043L152.826 177.821C152.826 177.821 156.921 178.589 158.457 182.172C159.993 185.755 150.778 195.499 145.915 195.482C140.516 195.463 133.493 182.273 131.582 176.202C127.705 163.89 129.039 153.68 129.039 153.68Z" fill="#407BFF"/>
<path d="M152.826 179.512L155.994 174.128C155.994 174.128 154.201 170.785 155.378 168.62C156.555 166.455 157.707 168.2 158.836 167.541C159.966 166.882 162.522 162.19 163.746 164.544C164.97 166.898 166.499 170.951 160.192 175.752L156.779 184.314L152.826 179.512Z" fill="#FF8B7B"/>
<path d="M153.296 177.246C154.509 177.475 157.741 178.477 159.141 182.755C159.153 182.793 159.162 182.827 159.169 182.866C159.255 183.358 159.876 187.039 159.159 187.099C158.419 187.161 157.44 183.652 151.632 180.59C151.279 180.404 151.143 179.963 151.35 179.621L152.589 177.57C152.737 177.327 153.017 177.194 153.296 177.246Z" fill="#407BFF"/>
<path d="M153.296 177.246C154.509 177.475 157.741 178.477 159.141 182.755C159.153 182.793 159.162 182.827 159.169 182.866C159.255 183.358 159.876 187.039 159.159 187.099C158.419 187.161 157.44 183.652 151.632 180.59C151.279 180.404 151.143 179.963 151.35 179.621L152.589 177.57C152.737 177.327 153.017 177.194 153.296 177.246Z" fill="#263238"/>
<path opacity="0.1" d="M119.296 152.737C114.82 152.445 110.415 152.509 106.729 153.155C107.594 154.235 109.741 155.302 114.745 155.538C122.097 155.885 123.098 154.205 125.928 153.218C123.951 153.013 121.735 152.896 119.296 152.737Z" fill="black"/>
</svg>
